%TF.GenerationSoftware,KiCad,Pcbnew,8.0.3*%
%TF.CreationDate,2024-07-29T11:00:05+05:30*%
%TF.ProjectId,SSTM32_REV2,5353544d-3332-45f5-9245-56322e6b6963,rev?*%
%TF.SameCoordinates,Original*%
%TF.FileFunction,Copper,L2,Inr*%
%TF.FilePolarity,Positive*%
%FSLAX46Y46*%
G04 Gerber Fmt 4.6, Leading zero omitted, Abs format (unit mm)*
G04 Created by KiCad (PCBNEW 8.0.3) date 2024-07-29 11:00:05*
%MOMM*%
%LPD*%
G01*
G04 APERTURE LIST*
G04 Aperture macros list*
%AMRoundRect*
0 Rectangle with rounded corners*
0 $1 Rounding radius*
0 $2 $3 $4 $5 $6 $7 $8 $9 X,Y pos of 4 corners*
0 Add a 4 corners polygon primitive as box body*
4,1,4,$2,$3,$4,$5,$6,$7,$8,$9,$2,$3,0*
0 Add four circle primitives for the rounded corners*
1,1,$1+$1,$2,$3*
1,1,$1+$1,$4,$5*
1,1,$1+$1,$6,$7*
1,1,$1+$1,$8,$9*
0 Add four rect primitives between the rounded corners*
20,1,$1+$1,$2,$3,$4,$5,0*
20,1,$1+$1,$4,$5,$6,$7,0*
20,1,$1+$1,$6,$7,$8,$9,0*
20,1,$1+$1,$8,$9,$2,$3,0*%
G04 Aperture macros list end*
%TA.AperFunction,ComponentPad*%
%ADD10RoundRect,0.250000X1.400000X-0.650000X1.400000X0.650000X-1.400000X0.650000X-1.400000X-0.650000X0*%
%TD*%
%TA.AperFunction,ComponentPad*%
%ADD11O,3.300000X1.800000*%
%TD*%
%TA.AperFunction,ComponentPad*%
%ADD12C,3.800000*%
%TD*%
%TA.AperFunction,ComponentPad*%
%ADD13RoundRect,0.200000X-0.200000X-0.450000X0.200000X-0.450000X0.200000X0.450000X-0.200000X0.450000X0*%
%TD*%
%TA.AperFunction,ComponentPad*%
%ADD14O,0.800000X1.300000*%
%TD*%
%TA.AperFunction,ComponentPad*%
%ADD15R,1.000000X1.000000*%
%TD*%
%TA.AperFunction,ComponentPad*%
%ADD16O,1.000000X1.000000*%
%TD*%
%TA.AperFunction,ComponentPad*%
%ADD17O,1.600000X0.900000*%
%TD*%
%TA.AperFunction,ComponentPad*%
%ADD18RoundRect,0.200000X0.200000X0.450000X-0.200000X0.450000X-0.200000X-0.450000X0.200000X-0.450000X0*%
%TD*%
%TA.AperFunction,ViaPad*%
%ADD19C,0.800000*%
%TD*%
%TA.AperFunction,ViaPad*%
%ADD20C,0.600000*%
%TD*%
G04 APERTURE END LIST*
D10*
%TO.N,+12V*%
%TO.C,J1*%
X188552500Y-116900000D03*
X196752500Y-116900000D03*
D11*
%TO.N,GND*%
X188552500Y-113400000D03*
X196752500Y-113400000D03*
%TD*%
D12*
%TO.N,GND*%
%TO.C,H2*%
X198000000Y-123000000D03*
%TD*%
%TO.N,GND*%
%TO.C,H1*%
X145000000Y-81000000D03*
%TD*%
%TO.N,GND*%
%TO.C,H3*%
X145000000Y-123000000D03*
%TD*%
D13*
%TO.N,+3.3V*%
%TO.C,J4*%
X158125000Y-121000000D03*
D14*
%TO.N,UART3_TX*%
X159375000Y-121000000D03*
%TO.N,UART3_RX*%
X160625000Y-121000000D03*
%TO.N,GND*%
X161875000Y-121000000D03*
%TD*%
D15*
%TO.N,+3.3V*%
%TO.C,J6*%
X174100000Y-83925000D03*
D16*
%TO.N,SWDIO*%
X174100000Y-85195000D03*
%TO.N,GND*%
X172830000Y-83925000D03*
%TO.N,SWCLK*%
X172830000Y-85195000D03*
%TO.N,GND*%
X171560000Y-83925000D03*
%TO.N,SWO*%
X171560000Y-85195000D03*
%TO.N,unconnected-(J6-Pin_7-Pad7)*%
X170290000Y-83925000D03*
%TO.N,unconnected-(J6-Pin_8-Pad8)*%
X170290000Y-85195000D03*
%TO.N,GND*%
X169020000Y-83925000D03*
%TO.N,NRST*%
X169020000Y-85195000D03*
%TD*%
D17*
%TO.N,unconnected-(J5-Shield-Pad6)_1*%
%TO.C,J5*%
X199000000Y-99000000D03*
%TO.N,unconnected-(J5-Shield-Pad6)*%
X199000000Y-92400000D03*
%TD*%
D12*
%TO.N,GND*%
%TO.C,H4*%
X198000000Y-81000000D03*
%TD*%
D18*
%TO.N,+3.3V*%
%TO.C,J3*%
X161750000Y-83000000D03*
D14*
%TO.N,I2C1_SCL*%
X160500000Y-83000000D03*
%TO.N,I2C1_SDA*%
X159250000Y-83000000D03*
%TO.N,GND*%
X158000000Y-83000000D03*
%TD*%
D19*
%TO.N,GND*%
X152100000Y-93000000D03*
X151000000Y-101300000D03*
X172900000Y-122000000D03*
X185000000Y-122500000D03*
X172850000Y-82900000D03*
X172900000Y-125000000D03*
X190900000Y-93800000D03*
X172300000Y-111000000D03*
X146300000Y-100100000D03*
X152000000Y-101300000D03*
X157600000Y-92000000D03*
X176100000Y-112000000D03*
X165800000Y-108900000D03*
X186000000Y-121800000D03*
X197100000Y-112100000D03*
X184000000Y-111000000D03*
X194000000Y-93000000D03*
X147500000Y-102600000D03*
X148100000Y-92500000D03*
X168975784Y-94188228D03*
X183800000Y-116500000D03*
X194000000Y-94200000D03*
X167200000Y-106000000D03*
X188700000Y-112100000D03*
X173000000Y-123900000D03*
X157000000Y-108800000D03*
X149000000Y-95200000D03*
X183575000Y-85750000D03*
X172895950Y-120871090D03*
X152000000Y-94300000D03*
X195000000Y-93000000D03*
X150000000Y-97800000D03*
X178080996Y-119290190D03*
X182400000Y-115600000D03*
X178100000Y-120200000D03*
X195200000Y-94200000D03*
X172100000Y-113000000D03*
X177900000Y-112000000D03*
X166800000Y-94100000D03*
X171600000Y-82900000D03*
X152100000Y-106500000D03*
X169050000Y-82900000D03*
X157600000Y-81900000D03*
%TO.N,+3.3V*%
X158000000Y-108800000D03*
X157200000Y-90000000D03*
X166800000Y-95100000D03*
X161800000Y-81900000D03*
X168700000Y-117900000D03*
X168000000Y-122000000D03*
X168000000Y-124500000D03*
X145200000Y-107700000D03*
X151200000Y-96100000D03*
X175200000Y-84050000D03*
X165600000Y-106800000D03*
X170100000Y-124500000D03*
X156000000Y-91200000D03*
X154600000Y-91900000D03*
X172300000Y-119000000D03*
X181000000Y-121800000D03*
X148200000Y-88000000D03*
X168700000Y-119000000D03*
X170000000Y-122000000D03*
X162800000Y-90000000D03*
X172200000Y-117800000D03*
X143900000Y-105900000D03*
X183575000Y-83750000D03*
X180000000Y-121000000D03*
D20*
%TO.N,NRST*%
X165000000Y-91000000D03*
X162000000Y-96000000D03*
%TD*%
%TA.AperFunction,Conductor*%
%TO.N,GND*%
G36*
X197210493Y-78520185D02*
G01*
X197256248Y-78572989D01*
X197266192Y-78642147D01*
X197237167Y-78705703D01*
X197189101Y-78739792D01*
X196976117Y-78824117D01*
X196976109Y-78824121D01*
X196711476Y-78969604D01*
X196711471Y-78969607D01*
X196486565Y-79133010D01*
X196486564Y-79133011D01*
X197417262Y-80063709D01*
X197283398Y-80160967D01*
X197160967Y-80283398D01*
X197063709Y-80417262D01*
X196135311Y-79488864D01*
X196054520Y-79586525D01*
X196054518Y-79586528D01*
X195892707Y-79841502D01*
X195892704Y-79841508D01*
X195764127Y-80114747D01*
X195764125Y-80114752D01*
X195670805Y-80401959D01*
X195614216Y-80698609D01*
X195614215Y-80698616D01*
X195595255Y-80999994D01*
X195595255Y-81000005D01*
X195614215Y-81301383D01*
X195614216Y-81301390D01*
X195670805Y-81598040D01*
X195764125Y-81885247D01*
X195764127Y-81885252D01*
X195892704Y-82158491D01*
X195892707Y-82158497D01*
X196054516Y-82413469D01*
X196135311Y-82511133D01*
X197063708Y-81582736D01*
X197160967Y-81716602D01*
X197283398Y-81839033D01*
X197417262Y-81936290D01*
X196486564Y-82866987D01*
X196486565Y-82866989D01*
X196711461Y-83030385D01*
X196711479Y-83030397D01*
X196976109Y-83175878D01*
X196976117Y-83175882D01*
X197256889Y-83287047D01*
X197256892Y-83287048D01*
X197549399Y-83362150D01*
X197848995Y-83399999D01*
X197849007Y-83400000D01*
X198150993Y-83400000D01*
X198151004Y-83399999D01*
X198450600Y-83362150D01*
X198743107Y-83287048D01*
X198743110Y-83287047D01*
X199023882Y-83175882D01*
X199023890Y-83175878D01*
X199288520Y-83030397D01*
X199288530Y-83030390D01*
X199513433Y-82866987D01*
X199513434Y-82866987D01*
X198582737Y-81936290D01*
X198716602Y-81839033D01*
X198839033Y-81716602D01*
X198936290Y-81582737D01*
X199864687Y-82511134D01*
X199945486Y-82413464D01*
X200107292Y-82158497D01*
X200107295Y-82158491D01*
X200235872Y-81885252D01*
X200235874Y-81885247D01*
X200257569Y-81818479D01*
X200297006Y-81760804D01*
X200361365Y-81733605D01*
X200430211Y-81745520D01*
X200481687Y-81792764D01*
X200499500Y-81856797D01*
X200499500Y-92067971D01*
X200479815Y-92135010D01*
X200427011Y-92180765D01*
X200357853Y-92190709D01*
X200294297Y-92161684D01*
X200260939Y-92115424D01*
X200221185Y-92019451D01*
X200192322Y-91949769D01*
X200192320Y-91949766D01*
X200192318Y-91949762D01*
X200088302Y-91794092D01*
X200088299Y-91794088D01*
X199955911Y-91661700D01*
X199955907Y-91661697D01*
X199800237Y-91557681D01*
X199800228Y-91557676D01*
X199627251Y-91486027D01*
X199627243Y-91486025D01*
X199443620Y-91449500D01*
X199443616Y-91449500D01*
X198556384Y-91449500D01*
X198556379Y-91449500D01*
X198372756Y-91486025D01*
X198372748Y-91486027D01*
X198199771Y-91557676D01*
X198199762Y-91557681D01*
X198044092Y-91661697D01*
X198044088Y-91661700D01*
X197911700Y-91794088D01*
X197911697Y-91794092D01*
X197807681Y-91949762D01*
X197807676Y-91949771D01*
X197736027Y-92122748D01*
X197736025Y-92122756D01*
X197699500Y-92306379D01*
X197699500Y-92493620D01*
X197736025Y-92677243D01*
X197736027Y-92677251D01*
X197807676Y-92850228D01*
X197807681Y-92850237D01*
X197911697Y-93005907D01*
X197911700Y-93005911D01*
X198044088Y-93138299D01*
X198044092Y-93138302D01*
X198199762Y-93242318D01*
X198199768Y-93242321D01*
X198199769Y-93242322D01*
X198372749Y-93313973D01*
X198556379Y-93350499D01*
X198556383Y-93350500D01*
X198556384Y-93350500D01*
X199443617Y-93350500D01*
X199443618Y-93350499D01*
X199627251Y-93313973D01*
X199800231Y-93242322D01*
X199955908Y-93138302D01*
X200088302Y-93005908D01*
X200192322Y-92850231D01*
X200260939Y-92684574D01*
X200304780Y-92630172D01*
X200371074Y-92608107D01*
X200438773Y-92625386D01*
X200486384Y-92676523D01*
X200499500Y-92732028D01*
X200499500Y-98667971D01*
X200479815Y-98735010D01*
X200427011Y-98780765D01*
X200357853Y-98790709D01*
X200294297Y-98761684D01*
X200260939Y-98715424D01*
X200192323Y-98549772D01*
X200192323Y-98549771D01*
X200192322Y-98549769D01*
X200192320Y-98549766D01*
X200192318Y-98549762D01*
X200088302Y-98394092D01*
X200088299Y-98394088D01*
X199955911Y-98261700D01*
X199955907Y-98261697D01*
X199800237Y-98157681D01*
X199800228Y-98157676D01*
X199627251Y-98086027D01*
X199627243Y-98086025D01*
X199443620Y-98049500D01*
X199443616Y-98049500D01*
X198556384Y-98049500D01*
X198556379Y-98049500D01*
X198372756Y-98086025D01*
X198372748Y-98086027D01*
X198199771Y-98157676D01*
X198199762Y-98157681D01*
X198044092Y-98261697D01*
X198044088Y-98261700D01*
X197911700Y-98394088D01*
X197911697Y-98394092D01*
X197807681Y-98549762D01*
X197807676Y-98549771D01*
X197736027Y-98722748D01*
X197736025Y-98722756D01*
X197699500Y-98906379D01*
X197699500Y-99093620D01*
X197736025Y-99277243D01*
X197736027Y-99277251D01*
X197807676Y-99450228D01*
X197807681Y-99450237D01*
X197911697Y-99605907D01*
X197911700Y-99605911D01*
X198044088Y-99738299D01*
X198044092Y-99738302D01*
X198199762Y-99842318D01*
X198199768Y-99842321D01*
X198199769Y-99842322D01*
X198372749Y-99913973D01*
X198556379Y-99950499D01*
X198556383Y-99950500D01*
X198556384Y-99950500D01*
X199443617Y-99950500D01*
X199443618Y-99950499D01*
X199627251Y-99913973D01*
X199800231Y-99842322D01*
X199955908Y-99738302D01*
X200088302Y-99605908D01*
X200192322Y-99450231D01*
X200260939Y-99284574D01*
X200304780Y-99230172D01*
X200371074Y-99208107D01*
X200438773Y-99225386D01*
X200486384Y-99276523D01*
X200499500Y-99332028D01*
X200499500Y-122143202D01*
X200479815Y-122210241D01*
X200427011Y-122255996D01*
X200357853Y-122265940D01*
X200294297Y-122236915D01*
X200257569Y-122181520D01*
X200235874Y-122114752D01*
X200235872Y-122114747D01*
X200107295Y-121841508D01*
X200107292Y-121841502D01*
X199945483Y-121586530D01*
X199864686Y-121488864D01*
X198936289Y-122417261D01*
X198839033Y-122283398D01*
X198716602Y-122160967D01*
X198582736Y-122063709D01*
X199513434Y-121133011D01*
X199513433Y-121133009D01*
X199288538Y-120969614D01*
X199288520Y-120969602D01*
X199023890Y-120824121D01*
X199023882Y-120824117D01*
X198743110Y-120712952D01*
X198743107Y-120712951D01*
X198450600Y-120637849D01*
X198151004Y-120600000D01*
X197848995Y-120600000D01*
X197549399Y-120637849D01*
X197256892Y-120712951D01*
X197256889Y-120712952D01*
X196976117Y-120824117D01*
X196976109Y-120824121D01*
X196711476Y-120969604D01*
X196711471Y-120969607D01*
X196486565Y-121133010D01*
X196486564Y-121133011D01*
X197417262Y-122063709D01*
X197283398Y-122160967D01*
X197160967Y-122283398D01*
X197063709Y-122417262D01*
X196135311Y-121488864D01*
X196054520Y-121586525D01*
X196054518Y-121586528D01*
X195892707Y-121841502D01*
X195892704Y-121841508D01*
X195764127Y-122114747D01*
X195764125Y-122114752D01*
X195670805Y-122401959D01*
X195614216Y-122698609D01*
X195614215Y-122698616D01*
X195595255Y-122999994D01*
X195595255Y-123000005D01*
X195614215Y-123301383D01*
X195614216Y-123301390D01*
X195670805Y-123598040D01*
X195764125Y-123885247D01*
X195764127Y-123885252D01*
X195892704Y-124158491D01*
X195892707Y-124158497D01*
X196054516Y-124413469D01*
X196135311Y-124511133D01*
X197063708Y-123582736D01*
X197160967Y-123716602D01*
X197283398Y-123839033D01*
X197417262Y-123936290D01*
X196486564Y-124866987D01*
X196486565Y-124866989D01*
X196711461Y-125030385D01*
X196711479Y-125030397D01*
X196976109Y-125175878D01*
X196976117Y-125175882D01*
X197189101Y-125260208D01*
X197244187Y-125303189D01*
X197267290Y-125369128D01*
X197251077Y-125437090D01*
X197200694Y-125485498D01*
X197143454Y-125499500D01*
X170637961Y-125499500D01*
X170570922Y-125479815D01*
X170525167Y-125427011D01*
X170515223Y-125357853D01*
X170544248Y-125294297D01*
X170565076Y-125275182D01*
X170650390Y-125213197D01*
X170705871Y-125172888D01*
X170832533Y-125032216D01*
X170927179Y-124868284D01*
X170985674Y-124688256D01*
X171005460Y-124500000D01*
X170985674Y-124311744D01*
X170927179Y-124131716D01*
X170832533Y-123967784D01*
X170705871Y-123827112D01*
X170683534Y-123810883D01*
X170552734Y-123715851D01*
X170552729Y-123715848D01*
X170379807Y-123638857D01*
X170379802Y-123638855D01*
X170234001Y-123607865D01*
X170194646Y-123599500D01*
X170005354Y-123599500D01*
X169972897Y-123606398D01*
X169820197Y-123638855D01*
X169820192Y-123638857D01*
X169647270Y-123715848D01*
X169647265Y-123715851D01*
X169494129Y-123827111D01*
X169367466Y-123967785D01*
X169272821Y-124131715D01*
X169272818Y-124131722D01*
X169256903Y-124180705D01*
X169214326Y-124311744D01*
X169194540Y-124500000D01*
X169214326Y-124688256D01*
X169214327Y-124688259D01*
X169272818Y-124868277D01*
X169272821Y-124868284D01*
X169367467Y-125032216D01*
X169494129Y-125172888D01*
X169634924Y-125275182D01*
X169677590Y-125330512D01*
X169683569Y-125400125D01*
X169650963Y-125461920D01*
X169590124Y-125496278D01*
X169562039Y-125499500D01*
X168537961Y-125499500D01*
X168470922Y-125479815D01*
X168425167Y-125427011D01*
X168415223Y-125357853D01*
X168444248Y-125294297D01*
X168465076Y-125275182D01*
X168550390Y-125213197D01*
X168605871Y-125172888D01*
X168732533Y-125032216D01*
X168827179Y-124868284D01*
X168885674Y-124688256D01*
X168905460Y-124500000D01*
X168885674Y-124311744D01*
X168827179Y-124131716D01*
X168732533Y-123967784D01*
X168605871Y-123827112D01*
X168583534Y-123810883D01*
X168452734Y-123715851D01*
X168452729Y-123715848D01*
X168279807Y-123638857D01*
X168279802Y-123638855D01*
X168134001Y-123607865D01*
X168094646Y-123599500D01*
X167905354Y-123599500D01*
X167872897Y-123606398D01*
X167720197Y-123638855D01*
X167720192Y-123638857D01*
X167547270Y-123715848D01*
X167547265Y-123715851D01*
X167394129Y-123827111D01*
X167267466Y-123967785D01*
X167172821Y-124131715D01*
X167172818Y-124131722D01*
X167156903Y-124180705D01*
X167114326Y-124311744D01*
X167094540Y-124500000D01*
X167114326Y-124688256D01*
X167114327Y-124688259D01*
X167172818Y-124868277D01*
X167172821Y-124868284D01*
X167267467Y-125032216D01*
X167394129Y-125172888D01*
X167534924Y-125275182D01*
X167577590Y-125330512D01*
X167583569Y-125400125D01*
X167550963Y-125461920D01*
X167490124Y-125496278D01*
X167462039Y-125499500D01*
X145856546Y-125499500D01*
X145789507Y-125479815D01*
X145743752Y-125427011D01*
X145733808Y-125357853D01*
X145762833Y-125294297D01*
X145810899Y-125260208D01*
X146023882Y-125175882D01*
X146023890Y-125175878D01*
X146288520Y-125030397D01*
X146288530Y-125030390D01*
X146513433Y-124866987D01*
X146513434Y-124866987D01*
X145582737Y-123936290D01*
X145716602Y-123839033D01*
X145839033Y-123716602D01*
X145936290Y-123582737D01*
X146864687Y-124511134D01*
X146945486Y-124413464D01*
X147107292Y-124158497D01*
X147107295Y-124158491D01*
X147235872Y-123885252D01*
X147235874Y-123885247D01*
X147329194Y-123598040D01*
X147385783Y-123301390D01*
X147385784Y-123301383D01*
X147404745Y-123000005D01*
X147404745Y-122999994D01*
X147401600Y-122950000D01*
X147994659Y-122950000D01*
X148013975Y-123146129D01*
X148071188Y-123334733D01*
X148164086Y-123508532D01*
X148164090Y-123508539D01*
X148289116Y-123660883D01*
X148441460Y-123785909D01*
X148441467Y-123785913D01*
X148615266Y-123878811D01*
X148615269Y-123878811D01*
X148615273Y-123878814D01*
X148803868Y-123936024D01*
X149000000Y-123955341D01*
X149196132Y-123936024D01*
X149384727Y-123878814D01*
X149558538Y-123785910D01*
X149710883Y-123660883D01*
X149835910Y-123508538D01*
X149928814Y-123334727D01*
X149986024Y-123146132D01*
X149990568Y-123100000D01*
X193194659Y-123100000D01*
X193213975Y-123296129D01*
X193271188Y-123484733D01*
X193364086Y-123658532D01*
X193364090Y-123658539D01*
X193489116Y-123810883D01*
X193641460Y-123935909D01*
X193641467Y-123935913D01*
X193815266Y-124028811D01*
X193815269Y-124028811D01*
X193815273Y-124028814D01*
X194003868Y-124086024D01*
X194200000Y-124105341D01*
X194396132Y-124086024D01*
X194584727Y-124028814D01*
X194758538Y-123935910D01*
X194910883Y-123810883D01*
X195035910Y-123658538D01*
X195128814Y-123484727D01*
X195186024Y-123296132D01*
X195205341Y-123100000D01*
X195186024Y-122903868D01*
X195128814Y-122715273D01*
X195128811Y-122715269D01*
X195128811Y-122715266D01*
X195035913Y-122541467D01*
X195035909Y-122541460D01*
X194910883Y-122389116D01*
X194758539Y-122264090D01*
X194758532Y-122264086D01*
X194584733Y-122171188D01*
X194584727Y-122171186D01*
X194409078Y-122117903D01*
X194396129Y-122113975D01*
X194200000Y-122094659D01*
X194003870Y-122113975D01*
X193815266Y-122171188D01*
X193641467Y-122264086D01*
X193641460Y-122264090D01*
X193489116Y-122389116D01*
X193364090Y-122541460D01*
X193364086Y-122541467D01*
X193271188Y-122715266D01*
X193213975Y-122903870D01*
X193194659Y-123100000D01*
X149990568Y-123100000D01*
X150005341Y-122950000D01*
X149986024Y-122753868D01*
X149928814Y-122565273D01*
X149928811Y-122565269D01*
X149928811Y-122565266D01*
X149835913Y-122391467D01*
X149835909Y-122391460D01*
X149710883Y-122239116D01*
X149558539Y-122114090D01*
X149558532Y-122114086D01*
X149384733Y-122021188D01*
X149384727Y-122021186D01*
X149196132Y-121963976D01*
X149196129Y-121963975D01*
X149000000Y-121944659D01*
X148803870Y-121963975D01*
X148615266Y-122021188D01*
X148441467Y-122114086D01*
X148441460Y-122114090D01*
X148289116Y-122239116D01*
X148164090Y-122391460D01*
X148164086Y-122391467D01*
X148071188Y-122565266D01*
X148013975Y-122753870D01*
X147994659Y-122950000D01*
X147401600Y-122950000D01*
X147385784Y-122698616D01*
X147385783Y-122698609D01*
X147329194Y-122401959D01*
X147235874Y-122114752D01*
X147235872Y-122114747D01*
X147107295Y-121841508D01*
X147107292Y-121841502D01*
X146945483Y-121586530D01*
X146864686Y-121488864D01*
X145936289Y-122417261D01*
X145839033Y-122283398D01*
X145716602Y-122160967D01*
X145582736Y-122063709D01*
X146513434Y-121133011D01*
X146513433Y-121133009D01*
X146288538Y-120969614D01*
X146288520Y-120969602D01*
X146023890Y-120824121D01*
X146023882Y-120824117D01*
X145743110Y-120712952D01*
X145743107Y-120712951D01*
X145450600Y-120637849D01*
X145151004Y-120600000D01*
X144848995Y-120600000D01*
X144549399Y-120637849D01*
X144256892Y-120712951D01*
X144256889Y-120712952D01*
X143976117Y-120824117D01*
X143976109Y-120824121D01*
X143711476Y-120969604D01*
X143711471Y-120969607D01*
X143486565Y-121133010D01*
X143486564Y-121133011D01*
X144417262Y-122063709D01*
X144283398Y-122160967D01*
X144160967Y-122283398D01*
X144063709Y-122417262D01*
X143135311Y-121488864D01*
X143054520Y-121586525D01*
X143054518Y-121586528D01*
X142892707Y-121841502D01*
X142892704Y-121841508D01*
X142764127Y-122114747D01*
X142764125Y-122114752D01*
X142742431Y-122181520D01*
X142702993Y-122239196D01*
X142638635Y-122266394D01*
X142569788Y-122254479D01*
X142518313Y-122207235D01*
X142500500Y-122143202D01*
X142500500Y-120493386D01*
X157224500Y-120493386D01*
X157224500Y-121506613D01*
X157230913Y-121577192D01*
X157230913Y-121577194D01*
X157230914Y-121577196D01*
X157281522Y-121739606D01*
X157354993Y-121861142D01*
X157369530Y-121885188D01*
X157489811Y-122005469D01*
X157489813Y-122005470D01*
X157489815Y-122005472D01*
X157635394Y-122093478D01*
X157797804Y-122144086D01*
X157868384Y-122150500D01*
X157868387Y-122150500D01*
X158381613Y-122150500D01*
X158381616Y-122150500D01*
X158452196Y-122144086D01*
X158614606Y-122093478D01*
X158758125Y-122006717D01*
X158825676Y-121988882D01*
X158891162Y-122009733D01*
X158948450Y-122048011D01*
X158948457Y-122048015D01*
X158975451Y-122059196D01*
X159112334Y-122115894D01*
X159112336Y-122115894D01*
X159112341Y-122115896D01*
X159286304Y-122150499D01*
X159286307Y-122150500D01*
X159286309Y-122150500D01*
X159463693Y-122150500D01*
X159463694Y-122150499D01*
X159521682Y-122138964D01*
X159637658Y-122115896D01*
X159637661Y-122115894D01*
X159637666Y-122115894D01*
X159801547Y-122048013D01*
X159913828Y-121972989D01*
X159931109Y-121961442D01*
X159997786Y-121940564D01*
X160065166Y-121959048D01*
X160068891Y-121961442D01*
X160198446Y-122048008D01*
X160198453Y-122048013D01*
X160198455Y-122048014D01*
X160198459Y-122048016D01*
X160308214Y-122093477D01*
X160362334Y-122115894D01*
X160362336Y-122115894D01*
X160362341Y-122115896D01*
X160536304Y-122150499D01*
X160536307Y-122150500D01*
X160536309Y-122150500D01*
X160713693Y-122150500D01*
X160713694Y-122150499D01*
X160771682Y-122138964D01*
X160887658Y-122115896D01*
X160887661Y-122115894D01*
X160887666Y-122115894D01*
X161051547Y-122048013D01*
X161051552Y-122048009D01*
X161051555Y-122048008D01*
X161140042Y-121988882D01*
X161181558Y-121961141D01*
X161248234Y-121940263D01*
X161315615Y-121958747D01*
X161319340Y-121961141D01*
X161448683Y-122047566D01*
X161448693Y-122047571D01*
X161612476Y-122115412D01*
X161612483Y-122115415D01*
X161625000Y-122117904D01*
X161625000Y-122117903D01*
X162125000Y-122117903D01*
X162137516Y-122115415D01*
X162137523Y-122115412D01*
X162301306Y-122047571D01*
X162301316Y-122047566D01*
X162372503Y-122000000D01*
X167094540Y-122000000D01*
X167114326Y-122188256D01*
X167114327Y-122188259D01*
X167172818Y-122368277D01*
X167172821Y-122368284D01*
X167267467Y-122532216D01*
X167383553Y-122661142D01*
X167394129Y-122672888D01*
X167547265Y-122784148D01*
X167547270Y-122784151D01*
X167720192Y-122861142D01*
X167720197Y-122861144D01*
X167905354Y-122900500D01*
X167905355Y-122900500D01*
X168094644Y-122900500D01*
X168094646Y-122900500D01*
X168279803Y-122861144D01*
X168452730Y-122784151D01*
X168605871Y-122672888D01*
X168732533Y-122532216D01*
X168827179Y-122368284D01*
X168882069Y-122199351D01*
X168921506Y-122141675D01*
X168985865Y-122114477D01*
X169054711Y-122126392D01*
X169106187Y-122173636D01*
X169117931Y-122199351D01*
X169172818Y-122368277D01*
X169172821Y-122368284D01*
X169267467Y-122532216D01*
X169383553Y-122661142D01*
X169394129Y-122672888D01*
X169547265Y-122784148D01*
X169547270Y-122784151D01*
X169720192Y-122861142D01*
X169720197Y-122861144D01*
X169905354Y-122900500D01*
X169905355Y-122900500D01*
X170094644Y-122900500D01*
X170094646Y-122900500D01*
X170279803Y-122861144D01*
X170452730Y-122784151D01*
X170605871Y-122672888D01*
X170732533Y-122532216D01*
X170827179Y-122368284D01*
X170885674Y-122188256D01*
X170905460Y-122000000D01*
X170885674Y-121811744D01*
X170827179Y-121631716D01*
X170732533Y-121467784D01*
X170605871Y-121327112D01*
X170605870Y-121327111D01*
X170452734Y-121215851D01*
X170452729Y-121215848D01*
X170279807Y-121138857D01*
X170279802Y-121138855D01*
X170134001Y-121107865D01*
X170094646Y-121099500D01*
X169905354Y-121099500D01*
X169872897Y-121106398D01*
X169720197Y-121138855D01*
X169720192Y-121138857D01*
X169547270Y-121215848D01*
X169547265Y-121215851D01*
X169394129Y-121327111D01*
X169267466Y-121467785D01*
X169172821Y-121631715D01*
X169172818Y-121631722D01*
X169117931Y-121800648D01*
X169078493Y-121858324D01*
X169014135Y-121885522D01*
X168945288Y-121873607D01*
X168893813Y-121826363D01*
X168882069Y-121800648D01*
X168827181Y-121631722D01*
X168827180Y-121631721D01*
X168827179Y-121631716D01*
X168732533Y-121467784D01*
X168605871Y-121327112D01*
X168605870Y-121327111D01*
X168452734Y-121215851D01*
X168452729Y-121215848D01*
X168279807Y-121138857D01*
X168279802Y-121138855D01*
X168134001Y-121107865D01*
X168094646Y-121099500D01*
X167905354Y-121099500D01*
X167872897Y-121106398D01*
X167720197Y-121138855D01*
X167720192Y-121138857D01*
X167547270Y-121215848D01*
X167547265Y-121215851D01*
X167394129Y-121327111D01*
X167267466Y-121467785D01*
X167172821Y-121631715D01*
X167172818Y-121631722D01*
X167118142Y-121800000D01*
X167114326Y-121811744D01*
X167094540Y-122000000D01*
X162372503Y-122000000D01*
X162448716Y-121949076D01*
X162448720Y-121949073D01*
X162574073Y-121823720D01*
X162574076Y-121823716D01*
X162672566Y-121676316D01*
X162672571Y-121676307D01*
X162740413Y-121512520D01*
X162740415Y-121512512D01*
X162774999Y-121338646D01*
X162775000Y-121338643D01*
X162775000Y-121250000D01*
X162125000Y-121250000D01*
X162125000Y-122117903D01*
X161625000Y-122117903D01*
X161625000Y-121049728D01*
X161663060Y-121141614D01*
X161733386Y-121211940D01*
X161825272Y-121250000D01*
X161924728Y-121250000D01*
X162016614Y-121211940D01*
X162086940Y-121141614D01*
X162125000Y-121049728D01*
X162125000Y-121000000D01*
X179094540Y-121000000D01*
X179114326Y-121188256D01*
X179114327Y-121188259D01*
X179172818Y-121368277D01*
X179172821Y-121368284D01*
X179267467Y-121532216D01*
X179357063Y-121631722D01*
X179394129Y-121672888D01*
X179547265Y-121784148D01*
X179547270Y-121784151D01*
X179720192Y-121861142D01*
X179720197Y-121861144D01*
X179905354Y-121900500D01*
X179905355Y-121900500D01*
X179995721Y-121900500D01*
X180062760Y-121920185D01*
X180108515Y-121972989D01*
X180113652Y-121986182D01*
X180172818Y-122168277D01*
X180172821Y-122168284D01*
X180267467Y-122332216D01*
X180320817Y-122391467D01*
X180394129Y-122472888D01*
X180547265Y-122584148D01*
X180547270Y-122584151D01*
X180720192Y-122661142D01*
X180720197Y-122661144D01*
X180905354Y-122700500D01*
X180905355Y-122700500D01*
X181094644Y-122700500D01*
X181094646Y-122700500D01*
X181279803Y-122661144D01*
X181452730Y-122584151D01*
X181605871Y-122472888D01*
X181732533Y-122332216D01*
X181827179Y-122168284D01*
X181885674Y-121988256D01*
X181905460Y-121800000D01*
X181885674Y-121611744D01*
X181827179Y-121431716D01*
X181732533Y-121267784D01*
X181605871Y-121127112D01*
X181605870Y-121127111D01*
X181452734Y-121015851D01*
X181452729Y-121015848D01*
X181279807Y-120938857D01*
X181279802Y-120938855D01*
X181134001Y-120907865D01*
X181094646Y-120899500D01*
X181004279Y-120899500D01*
X180937240Y-120879815D01*
X180891485Y-120827011D01*
X180886348Y-120813818D01*
X180827181Y-120631722D01*
X180827180Y-120631721D01*
X180827179Y-120631716D01*
X180732533Y-120467784D01*
X180605871Y-120327112D01*
X180601164Y-120323692D01*
X180452734Y-120215851D01*
X180452729Y-120215848D01*
X180279807Y-120138857D01*
X180279802Y-120138855D01*
X180134001Y-120107865D01*
X180094646Y-120099500D01*
X179905354Y-120099500D01*
X179872897Y-120106398D01*
X179720197Y-120138855D01*
X179720192Y-120138857D01*
X179547270Y-120215848D01*
X179547265Y-120215851D01*
X179394129Y-120327111D01*
X179267466Y-120467785D01*
X179172821Y-120631715D01*
X179172818Y-120631722D01*
X179122021Y-120788060D01*
X179114326Y-120811744D01*
X179094540Y-121000000D01*
X162125000Y-121000000D01*
X162125000Y-120950272D01*
X162086940Y-120858386D01*
X162016614Y-120788060D01*
X161924728Y-120750000D01*
X162125000Y-120750000D01*
X162775000Y-120750000D01*
X162775000Y-120661357D01*
X162774999Y-120661353D01*
X162740415Y-120487487D01*
X162740413Y-120487479D01*
X162672571Y-120323692D01*
X162672566Y-120323683D01*
X162574076Y-120176283D01*
X162574073Y-120176279D01*
X162448720Y-120050926D01*
X162448716Y-120050923D01*
X162301316Y-119952433D01*
X162301307Y-119952428D01*
X162137519Y-119884585D01*
X162125000Y-119882094D01*
X162125000Y-120750000D01*
X161924728Y-120750000D01*
X161825272Y-120750000D01*
X161733386Y-120788060D01*
X161663060Y-120858386D01*
X161625000Y-120950272D01*
X161625000Y-119882095D01*
X161624999Y-119882094D01*
X161612480Y-119884585D01*
X161448692Y-119952428D01*
X161448683Y-119952433D01*
X161319340Y-120038858D01*
X161252662Y-120059736D01*
X161185282Y-120041251D01*
X161181558Y-120038858D01*
X161051552Y-119951990D01*
X161051540Y-119951983D01*
X160887667Y-119884106D01*
X160887658Y-119884103D01*
X160713694Y-119849500D01*
X160713691Y-119849500D01*
X160536309Y-119849500D01*
X160536306Y-119849500D01*
X160362341Y-119884103D01*
X160362332Y-119884106D01*
X160198459Y-119951983D01*
X160198446Y-119951990D01*
X160068891Y-120038557D01*
X160002213Y-120059435D01*
X159934833Y-120040950D01*
X159931109Y-120038557D01*
X159801553Y-119951990D01*
X159801540Y-119951983D01*
X159637667Y-119884106D01*
X159637658Y-119884103D01*
X159463694Y-119849500D01*
X159463691Y-119849500D01*
X159286309Y-119849500D01*
X159286306Y-119849500D01*
X159112341Y-119884103D01*
X159112332Y-119884106D01*
X158948460Y-119951983D01*
X158948449Y-119951989D01*
X158891162Y-119990267D01*
X158824484Y-120011144D01*
X158758122Y-119993281D01*
X158614606Y-119906522D01*
X158536212Y-119882094D01*
X158452196Y-119855914D01*
X158452194Y-119855913D01*
X158452192Y-119855913D01*
X158402778Y-119851423D01*
X158381616Y-119849500D01*
X157868384Y-119849500D01*
X157849145Y-119851248D01*
X157797807Y-119855913D01*
X157635393Y-119906522D01*
X157489811Y-119994530D01*
X157369530Y-120114811D01*
X157281522Y-120260393D01*
X157230913Y-120422807D01*
X157224500Y-120493386D01*
X142500500Y-120493386D01*
X142500500Y-117900000D01*
X167794540Y-117900000D01*
X167814326Y-118088256D01*
X167814327Y-118088259D01*
X167872818Y-118268277D01*
X167872821Y-118268284D01*
X167941939Y-118388000D01*
X167958412Y-118455900D01*
X167941939Y-118512000D01*
X167872821Y-118631715D01*
X167872818Y-118631722D01*
X167814327Y-118811740D01*
X167814326Y-118811744D01*
X167794540Y-119000000D01*
X167814326Y-119188256D01*
X167814327Y-119188259D01*
X167872818Y-119368277D01*
X167872821Y-119368284D01*
X167967467Y-119532216D01*
X168094129Y-119672888D01*
X168247265Y-119784148D01*
X168247270Y-119784151D01*
X168420192Y-119861142D01*
X168420197Y-119861144D01*
X168605354Y-119900500D01*
X168605355Y-119900500D01*
X168794644Y-119900500D01*
X168794646Y-119900500D01*
X168979803Y-119861144D01*
X169152730Y-119784151D01*
X169305871Y-119672888D01*
X169432533Y-119532216D01*
X169527179Y-119368284D01*
X169585674Y-119188256D01*
X169605460Y-119000000D01*
X169585674Y-118811744D01*
X169527179Y-118631716D01*
X169458060Y-118511999D01*
X169441588Y-118444100D01*
X169458061Y-118388000D01*
X169459273Y-118385901D01*
X169527179Y-118268284D01*
X169585674Y-118088256D01*
X169605460Y-117900000D01*
X169594950Y-117800000D01*
X171294540Y-117800000D01*
X171314326Y-117988256D01*
X171314327Y-117988259D01*
X171372818Y-118168277D01*
X171372821Y-118168284D01*
X171467467Y-118332216D01*
X171478500Y-118344469D01*
X171515805Y-118385901D01*
X171546035Y-118448893D01*
X171537410Y-118518228D01*
X171531043Y-118530872D01*
X171472820Y-118631718D01*
X171472818Y-118631722D01*
X171414327Y-118811740D01*
X171414326Y-118811744D01*
X171394540Y-119000000D01*
X171414326Y-119188256D01*
X171414327Y-119188259D01*
X171472818Y-119368277D01*
X171472821Y-119368284D01*
X171567467Y-119532216D01*
X171694129Y-119672888D01*
X171847265Y-119784148D01*
X171847270Y-119784151D01*
X172020192Y-119861142D01*
X172020197Y-119861144D01*
X172205354Y-119900500D01*
X172205355Y-119900500D01*
X172394644Y-119900500D01*
X172394646Y-119900500D01*
X172579803Y-119861144D01*
X172752730Y-119784151D01*
X172905871Y-119672888D01*
X173032533Y-119532216D01*
X173127179Y-119368284D01*
X173185674Y-119188256D01*
X173205460Y-119000000D01*
X173185674Y-118811744D01*
X173127179Y-118631716D01*
X173032533Y-118467784D01*
X172984194Y-118414098D01*
X172953964Y-118351106D01*
X172962589Y-118281771D01*
X172968950Y-118269138D01*
X173027179Y-118168284D01*
X173085674Y-117988256D01*
X173105460Y-117800000D01*
X173085674Y-117611744D01*
X173027179Y-117431716D01*
X172932533Y-117267784D01*
X172805871Y-117127112D01*
X172790369Y-117115849D01*
X172652734Y-117015851D01*
X172652729Y-117015848D01*
X172479807Y-116938857D01*
X172479802Y-116938855D01*
X172334001Y-116907865D01*
X172294646Y-116899500D01*
X172105354Y-116899500D01*
X172072897Y-116906398D01*
X171920197Y-116938855D01*
X171920192Y-116938857D01*
X171747270Y-117015848D01*
X171747265Y-117015851D01*
X171594129Y-117127111D01*
X171467466Y-117267785D01*
X171372821Y-117431715D01*
X171372818Y-117431722D01*
X171318136Y-117600018D01*
X171314326Y-117611744D01*
X171294540Y-117800000D01*
X169594950Y-117800000D01*
X169585674Y-117711744D01*
X169527179Y-117531716D01*
X169432533Y-117367784D01*
X169305871Y-117227112D01*
X169305870Y-117227111D01*
X169152734Y-117115851D01*
X169152729Y-117115848D01*
X168979807Y-117038857D01*
X168979802Y-117038855D01*
X168834001Y-117007865D01*
X168794646Y-116999500D01*
X168605354Y-116999500D01*
X168572897Y-117006398D01*
X168420197Y-117038855D01*
X168420192Y-117038857D01*
X168247270Y-117115848D01*
X168247265Y-117115851D01*
X168094129Y-117227111D01*
X167967466Y-117367785D01*
X167872821Y-117531715D01*
X167872818Y-117531722D01*
X167817233Y-117702796D01*
X167814326Y-117711744D01*
X167794540Y-117900000D01*
X142500500Y-117900000D01*
X142500500Y-116199983D01*
X186402000Y-116199983D01*
X186402000Y-117600001D01*
X186402001Y-117600018D01*
X186412500Y-117702796D01*
X186412501Y-117702799D01*
X186444711Y-117800000D01*
X186467686Y-117869334D01*
X186559788Y-118018656D01*
X186683844Y-118142712D01*
X186833166Y-118234814D01*
X186999703Y-118289999D01*
X187102491Y-118300500D01*
X190002508Y-118300499D01*
X190105297Y-118289999D01*
X190271834Y-118234814D01*
X190421156Y-118142712D01*
X190545212Y-118018656D01*
X190637314Y-117869334D01*
X190692499Y-117702797D01*
X190703000Y-117600009D01*
X190702999Y-116199992D01*
X190702998Y-116199983D01*
X194602000Y-116199983D01*
X194602000Y-117600001D01*
X194602001Y-117600018D01*
X194612500Y-117702796D01*
X194612501Y-117702799D01*
X194644711Y-117800000D01*
X194667686Y-117869334D01*
X194759788Y-118018656D01*
X194883844Y-118142712D01*
X195033166Y-118234814D01*
X195199703Y-118289999D01*
X195302491Y-118300500D01*
X198202508Y-118300499D01*
X198305297Y-118289999D01*
X198471834Y-118234814D01*
X198621156Y-118142712D01*
X198745212Y-118018656D01*
X198837314Y-117869334D01*
X198892499Y-117702797D01*
X198903000Y-117600009D01*
X198902999Y-116199992D01*
X198892499Y-116097203D01*
X198837314Y-115930666D01*
X198745212Y-115781344D01*
X198621156Y-115657288D01*
X198471834Y-115565186D01*
X198305297Y-115510001D01*
X198305295Y-115510000D01*
X198202510Y-115499500D01*
X195302498Y-115499500D01*
X195302481Y-115499501D01*
X195199703Y-115510000D01*
X195199700Y-115510001D01*
X195033168Y-115565185D01*
X195033163Y-115565187D01*
X194883842Y-115657289D01*
X194759789Y-115781342D01*
X194667687Y-115930663D01*
X194667686Y-115930666D01*
X194612501Y-116097203D01*
X194612501Y-116097204D01*
X194612500Y-116097204D01*
X194602000Y-116199983D01*
X190702998Y-116199983D01*
X190692499Y-116097203D01*
X190637314Y-115930666D01*
X190545212Y-115781344D01*
X190421156Y-115657288D01*
X190271834Y-115565186D01*
X190105297Y-115510001D01*
X190105295Y-115510000D01*
X190002510Y-115499500D01*
X187102498Y-115499500D01*
X187102481Y-115499501D01*
X186999703Y-115510000D01*
X186999700Y-115510001D01*
X186833168Y-115565185D01*
X186833163Y-115565187D01*
X186683842Y-115657289D01*
X186559789Y-115781342D01*
X186467687Y-115930663D01*
X186467686Y-115930666D01*
X186412501Y-116097203D01*
X186412501Y-116097204D01*
X186412500Y-116097204D01*
X186402000Y-116199983D01*
X142500500Y-116199983D01*
X142500500Y-113150000D01*
X186424645Y-113150000D01*
X188061752Y-113150000D01*
X188039982Y-113187708D01*
X188002500Y-113327591D01*
X188002500Y-113472409D01*
X188039982Y-113612292D01*
X188061752Y-113650000D01*
X186424645Y-113650000D01*
X186436973Y-113727835D01*
X186436973Y-113727838D01*
X186505067Y-113937410D01*
X186605113Y-114133760D01*
X186734642Y-114312041D01*
X186890458Y-114467857D01*
X187068739Y-114597386D01*
X187265089Y-114697432D01*
X187474664Y-114765526D01*
X187692319Y-114800000D01*
X188302500Y-114800000D01*
X188302500Y-113890747D01*
X188340208Y-113912518D01*
X188480091Y-113950000D01*
X188624909Y-113950000D01*
X188764792Y-113912518D01*
X188802500Y-113890747D01*
X188802500Y-114800000D01*
X189412681Y-114800000D01*
X189630335Y-114765526D01*
X189839910Y-114697432D01*
X190036260Y-114597386D01*
X190214541Y-114467857D01*
X190370357Y-114312041D01*
X190499886Y-114133760D01*
X190599932Y-113937410D01*
X190668026Y-113727838D01*
X190668026Y-113727835D01*
X190680355Y-113650000D01*
X189043248Y-113650000D01*
X189065018Y-113612292D01*
X189102500Y-113472409D01*
X189102500Y-113327591D01*
X189065018Y-113187708D01*
X189043248Y-113150000D01*
X190680355Y-113150000D01*
X194624645Y-113150000D01*
X196261752Y-113150000D01*
X196239982Y-113187708D01*
X196202500Y-113327591D01*
X196202500Y-113472409D01*
X196239982Y-113612292D01*
X196261752Y-113650000D01*
X194624645Y-113650000D01*
X194636973Y-113727835D01*
X194636973Y-113727838D01*
X194705067Y-113937410D01*
X194805113Y-114133760D01*
X194934642Y-114312041D01*
X195090458Y-114467857D01*
X195268739Y-114597386D01*
X195465089Y-114697432D01*
X195674664Y-114765526D01*
X195892319Y-114800000D01*
X196502500Y-114800000D01*
X196502500Y-113890747D01*
X196540208Y-113912518D01*
X196680091Y-113950000D01*
X196824909Y-113950000D01*
X196964792Y-113912518D01*
X197002500Y-113890747D01*
X197002500Y-114800000D01*
X197612681Y-114800000D01*
X197830335Y-114765526D01*
X198039910Y-114697432D01*
X198236260Y-114597386D01*
X198414541Y-114467857D01*
X198570357Y-114312041D01*
X198699886Y-114133760D01*
X198799932Y-113937410D01*
X198868026Y-113727838D01*
X198868026Y-113727835D01*
X198880355Y-113650000D01*
X197243248Y-113650000D01*
X197265018Y-113612292D01*
X197302500Y-113472409D01*
X197302500Y-113327591D01*
X197265018Y-113187708D01*
X197243248Y-113150000D01*
X198880355Y-113150000D01*
X198868026Y-113072164D01*
X198868026Y-113072161D01*
X198799932Y-112862589D01*
X198699886Y-112666239D01*
X198570357Y-112487958D01*
X198414541Y-112332142D01*
X198236260Y-112202613D01*
X198039910Y-112102567D01*
X197830335Y-112034473D01*
X197612681Y-112000000D01*
X197002500Y-112000000D01*
X197002500Y-112909252D01*
X196964792Y-112887482D01*
X196824909Y-112850000D01*
X196680091Y-112850000D01*
X196540208Y-112887482D01*
X196502500Y-112909252D01*
X196502500Y-112000000D01*
X195892319Y-112000000D01*
X195674664Y-112034473D01*
X195465089Y-112102567D01*
X195268739Y-112202613D01*
X195090458Y-112332142D01*
X194934642Y-112487958D01*
X194805113Y-112666239D01*
X194705067Y-112862589D01*
X194636973Y-113072161D01*
X194636973Y-113072164D01*
X194624645Y-113150000D01*
X190680355Y-113150000D01*
X190668026Y-113072164D01*
X190668026Y-113072161D01*
X190599932Y-112862589D01*
X190499886Y-112666239D01*
X190370357Y-112487958D01*
X190214541Y-112332142D01*
X190036260Y-112202613D01*
X189839910Y-112102567D01*
X189630335Y-112034473D01*
X189412681Y-112000000D01*
X188802500Y-112000000D01*
X188802500Y-112909252D01*
X188764792Y-112887482D01*
X188624909Y-112850000D01*
X188480091Y-112850000D01*
X188340208Y-112887482D01*
X188302500Y-112909252D01*
X188302500Y-112000000D01*
X187692319Y-112000000D01*
X187474664Y-112034473D01*
X187265089Y-112102567D01*
X187068739Y-112202613D01*
X186890458Y-112332142D01*
X186734642Y-112487958D01*
X186605113Y-112666239D01*
X186505067Y-112862589D01*
X186436973Y-113072161D01*
X186436973Y-113072164D01*
X186424645Y-113150000D01*
X142500500Y-113150000D01*
X142500500Y-108800000D01*
X157094540Y-108800000D01*
X157114326Y-108988256D01*
X157114327Y-108988259D01*
X157172818Y-109168277D01*
X157172821Y-109168284D01*
X157267467Y-109332216D01*
X157394129Y-109472888D01*
X157547265Y-109584148D01*
X157547270Y-109584151D01*
X157720192Y-109661142D01*
X157720197Y-109661144D01*
X157905354Y-109700500D01*
X157905355Y-109700500D01*
X158094644Y-109700500D01*
X158094646Y-109700500D01*
X158279803Y-109661144D01*
X158452730Y-109584151D01*
X158605871Y-109472888D01*
X158732533Y-109332216D01*
X158827179Y-109168284D01*
X158885674Y-108988256D01*
X158905460Y-108800000D01*
X158885674Y-108611744D01*
X158827179Y-108431716D01*
X158732533Y-108267784D01*
X158605871Y-108127112D01*
X158605870Y-108127111D01*
X158452734Y-108015851D01*
X158452729Y-108015848D01*
X158279807Y-107938857D01*
X158279802Y-107938855D01*
X158134001Y-107907865D01*
X158094646Y-107899500D01*
X157905354Y-107899500D01*
X157872897Y-107906398D01*
X157720197Y-107938855D01*
X157720192Y-107938857D01*
X157547270Y-108015848D01*
X157547265Y-108015851D01*
X157394129Y-108127111D01*
X157267466Y-108267785D01*
X157172821Y-108431715D01*
X157172818Y-108431722D01*
X157130767Y-108561144D01*
X157114326Y-108611744D01*
X157094540Y-108800000D01*
X142500500Y-108800000D01*
X142500500Y-107700000D01*
X144294540Y-107700000D01*
X144314326Y-107888256D01*
X144314327Y-107888259D01*
X144372818Y-108068277D01*
X144372821Y-108068284D01*
X144467467Y-108232216D01*
X144499493Y-108267784D01*
X144594129Y-108372888D01*
X144747265Y-108484148D01*
X144747270Y-108484151D01*
X144920192Y-108561142D01*
X144920197Y-108561144D01*
X145105354Y-108600500D01*
X145105355Y-108600500D01*
X145294644Y-108600500D01*
X145294646Y-108600500D01*
X145479803Y-108561144D01*
X145652730Y-108484151D01*
X145805871Y-108372888D01*
X145932533Y-108232216D01*
X146027179Y-108068284D01*
X146085674Y-107888256D01*
X146105460Y-107700000D01*
X146085674Y-107511744D01*
X146031112Y-107343823D01*
X146027181Y-107331722D01*
X146027180Y-107331721D01*
X146027179Y-107331716D01*
X145932533Y-107167784D01*
X145805871Y-107027112D01*
X145805870Y-107027111D01*
X145652734Y-106915851D01*
X145652729Y-106915848D01*
X145479807Y-106838857D01*
X145479802Y-106838855D01*
X145334001Y-106807865D01*
X145296998Y-106800000D01*
X164694540Y-106800000D01*
X164714326Y-106988256D01*
X164714327Y-106988259D01*
X164772818Y-107168277D01*
X164772821Y-107168284D01*
X164867467Y-107332216D01*
X164994129Y-107472888D01*
X165147265Y-107584148D01*
X165147270Y-107584151D01*
X165320192Y-107661142D01*
X165320197Y-107661144D01*
X165505354Y-107700500D01*
X165505355Y-107700500D01*
X165694644Y-107700500D01*
X165694646Y-107700500D01*
X165879803Y-107661144D01*
X166052730Y-107584151D01*
X166205871Y-107472888D01*
X166332533Y-107332216D01*
X166427179Y-107168284D01*
X166485674Y-106988256D01*
X166505460Y-106800000D01*
X166485674Y-106611744D01*
X166431112Y-106443823D01*
X166427181Y-106431722D01*
X166427180Y-106431721D01*
X166427179Y-106431716D01*
X166332533Y-106267784D01*
X166205871Y-106127112D01*
X166205870Y-106127111D01*
X166052734Y-106015851D01*
X166052729Y-106015848D01*
X165879807Y-105938857D01*
X165879802Y-105938855D01*
X165734001Y-105907865D01*
X165694646Y-105899500D01*
X165505354Y-105899500D01*
X165472897Y-105906398D01*
X165320197Y-105938855D01*
X165320192Y-105938857D01*
X165147270Y-106015848D01*
X165147265Y-106015851D01*
X164994129Y-106127111D01*
X164867466Y-106267785D01*
X164772821Y-106431715D01*
X164772818Y-106431722D01*
X164726951Y-106572888D01*
X164714326Y-106611744D01*
X164694540Y-106800000D01*
X145296998Y-106800000D01*
X145294646Y-106799500D01*
X145105354Y-106799500D01*
X145072897Y-106806398D01*
X144920197Y-106838855D01*
X144920192Y-106838857D01*
X144747270Y-106915848D01*
X144747265Y-106915851D01*
X144594129Y-107027111D01*
X144467466Y-107167785D01*
X144372821Y-107331715D01*
X144372818Y-107331722D01*
X144326951Y-107472888D01*
X144314326Y-107511744D01*
X144294540Y-107700000D01*
X142500500Y-107700000D01*
X142500500Y-105900000D01*
X142994540Y-105900000D01*
X143014326Y-106088256D01*
X143014327Y-106088259D01*
X143072818Y-106268277D01*
X143072821Y-106268284D01*
X143167467Y-106432216D01*
X143294129Y-106572888D01*
X143447265Y-106684148D01*
X143447270Y-106684151D01*
X143620192Y-106761142D01*
X143620197Y-106761144D01*
X143805354Y-106800500D01*
X143805355Y-106800500D01*
X143994644Y-106800500D01*
X143994646Y-106800500D01*
X144179803Y-106761144D01*
X144352730Y-106684151D01*
X144505871Y-106572888D01*
X144632533Y-106432216D01*
X144727179Y-106268284D01*
X144785674Y-106088256D01*
X144805460Y-105900000D01*
X144785674Y-105711744D01*
X144727179Y-105531716D01*
X144632533Y-105367784D01*
X144505871Y-105227112D01*
X144505870Y-105227111D01*
X144352734Y-105115851D01*
X144352729Y-105115848D01*
X144179807Y-105038857D01*
X144179802Y-105038855D01*
X144034001Y-105007865D01*
X143994646Y-104999500D01*
X143805354Y-104999500D01*
X143772897Y-105006398D01*
X143620197Y-105038855D01*
X143620192Y-105038857D01*
X143447270Y-105115848D01*
X143447265Y-105115851D01*
X143294129Y-105227111D01*
X143167466Y-105367785D01*
X143072821Y-105531715D01*
X143072818Y-105531722D01*
X143014327Y-105711740D01*
X143014326Y-105711744D01*
X142994540Y-105900000D01*
X142500500Y-105900000D01*
X142500500Y-96100000D01*
X150294540Y-96100000D01*
X150314326Y-96288256D01*
X150314327Y-96288259D01*
X150372818Y-96468277D01*
X150372821Y-96468284D01*
X150467467Y-96632216D01*
X150551720Y-96725788D01*
X150594129Y-96772888D01*
X150747265Y-96884148D01*
X150747270Y-96884151D01*
X150920192Y-96961142D01*
X150920197Y-96961144D01*
X151105354Y-97000500D01*
X151105355Y-97000500D01*
X151294644Y-97000500D01*
X151294646Y-97000500D01*
X151479803Y-96961144D01*
X151652730Y-96884151D01*
X151805871Y-96772888D01*
X151932533Y-96632216D01*
X152027179Y-96468284D01*
X152085674Y-96288256D01*
X152105460Y-96100000D01*
X152094949Y-95999996D01*
X161194435Y-95999996D01*
X161194435Y-96000003D01*
X161214630Y-96179249D01*
X161214631Y-96179254D01*
X161274211Y-96349523D01*
X161348830Y-96468277D01*
X161370184Y-96502262D01*
X161497738Y-96629816D01*
X161650478Y-96725789D01*
X161785079Y-96772888D01*
X161820745Y-96785368D01*
X161820750Y-96785369D01*
X161999996Y-96805565D01*
X162000000Y-96805565D01*
X162000004Y-96805565D01*
X162179249Y-96785369D01*
X162179252Y-96785368D01*
X162179255Y-96785368D01*
X162349522Y-96725789D01*
X162502262Y-96629816D01*
X162629816Y-96502262D01*
X162725789Y-96349522D01*
X162785368Y-96179255D01*
X162805565Y-96000000D01*
X162792512Y-95884151D01*
X162785369Y-95820750D01*
X162785368Y-95820745D01*
X162768622Y-95772888D01*
X162725789Y-95650478D01*
X162629816Y-95497738D01*
X162502262Y-95370184D01*
X162415792Y-95315851D01*
X162349523Y-95274211D01*
X162179254Y-95214631D01*
X162179249Y-95214630D01*
X162000004Y-95194435D01*
X161999996Y-95194435D01*
X161820750Y-95214630D01*
X161820745Y-95214631D01*
X161650476Y-95274211D01*
X161497737Y-95370184D01*
X161370184Y-95497737D01*
X161274211Y-95650476D01*
X161214631Y-95820745D01*
X161214630Y-95820750D01*
X161194435Y-95999996D01*
X152094949Y-95999996D01*
X152085674Y-95911744D01*
X152027179Y-95731716D01*
X151932533Y-95567784D01*
X151805871Y-95427112D01*
X151805870Y-95427111D01*
X151652734Y-95315851D01*
X151652729Y-95315848D01*
X151479807Y-95238857D01*
X151479802Y-95238855D01*
X151334001Y-95207865D01*
X151294646Y-95199500D01*
X151105354Y-95199500D01*
X151072897Y-95206398D01*
X150920197Y-95238855D01*
X150920192Y-95238857D01*
X150747270Y-95315848D01*
X150747265Y-95315851D01*
X150594129Y-95427111D01*
X150467466Y-95567785D01*
X150372821Y-95731715D01*
X150372818Y-95731722D01*
X150314327Y-95911740D01*
X150314326Y-95911744D01*
X150294540Y-96100000D01*
X142500500Y-96100000D01*
X142500500Y-95100000D01*
X165894540Y-95100000D01*
X165914326Y-95288256D01*
X165914327Y-95288259D01*
X165972818Y-95468277D01*
X165972821Y-95468284D01*
X166067467Y-95632216D01*
X166157063Y-95731722D01*
X166194129Y-95772888D01*
X166347265Y-95884148D01*
X166347270Y-95884151D01*
X166520192Y-95961142D01*
X166520197Y-95961144D01*
X166705354Y-96000500D01*
X166705355Y-96000500D01*
X166894644Y-96000500D01*
X166894646Y-96000500D01*
X167079803Y-95961144D01*
X167252730Y-95884151D01*
X167405871Y-95772888D01*
X167532533Y-95632216D01*
X167627179Y-95468284D01*
X167685674Y-95288256D01*
X167705460Y-95100000D01*
X167685674Y-94911744D01*
X167627179Y-94731716D01*
X167532533Y-94567784D01*
X167405871Y-94427112D01*
X167405870Y-94427111D01*
X167252734Y-94315851D01*
X167252729Y-94315848D01*
X167079807Y-94238857D01*
X167079802Y-94238855D01*
X166934001Y-94207865D01*
X166894646Y-94199500D01*
X166705354Y-94199500D01*
X166672897Y-94206398D01*
X166520197Y-94238855D01*
X166520192Y-94238857D01*
X166347270Y-94315848D01*
X166347265Y-94315851D01*
X166194129Y-94427111D01*
X166067466Y-94567785D01*
X165972821Y-94731715D01*
X165972818Y-94731722D01*
X165914327Y-94911740D01*
X165914326Y-94911744D01*
X165894540Y-95100000D01*
X142500500Y-95100000D01*
X142500500Y-91818995D01*
X144539499Y-91818995D01*
X144566418Y-91954322D01*
X144566421Y-91954332D01*
X144619221Y-92081804D01*
X144619228Y-92081817D01*
X144695885Y-92196541D01*
X144695888Y-92196545D01*
X144793454Y-92294111D01*
X144793458Y-92294114D01*
X144908182Y-92370771D01*
X144908195Y-92370778D01*
X145035667Y-92423578D01*
X145035672Y-92423580D01*
X145035676Y-92423580D01*
X145035677Y-92423581D01*
X145171004Y-92450500D01*
X145171007Y-92450500D01*
X145308995Y-92450500D01*
X145400922Y-92432214D01*
X145444328Y-92423580D01*
X145571811Y-92370775D01*
X145686542Y-92294114D01*
X145784114Y-92196542D01*
X145860775Y-92081811D01*
X145913580Y-91954328D01*
X145924387Y-91900000D01*
X153694540Y-91900000D01*
X153714326Y-92088256D01*
X153714327Y-92088259D01*
X153772818Y-92268277D01*
X153772821Y-92268284D01*
X153867467Y-92432216D01*
X153922752Y-92493616D01*
X153994129Y-92572888D01*
X154147265Y-92684148D01*
X154147270Y-92684151D01*
X154320192Y-92761142D01*
X154320197Y-92761144D01*
X154505354Y-92800500D01*
X154505355Y-92800500D01*
X154694644Y-92800500D01*
X154694646Y-92800500D01*
X154879803Y-92761144D01*
X155052730Y-92684151D01*
X155205871Y-92572888D01*
X155332533Y-92432216D01*
X155427179Y-92268284D01*
X155480453Y-92104322D01*
X155519889Y-92046650D01*
X155584248Y-92019451D01*
X155648818Y-92029363D01*
X155720197Y-92061144D01*
X155905354Y-92100500D01*
X155905355Y-92100500D01*
X156094644Y-92100500D01*
X156094646Y-92100500D01*
X156279803Y-92061144D01*
X156452730Y-91984151D01*
X156605871Y-91872888D01*
X156732533Y-91732216D01*
X156827179Y-91568284D01*
X156885674Y-91388256D01*
X156905460Y-91200000D01*
X156886534Y-91019927D01*
X156890179Y-90999996D01*
X164194435Y-90999996D01*
X164194435Y-91000003D01*
X164214630Y-91179249D01*
X164214631Y-91179254D01*
X164274211Y-91349523D01*
X164285686Y-91367785D01*
X164370184Y-91502262D01*
X164497738Y-91629816D01*
X164548478Y-91661698D01*
X164628125Y-91711744D01*
X164650478Y-91725789D01*
X164820745Y-91785368D01*
X164820750Y-91785369D01*
X164999996Y-91805565D01*
X165000000Y-91805565D01*
X165000004Y-91805565D01*
X165179249Y-91785369D01*
X165179252Y-91785368D01*
X165179255Y-91785368D01*
X165349522Y-91725789D01*
X165502262Y-91629816D01*
X165629816Y-91502262D01*
X165725789Y-91349522D01*
X165785368Y-91179255D01*
X165791005Y-91129225D01*
X165805565Y-91000003D01*
X165805565Y-90999996D01*
X165785369Y-90820750D01*
X165785368Y-90820745D01*
X165772562Y-90784148D01*
X165725789Y-90650478D01*
X165629816Y-90497738D01*
X165502262Y-90370184D01*
X165499227Y-90368277D01*
X165349523Y-90274211D01*
X165179254Y-90214631D01*
X165179249Y-90214630D01*
X165000004Y-90194435D01*
X164999996Y-90194435D01*
X164820750Y-90214630D01*
X164820745Y-90214631D01*
X164650476Y-90274211D01*
X164497737Y-90370184D01*
X164370184Y-90497737D01*
X164274211Y-90650476D01*
X164214631Y-90820745D01*
X164214630Y-90820750D01*
X164194435Y-90999996D01*
X156890179Y-90999996D01*
X156899102Y-90951203D01*
X156946834Y-90900179D01*
X157014574Y-90883061D01*
X157035634Y-90885681D01*
X157055655Y-90889936D01*
X157105354Y-90900500D01*
X157105355Y-90900500D01*
X157294644Y-90900500D01*
X157294646Y-90900500D01*
X157479803Y-90861144D01*
X157652730Y-90784151D01*
X157805871Y-90672888D01*
X157932533Y-90532216D01*
X158027179Y-90368284D01*
X158085674Y-90188256D01*
X158105460Y-90000000D01*
X161894540Y-90000000D01*
X161914326Y-90188256D01*
X161914327Y-90188259D01*
X161972818Y-90368277D01*
X161972821Y-90368284D01*
X162067467Y-90532216D01*
X162173949Y-90650476D01*
X162194129Y-90672888D01*
X162347265Y-90784148D01*
X162347270Y-90784151D01*
X162520192Y-90861142D01*
X162520197Y-90861144D01*
X162705354Y-90900500D01*
X162705355Y-90900500D01*
X162894644Y-90900500D01*
X162894646Y-90900500D01*
X163079803Y-90861144D01*
X163252730Y-90784151D01*
X163405871Y-90672888D01*
X163532533Y-90532216D01*
X163627179Y-90368284D01*
X163685674Y-90188256D01*
X163705460Y-90000000D01*
X163685674Y-89811744D01*
X163627179Y-89631716D01*
X163532533Y-89467784D01*
X163405871Y-89327112D01*
X163405870Y-89327111D01*
X163252734Y-89215851D01*
X163252729Y-89215848D01*
X163079807Y-89138857D01*
X163079802Y-89138855D01*
X162934001Y-89107865D01*
X162894646Y-89099500D01*
X162705354Y-89099500D01*
X162672897Y-89106398D01*
X162520197Y-89138855D01*
X162520192Y-89138857D01*
X162347270Y-89215848D01*
X162347265Y-89215851D01*
X162194129Y-89327111D01*
X162067466Y-89467785D01*
X161972821Y-89631715D01*
X161972818Y-89631722D01*
X161914327Y-89811740D01*
X161914326Y-89811744D01*
X161894540Y-90000000D01*
X158105460Y-90000000D01*
X158085674Y-89811744D01*
X158027179Y-89631716D01*
X157932533Y-89467784D01*
X157805871Y-89327112D01*
X157805870Y-89327111D01*
X157652734Y-89215851D01*
X157652729Y-89215848D01*
X157479807Y-89138857D01*
X157479802Y-89138855D01*
X157334001Y-89107865D01*
X157294646Y-89099500D01*
X157105354Y-89099500D01*
X157072897Y-89106398D01*
X156920197Y-89138855D01*
X156920192Y-89138857D01*
X156747270Y-89215848D01*
X156747265Y-89215851D01*
X156594129Y-89327111D01*
X156467466Y-89467785D01*
X156372821Y-89631715D01*
X156372818Y-89631722D01*
X156314327Y-89811740D01*
X156314326Y-89811744D01*
X156294540Y-90000000D01*
X156313465Y-90180069D01*
X156300896Y-90248796D01*
X156253164Y-90299820D01*
X156185424Y-90316938D01*
X156164366Y-90314319D01*
X156141203Y-90309395D01*
X156094646Y-90299500D01*
X155905354Y-90299500D01*
X155903849Y-90299820D01*
X155720197Y-90338855D01*
X155720192Y-90338857D01*
X155547270Y-90415848D01*
X155547265Y-90415851D01*
X155394129Y-90527111D01*
X155267466Y-90667785D01*
X155172821Y-90831715D01*
X155172818Y-90831722D01*
X155119547Y-90995674D01*
X155080109Y-91053350D01*
X155015751Y-91080548D01*
X154951180Y-91070635D01*
X154879807Y-91038857D01*
X154879802Y-91038855D01*
X154697012Y-91000003D01*
X154694646Y-90999500D01*
X154505354Y-90999500D01*
X154502988Y-91000003D01*
X154320197Y-91038855D01*
X154320192Y-91038857D01*
X154147270Y-91115848D01*
X154147265Y-91115851D01*
X153994129Y-91227111D01*
X153867466Y-91367785D01*
X153772821Y-91531715D01*
X153772818Y-91531722D01*
X153740946Y-91629816D01*
X153714326Y-91711744D01*
X153694540Y-91900000D01*
X145924387Y-91900000D01*
X145940500Y-91818993D01*
X145940500Y-91681007D01*
X145940500Y-91681004D01*
X145913581Y-91545677D01*
X145913580Y-91545676D01*
X145913580Y-91545672D01*
X145895599Y-91502262D01*
X145860778Y-91418195D01*
X145860771Y-91418182D01*
X145784114Y-91303458D01*
X145784111Y-91303454D01*
X145686545Y-91205888D01*
X145686541Y-91205885D01*
X145571817Y-91129228D01*
X145571804Y-91129221D01*
X145444332Y-91076421D01*
X145444322Y-91076418D01*
X145308995Y-91049500D01*
X145308993Y-91049500D01*
X145171007Y-91049500D01*
X145171005Y-91049500D01*
X145035677Y-91076418D01*
X145035667Y-91076421D01*
X144908195Y-91129221D01*
X144908182Y-91129228D01*
X144793458Y-91205885D01*
X144793454Y-91205888D01*
X144695888Y-91303454D01*
X144695885Y-91303458D01*
X144619228Y-91418182D01*
X144619221Y-91418195D01*
X144566421Y-91545667D01*
X144566418Y-91545677D01*
X144539500Y-91681004D01*
X144539500Y-91681007D01*
X144539500Y-91818993D01*
X144539500Y-91818995D01*
X144539499Y-91818995D01*
X142500500Y-91818995D01*
X142500500Y-88818995D01*
X144539499Y-88818995D01*
X144566418Y-88954322D01*
X144566421Y-88954332D01*
X144619221Y-89081804D01*
X144619228Y-89081817D01*
X144695885Y-89196541D01*
X144695888Y-89196545D01*
X144793454Y-89294111D01*
X144793458Y-89294114D01*
X144908182Y-89370771D01*
X144908195Y-89370778D01*
X145035667Y-89423578D01*
X145035672Y-89423580D01*
X145035676Y-89423580D01*
X145035677Y-89423581D01*
X145171004Y-89450500D01*
X145171007Y-89450500D01*
X145308995Y-89450500D01*
X145400041Y-89432389D01*
X145444328Y-89423580D01*
X145571811Y-89370775D01*
X145686542Y-89294114D01*
X145784114Y-89196542D01*
X145860775Y-89081811D01*
X145913580Y-88954328D01*
X145940500Y-88818993D01*
X145940500Y-88681007D01*
X145940500Y-88681004D01*
X145913581Y-88545677D01*
X145913580Y-88545676D01*
X145913580Y-88545672D01*
X145908006Y-88532214D01*
X145860778Y-88418195D01*
X145860771Y-88418182D01*
X145784114Y-88303458D01*
X145784111Y-88303454D01*
X145686545Y-88205888D01*
X145686541Y-88205885D01*
X145571817Y-88129228D01*
X145571804Y-88129221D01*
X145444332Y-88076421D01*
X145444322Y-88076418D01*
X145308995Y-88049500D01*
X145308993Y-88049500D01*
X145171007Y-88049500D01*
X145171005Y-88049500D01*
X145035677Y-88076418D01*
X145035667Y-88076421D01*
X144908195Y-88129221D01*
X144908182Y-88129228D01*
X144793458Y-88205885D01*
X144793454Y-88205888D01*
X144695888Y-88303454D01*
X144695885Y-88303458D01*
X144619228Y-88418182D01*
X144619221Y-88418195D01*
X144566421Y-88545667D01*
X144566418Y-88545677D01*
X144539500Y-88681004D01*
X144539500Y-88681007D01*
X144539500Y-88818993D01*
X144539500Y-88818995D01*
X144539499Y-88818995D01*
X142500500Y-88818995D01*
X142500500Y-88000000D01*
X147294540Y-88000000D01*
X147314326Y-88188256D01*
X147314327Y-88188259D01*
X147372818Y-88368277D01*
X147372821Y-88368284D01*
X147467467Y-88532216D01*
X147594129Y-88672888D01*
X147747265Y-88784148D01*
X147747270Y-88784151D01*
X147920192Y-88861142D01*
X147920197Y-88861144D01*
X148105354Y-88900500D01*
X148105355Y-88900500D01*
X148294644Y-88900500D01*
X148294646Y-88900500D01*
X148479803Y-88861144D01*
X148652730Y-88784151D01*
X148805871Y-88672888D01*
X148932533Y-88532216D01*
X149027179Y-88368284D01*
X149085674Y-88188256D01*
X149105460Y-88000000D01*
X149085674Y-87811744D01*
X149027179Y-87631716D01*
X148932533Y-87467784D01*
X148805871Y-87327112D01*
X148805870Y-87327111D01*
X148652734Y-87215851D01*
X148652729Y-87215848D01*
X148479807Y-87138857D01*
X148479802Y-87138855D01*
X148334001Y-87107865D01*
X148294646Y-87099500D01*
X148105354Y-87099500D01*
X148072897Y-87106398D01*
X147920197Y-87138855D01*
X147920192Y-87138857D01*
X147747270Y-87215848D01*
X147747265Y-87215851D01*
X147594129Y-87327111D01*
X147467466Y-87467785D01*
X147372821Y-87631715D01*
X147372818Y-87631722D01*
X147314327Y-87811740D01*
X147314326Y-87811744D01*
X147294540Y-88000000D01*
X142500500Y-88000000D01*
X142500500Y-85195000D01*
X168014659Y-85195000D01*
X168033975Y-85391129D01*
X168091188Y-85579733D01*
X168184086Y-85753532D01*
X168184090Y-85753539D01*
X168309116Y-85905883D01*
X168461460Y-86030909D01*
X168461467Y-86030913D01*
X168635266Y-86123811D01*
X168635269Y-86123811D01*
X168635273Y-86123814D01*
X168823868Y-86181024D01*
X169020000Y-86200341D01*
X169216132Y-86181024D01*
X169404727Y-86123814D01*
X169578538Y-86030910D01*
X169578544Y-86030904D01*
X169583607Y-86027523D01*
X169584703Y-86029164D01*
X169640639Y-86005405D01*
X169709507Y-86017194D01*
X169726148Y-86027888D01*
X169726393Y-86027523D01*
X169731458Y-86030907D01*
X169731462Y-86030910D01*
X169905273Y-86123814D01*
X170093868Y-86181024D01*
X170290000Y-86200341D01*
X170486132Y-86181024D01*
X170674727Y-86123814D01*
X170848538Y-86030910D01*
X170848544Y-86030904D01*
X170853607Y-86027523D01*
X170854703Y-86029164D01*
X170910639Y-86005405D01*
X170979507Y-86017194D01*
X170996148Y-86027888D01*
X170996393Y-86027523D01*
X171001458Y-86030907D01*
X171001462Y-86030910D01*
X171175273Y-86123814D01*
X171363868Y-86181024D01*
X171560000Y-86200341D01*
X171756132Y-86181024D01*
X171944727Y-86123814D01*
X172118538Y-86030910D01*
X172118544Y-86030904D01*
X172123607Y-86027523D01*
X172124703Y-86029164D01*
X172180639Y-86005405D01*
X172249507Y-86017194D01*
X172266148Y-86027888D01*
X172266393Y-86027523D01*
X172271458Y-86030907D01*
X172271462Y-86030910D01*
X172445273Y-86123814D01*
X172633868Y-86181024D01*
X172830000Y-86200341D01*
X173026132Y-86181024D01*
X173214727Y-86123814D01*
X173388538Y-86030910D01*
X173388544Y-86030904D01*
X173393607Y-86027523D01*
X173394703Y-86029164D01*
X173450639Y-86005405D01*
X173519507Y-86017194D01*
X173536148Y-86027888D01*
X173536393Y-86027523D01*
X173541458Y-86030907D01*
X173541462Y-86030910D01*
X173715273Y-86123814D01*
X173903868Y-86181024D01*
X174100000Y-86200341D01*
X174296132Y-86181024D01*
X174484727Y-86123814D01*
X174658538Y-86030910D01*
X174810883Y-85905883D01*
X174935910Y-85753538D01*
X175028814Y-85579727D01*
X175086024Y-85391132D01*
X175105341Y-85195000D01*
X175094670Y-85086653D01*
X175107689Y-85018008D01*
X175155754Y-84967298D01*
X175218073Y-84950500D01*
X175294644Y-84950500D01*
X175294646Y-84950500D01*
X175479803Y-84911144D01*
X175652730Y-84834151D01*
X175805871Y-84722888D01*
X175932533Y-84582216D01*
X176027179Y-84418284D01*
X176085674Y-84238256D01*
X176105460Y-84050000D01*
X176085674Y-83861744D01*
X176049366Y-83750000D01*
X182669540Y-83750000D01*
X182689326Y-83938256D01*
X182689327Y-83938259D01*
X182747818Y-84118277D01*
X182747821Y-84118284D01*
X182842467Y-84282216D01*
X182867071Y-84309541D01*
X182969129Y-84422888D01*
X183122265Y-84534148D01*
X183122270Y-84534151D01*
X183295192Y-84611142D01*
X183295197Y-84611144D01*
X183480354Y-84650500D01*
X183480355Y-84650500D01*
X183669644Y-84650500D01*
X183669646Y-84650500D01*
X183854803Y-84611144D01*
X184027730Y-84534151D01*
X184180871Y-84422888D01*
X184307533Y-84282216D01*
X184402179Y-84118284D01*
X184460674Y-83938256D01*
X184480460Y-83750000D01*
X184460674Y-83561744D01*
X184402179Y-83381716D01*
X184307533Y-83217784D01*
X184180871Y-83077112D01*
X184167578Y-83067454D01*
X184027734Y-82965851D01*
X184027729Y-82965848D01*
X183854807Y-82888857D01*
X183854802Y-82888855D01*
X183709001Y-82857865D01*
X183669646Y-82849500D01*
X183480354Y-82849500D01*
X183447897Y-82856398D01*
X183295197Y-82888855D01*
X183295192Y-82888857D01*
X183122270Y-82965848D01*
X183122265Y-82965851D01*
X182969129Y-83077111D01*
X182842466Y-83217785D01*
X182747821Y-83381715D01*
X182747818Y-83381722D01*
X182703609Y-83517785D01*
X182689326Y-83561744D01*
X182669540Y-83750000D01*
X176049366Y-83750000D01*
X176027179Y-83681716D01*
X175932533Y-83517784D01*
X175805871Y-83377112D01*
X175805870Y-83377111D01*
X175652734Y-83265851D01*
X175652729Y-83265848D01*
X175479807Y-83188857D01*
X175479802Y-83188855D01*
X175297840Y-83150179D01*
X175294646Y-83149500D01*
X175105354Y-83149500D01*
X175105350Y-83149500D01*
X175098888Y-83150179D01*
X175098671Y-83148122D01*
X175038684Y-83143538D01*
X174983318Y-83101881D01*
X174982283Y-83100499D01*
X174957546Y-83067454D01*
X174957544Y-83067453D01*
X174957544Y-83067452D01*
X174842335Y-82981206D01*
X174842328Y-82981202D01*
X174707482Y-82930908D01*
X174707483Y-82930908D01*
X174647883Y-82924501D01*
X174647881Y-82924500D01*
X174647873Y-82924500D01*
X174647864Y-82924500D01*
X173552129Y-82924500D01*
X173552123Y-82924501D01*
X173492516Y-82930908D01*
X173357671Y-82981202D01*
X173357666Y-82981205D01*
X173349172Y-82987564D01*
X173283707Y-83011979D01*
X173220363Y-82998493D01*
X173220162Y-82998981D01*
X173217526Y-82997889D01*
X173216407Y-82997651D01*
X173214537Y-82996651D01*
X173080000Y-82955839D01*
X173080000Y-83715382D01*
X173029554Y-83664936D01*
X172955445Y-83622149D01*
X172872787Y-83600000D01*
X172787213Y-83600000D01*
X172704555Y-83622149D01*
X172630446Y-83664936D01*
X172569936Y-83725446D01*
X172527149Y-83799555D01*
X172505000Y-83882213D01*
X172505000Y-83967787D01*
X172527149Y-84050445D01*
X172569936Y-84124554D01*
X172620382Y-84175000D01*
X171769618Y-84175000D01*
X171820064Y-84124554D01*
X171862851Y-84050445D01*
X171885000Y-83967787D01*
X171885000Y-83882213D01*
X171862851Y-83799555D01*
X171820064Y-83725446D01*
X171759554Y-83664936D01*
X171685445Y-83622149D01*
X171602787Y-83600000D01*
X171517213Y-83600000D01*
X171434555Y-83622149D01*
X171360446Y-83664936D01*
X171310000Y-83715382D01*
X171310000Y-82955839D01*
X171810000Y-82955839D01*
X171810000Y-83675000D01*
X172580000Y-83675000D01*
X172580000Y-82955839D01*
X172579999Y-82955839D01*
X172445458Y-82996652D01*
X172271746Y-83089503D01*
X172266678Y-83092890D01*
X172265641Y-83091338D01*
X172209339Y-83115242D01*
X172140473Y-83103442D01*
X172123541Y-83092560D01*
X172123322Y-83092890D01*
X172118253Y-83089503D01*
X171944541Y-82996652D01*
X171810000Y-82955839D01*
X171310000Y-82955839D01*
X171309999Y-82955839D01*
X171175458Y-82996652D01*
X171001742Y-83089505D01*
X170996673Y-83092893D01*
X170995556Y-83091221D01*
X170939715Y-83114921D01*
X170870851Y-83103111D01*
X170853811Y-83092158D01*
X170853601Y-83092473D01*
X170848532Y-83089086D01*
X170674733Y-82996188D01*
X170674727Y-82996186D01*
X170486132Y-82938976D01*
X170486129Y-82938975D01*
X170290000Y-82919659D01*
X170093870Y-82938975D01*
X169905266Y-82996188D01*
X169731467Y-83089086D01*
X169726399Y-83092473D01*
X169725386Y-83090958D01*
X169668936Y-83114920D01*
X169600071Y-83103115D01*
X169583574Y-83092511D01*
X169583322Y-83092890D01*
X169578253Y-83089503D01*
X169404541Y-82996652D01*
X169270000Y-82955839D01*
X169270000Y-83715382D01*
X169219554Y-83664936D01*
X169145445Y-83622149D01*
X169062787Y-83600000D01*
X168977213Y-83600000D01*
X168894555Y-83622149D01*
X168820446Y-83664936D01*
X168759936Y-83725446D01*
X168717149Y-83799555D01*
X168695000Y-83882213D01*
X168695000Y-83967787D01*
X168717149Y-84050445D01*
X168759936Y-84124554D01*
X168810382Y-84175000D01*
X168050840Y-84175000D01*
X168091652Y-84309541D01*
X168184503Y-84483253D01*
X168187890Y-84488322D01*
X168186215Y-84489440D01*
X168209918Y-84545259D01*
X168198123Y-84614125D01*
X168187158Y-84631188D01*
X168187473Y-84631399D01*
X168184086Y-84636467D01*
X168091188Y-84810266D01*
X168033975Y-84998870D01*
X168014659Y-85195000D01*
X142500500Y-85195000D01*
X142500500Y-81856797D01*
X142520185Y-81789758D01*
X142572989Y-81744003D01*
X142642147Y-81734059D01*
X142705703Y-81763084D01*
X142742431Y-81818479D01*
X142764125Y-81885247D01*
X142764127Y-81885252D01*
X142892704Y-82158491D01*
X142892707Y-82158497D01*
X143054516Y-82413469D01*
X143135311Y-82511133D01*
X144063708Y-81582736D01*
X144160967Y-81716602D01*
X144283398Y-81839033D01*
X144417262Y-81936290D01*
X143486564Y-82866987D01*
X143486565Y-82866989D01*
X143711461Y-83030385D01*
X143711479Y-83030397D01*
X143976109Y-83175878D01*
X143976117Y-83175882D01*
X144256889Y-83287047D01*
X144256892Y-83287048D01*
X144549399Y-83362150D01*
X144848995Y-83399999D01*
X144849007Y-83400000D01*
X145150993Y-83400000D01*
X145151004Y-83399999D01*
X145450600Y-83362150D01*
X145542143Y-83338646D01*
X157100000Y-83338646D01*
X157134584Y-83512512D01*
X157134586Y-83512520D01*
X157202428Y-83676307D01*
X157202433Y-83676316D01*
X157300923Y-83823716D01*
X157300926Y-83823720D01*
X157426279Y-83949073D01*
X157426283Y-83949076D01*
X157573683Y-84047566D01*
X157573693Y-84047571D01*
X157737476Y-84115412D01*
X157737483Y-84115415D01*
X157750000Y-84117904D01*
X157750000Y-83250000D01*
X157100000Y-83250000D01*
X157100000Y-83338646D01*
X145542143Y-83338646D01*
X145743107Y-83287048D01*
X145743110Y-83287047D01*
X146023882Y-83175882D01*
X146023890Y-83175878D01*
X146288520Y-83030397D01*
X146288530Y-83030390D01*
X146398802Y-82950272D01*
X157750000Y-82950272D01*
X157750000Y-83049728D01*
X157788060Y-83141614D01*
X157858386Y-83211940D01*
X157950272Y-83250000D01*
X158049728Y-83250000D01*
X158141614Y-83211940D01*
X158211940Y-83141614D01*
X158250000Y-83049728D01*
X158250000Y-84117903D01*
X158262516Y-84115415D01*
X158262523Y-84115412D01*
X158426306Y-84047571D01*
X158426315Y-84047566D01*
X158555659Y-83961141D01*
X158622336Y-83940263D01*
X158689716Y-83958747D01*
X158693441Y-83961141D01*
X158822791Y-84047571D01*
X158823453Y-84048013D01*
X158823455Y-84048014D01*
X158823459Y-84048016D01*
X158933214Y-84093477D01*
X158987334Y-84115894D01*
X158987336Y-84115894D01*
X158987341Y-84115896D01*
X159161304Y-84150499D01*
X159161307Y-84150500D01*
X159161309Y-84150500D01*
X159338693Y-84150500D01*
X159338694Y-84150499D01*
X159396682Y-84138964D01*
X159512658Y-84115896D01*
X159512661Y-84115894D01*
X159512666Y-84115894D01*
X159676547Y-84048013D01*
X159806109Y-83961442D01*
X159872786Y-83940564D01*
X159940166Y-83959048D01*
X159943891Y-83961442D01*
X160073447Y-84048009D01*
X160073453Y-84048013D01*
X160073455Y-84048014D01*
X160073459Y-84048016D01*
X160183214Y-84093477D01*
X160237334Y-84115894D01*
X160237336Y-84115894D01*
X160237341Y-84115896D01*
X160411304Y-84150499D01*
X160411307Y-84150500D01*
X160411309Y-84150500D01*
X160588693Y-84150500D01*
X160588694Y-84150499D01*
X160646682Y-84138964D01*
X160762658Y-84115896D01*
X160762661Y-84115894D01*
X160762666Y-84115894D01*
X160926547Y-84048013D01*
X160983838Y-84009731D01*
X161050510Y-83988854D01*
X161116873Y-84006716D01*
X161260394Y-84093478D01*
X161422804Y-84144086D01*
X161493384Y-84150500D01*
X161493387Y-84150500D01*
X162006613Y-84150500D01*
X162006616Y-84150500D01*
X162077196Y-84144086D01*
X162239606Y-84093478D01*
X162385185Y-84005472D01*
X162505472Y-83885185D01*
X162593478Y-83739606D01*
X162613610Y-83674999D01*
X168050839Y-83674999D01*
X168050840Y-83675000D01*
X168770000Y-83675000D01*
X168770000Y-82955839D01*
X168769999Y-82955839D01*
X168635458Y-82996652D01*
X168461746Y-83089503D01*
X168461739Y-83089507D01*
X168309471Y-83214471D01*
X168184507Y-83366739D01*
X168184503Y-83366746D01*
X168091652Y-83540458D01*
X168050839Y-83674999D01*
X162613610Y-83674999D01*
X162644086Y-83577196D01*
X162650500Y-83506616D01*
X162650500Y-82493384D01*
X162644086Y-82422804D01*
X162622704Y-82354188D01*
X162621554Y-82284329D01*
X162625970Y-82272005D01*
X162627862Y-82266179D01*
X162685674Y-82088256D01*
X162705460Y-81900000D01*
X162685674Y-81711744D01*
X162627179Y-81531716D01*
X162532533Y-81367784D01*
X162471500Y-81300000D01*
X193194659Y-81300000D01*
X193213975Y-81496129D01*
X193271188Y-81684733D01*
X193364086Y-81858532D01*
X193364090Y-81858539D01*
X193489116Y-82010883D01*
X193641460Y-82135909D01*
X193641467Y-82135913D01*
X193815266Y-82228811D01*
X193815269Y-82228811D01*
X193815273Y-82228814D01*
X194003868Y-82286024D01*
X194200000Y-82305341D01*
X194396132Y-82286024D01*
X194584727Y-82228814D01*
X194758538Y-82135910D01*
X194910883Y-82010883D01*
X195035910Y-81858538D01*
X195097130Y-81744003D01*
X195128811Y-81684733D01*
X195128811Y-81684732D01*
X195128814Y-81684727D01*
X195186024Y-81496132D01*
X195205341Y-81300000D01*
X195186024Y-81103868D01*
X195128814Y-80915273D01*
X195128811Y-80915269D01*
X195128811Y-80915266D01*
X195035913Y-80741467D01*
X195035909Y-80741460D01*
X194910883Y-80589116D01*
X194758539Y-80464090D01*
X194758532Y-80464086D01*
X194584733Y-80371188D01*
X194584727Y-80371186D01*
X194396132Y-80313976D01*
X194396129Y-80313975D01*
X194200000Y-80294659D01*
X194003870Y-80313975D01*
X193815266Y-80371188D01*
X193641467Y-80464086D01*
X193641460Y-80464090D01*
X193489116Y-80589116D01*
X193364090Y-80741460D01*
X193364086Y-80741467D01*
X193271188Y-80915266D01*
X193213975Y-81103870D01*
X193194659Y-81300000D01*
X162471500Y-81300000D01*
X162405871Y-81227112D01*
X162405870Y-81227111D01*
X162252734Y-81115851D01*
X162252729Y-81115848D01*
X162079807Y-81038857D01*
X162079802Y-81038855D01*
X161915196Y-81003868D01*
X161894646Y-80999500D01*
X161705354Y-80999500D01*
X161684804Y-81003868D01*
X161520197Y-81038855D01*
X161520192Y-81038857D01*
X161347270Y-81115848D01*
X161347265Y-81115851D01*
X161194129Y-81227111D01*
X161067466Y-81367785D01*
X160972821Y-81531715D01*
X160972818Y-81531722D01*
X160923104Y-81684727D01*
X160914326Y-81711744D01*
X160907683Y-81774954D01*
X160881098Y-81839568D01*
X160823801Y-81879553D01*
X160760171Y-81883609D01*
X160588694Y-81849500D01*
X160588691Y-81849500D01*
X160411309Y-81849500D01*
X160411306Y-81849500D01*
X160237341Y-81884103D01*
X160237332Y-81884106D01*
X160073459Y-81951983D01*
X160073446Y-81951990D01*
X159943891Y-82038557D01*
X159877213Y-82059435D01*
X159809833Y-82040950D01*
X159806109Y-82038557D01*
X159676553Y-81951990D01*
X159676540Y-81951983D01*
X159512667Y-81884106D01*
X159512658Y-81884103D01*
X159338694Y-81849500D01*
X159338691Y-81849500D01*
X159161309Y-81849500D01*
X159161306Y-81849500D01*
X158987341Y-81884103D01*
X158987332Y-81884106D01*
X158823459Y-81951983D01*
X158823446Y-81951990D01*
X158693441Y-82038858D01*
X158626764Y-82059736D01*
X158559383Y-82041252D01*
X158555659Y-82038858D01*
X158426316Y-81952433D01*
X158426307Y-81952428D01*
X158262519Y-81884585D01*
X158250000Y-81882094D01*
X158250000Y-82950272D01*
X158211940Y-82858386D01*
X158141614Y-82788060D01*
X158049728Y-82750000D01*
X157950272Y-82750000D01*
X157858386Y-82788060D01*
X157788060Y-82858386D01*
X157750000Y-82950272D01*
X146398802Y-82950272D01*
X146513433Y-82866987D01*
X146513434Y-82866987D01*
X146307800Y-82661353D01*
X157100000Y-82661353D01*
X157100000Y-82750000D01*
X157750000Y-82750000D01*
X157750000Y-81882095D01*
X157749999Y-81882094D01*
X157737480Y-81884585D01*
X157573692Y-81952428D01*
X157573683Y-81952433D01*
X157426283Y-82050923D01*
X157426279Y-82050926D01*
X157300926Y-82176279D01*
X157300923Y-82176283D01*
X157202433Y-82323683D01*
X157202428Y-82323692D01*
X157134586Y-82487479D01*
X157134584Y-82487487D01*
X157100000Y-82661353D01*
X146307800Y-82661353D01*
X145582737Y-81936290D01*
X145716602Y-81839033D01*
X145839033Y-81716602D01*
X145936290Y-81582737D01*
X146864687Y-82511134D01*
X146945486Y-82413464D01*
X147107292Y-82158497D01*
X147107295Y-82158491D01*
X147235872Y-81885252D01*
X147235874Y-81885247D01*
X147329194Y-81598040D01*
X147385783Y-81301390D01*
X147385784Y-81301383D01*
X147392162Y-81200000D01*
X147644659Y-81200000D01*
X147663975Y-81396129D01*
X147721188Y-81584733D01*
X147814086Y-81758532D01*
X147814090Y-81758539D01*
X147939116Y-81910883D01*
X148091460Y-82035909D01*
X148091467Y-82035913D01*
X148265266Y-82128811D01*
X148265269Y-82128811D01*
X148265273Y-82128814D01*
X148453868Y-82186024D01*
X148650000Y-82205341D01*
X148846132Y-82186024D01*
X149034727Y-82128814D01*
X149208538Y-82035910D01*
X149360883Y-81910883D01*
X149485910Y-81758538D01*
X149578814Y-81584727D01*
X149636024Y-81396132D01*
X149655341Y-81200000D01*
X149636024Y-81003868D01*
X149578814Y-80815273D01*
X149578811Y-80815269D01*
X149578811Y-80815266D01*
X149485913Y-80641467D01*
X149485909Y-80641460D01*
X149360883Y-80489116D01*
X149208539Y-80364090D01*
X149208532Y-80364086D01*
X149034733Y-80271188D01*
X149034727Y-80271186D01*
X148846132Y-80213976D01*
X148846129Y-80213975D01*
X148650000Y-80194659D01*
X148453870Y-80213975D01*
X148265266Y-80271188D01*
X148091467Y-80364086D01*
X148091460Y-80364090D01*
X147939116Y-80489116D01*
X147814090Y-80641460D01*
X147814086Y-80641467D01*
X147721188Y-80815266D01*
X147663975Y-81003870D01*
X147644659Y-81200000D01*
X147392162Y-81200000D01*
X147404745Y-81000005D01*
X147404745Y-80999994D01*
X147385784Y-80698616D01*
X147385783Y-80698609D01*
X147329194Y-80401959D01*
X147235874Y-80114752D01*
X147235872Y-80114747D01*
X147107295Y-79841508D01*
X147107292Y-79841502D01*
X146945483Y-79586530D01*
X146864686Y-79488864D01*
X145936289Y-80417261D01*
X145839033Y-80283398D01*
X145716602Y-80160967D01*
X145582736Y-80063709D01*
X146513434Y-79133011D01*
X146513433Y-79133009D01*
X146288538Y-78969614D01*
X146288520Y-78969602D01*
X146023890Y-78824121D01*
X146023882Y-78824117D01*
X145810899Y-78739792D01*
X145755813Y-78696811D01*
X145732710Y-78630872D01*
X145748923Y-78562910D01*
X145799306Y-78514502D01*
X145856546Y-78500500D01*
X197143454Y-78500500D01*
X197210493Y-78520185D01*
G37*
%TD.AperFunction*%
%TD*%
M02*
