%TF.GenerationSoftware,KiCad,Pcbnew,8.0.3*%
%TF.CreationDate,2024-07-29T11:00:05+05:30*%
%TF.ProjectId,SSTM32_REV2,5353544d-3332-45f5-9245-56322e6b6963,rev?*%
%TF.SameCoordinates,Original*%
%TF.FileFunction,Legend,Top*%
%TF.FilePolarity,Positive*%
%FSLAX46Y46*%
G04 Gerber Fmt 4.6, Leading zero omitted, Abs format (unit mm)*
G04 Created by KiCad (PCBNEW 8.0.3) date 2024-07-29 11:00:05*
%MOMM*%
%LPD*%
G01*
G04 APERTURE LIST*
%ADD10C,0.100000*%
%ADD11C,0.120000*%
G04 APERTURE END LIST*
D10*
X156839598Y-99572419D02*
X156839598Y-100286704D01*
X156839598Y-100286704D02*
X156791979Y-100429561D01*
X156791979Y-100429561D02*
X156696741Y-100524800D01*
X156696741Y-100524800D02*
X156553884Y-100572419D01*
X156553884Y-100572419D02*
X156458646Y-100572419D01*
X157791979Y-100572419D02*
X157315789Y-100572419D01*
X157315789Y-100572419D02*
X157315789Y-99572419D01*
X158696741Y-100477180D02*
X158649122Y-100524800D01*
X158649122Y-100524800D02*
X158506265Y-100572419D01*
X158506265Y-100572419D02*
X158411027Y-100572419D01*
X158411027Y-100572419D02*
X158268170Y-100524800D01*
X158268170Y-100524800D02*
X158172932Y-100429561D01*
X158172932Y-100429561D02*
X158125313Y-100334323D01*
X158125313Y-100334323D02*
X158077694Y-100143847D01*
X158077694Y-100143847D02*
X158077694Y-100000990D01*
X158077694Y-100000990D02*
X158125313Y-99810514D01*
X158125313Y-99810514D02*
X158172932Y-99715276D01*
X158172932Y-99715276D02*
X158268170Y-99620038D01*
X158268170Y-99620038D02*
X158411027Y-99572419D01*
X158411027Y-99572419D02*
X158506265Y-99572419D01*
X158506265Y-99572419D02*
X158649122Y-99620038D01*
X158649122Y-99620038D02*
X158696741Y-99667657D01*
X159411027Y-99572419D02*
X159411027Y-100286704D01*
X159411027Y-100286704D02*
X159363408Y-100429561D01*
X159363408Y-100429561D02*
X159268170Y-100524800D01*
X159268170Y-100524800D02*
X159125313Y-100572419D01*
X159125313Y-100572419D02*
X159030075Y-100572419D01*
X160363408Y-100572419D02*
X159887218Y-100572419D01*
X159887218Y-100572419D02*
X159887218Y-99572419D01*
X161268170Y-100477180D02*
X161220551Y-100524800D01*
X161220551Y-100524800D02*
X161077694Y-100572419D01*
X161077694Y-100572419D02*
X160982456Y-100572419D01*
X160982456Y-100572419D02*
X160839599Y-100524800D01*
X160839599Y-100524800D02*
X160744361Y-100429561D01*
X160744361Y-100429561D02*
X160696742Y-100334323D01*
X160696742Y-100334323D02*
X160649123Y-100143847D01*
X160649123Y-100143847D02*
X160649123Y-100000990D01*
X160649123Y-100000990D02*
X160696742Y-99810514D01*
X160696742Y-99810514D02*
X160744361Y-99715276D01*
X160744361Y-99715276D02*
X160839599Y-99620038D01*
X160839599Y-99620038D02*
X160982456Y-99572419D01*
X160982456Y-99572419D02*
X161077694Y-99572419D01*
X161077694Y-99572419D02*
X161220551Y-99620038D01*
X161220551Y-99620038D02*
X161268170Y-99667657D01*
X161982456Y-99572419D02*
X161982456Y-100286704D01*
X161982456Y-100286704D02*
X161934837Y-100429561D01*
X161934837Y-100429561D02*
X161839599Y-100524800D01*
X161839599Y-100524800D02*
X161696742Y-100572419D01*
X161696742Y-100572419D02*
X161601504Y-100572419D01*
X162934837Y-100572419D02*
X162458647Y-100572419D01*
X162458647Y-100572419D02*
X162458647Y-99572419D01*
X163839599Y-100477180D02*
X163791980Y-100524800D01*
X163791980Y-100524800D02*
X163649123Y-100572419D01*
X163649123Y-100572419D02*
X163553885Y-100572419D01*
X163553885Y-100572419D02*
X163411028Y-100524800D01*
X163411028Y-100524800D02*
X163315790Y-100429561D01*
X163315790Y-100429561D02*
X163268171Y-100334323D01*
X163268171Y-100334323D02*
X163220552Y-100143847D01*
X163220552Y-100143847D02*
X163220552Y-100000990D01*
X163220552Y-100000990D02*
X163268171Y-99810514D01*
X163268171Y-99810514D02*
X163315790Y-99715276D01*
X163315790Y-99715276D02*
X163411028Y-99620038D01*
X163411028Y-99620038D02*
X163553885Y-99572419D01*
X163553885Y-99572419D02*
X163649123Y-99572419D01*
X163649123Y-99572419D02*
X163791980Y-99620038D01*
X163791980Y-99620038D02*
X163839599Y-99667657D01*
X187006265Y-124774800D02*
X187149122Y-124822419D01*
X187149122Y-124822419D02*
X187387217Y-124822419D01*
X187387217Y-124822419D02*
X187482455Y-124774800D01*
X187482455Y-124774800D02*
X187530074Y-124727180D01*
X187530074Y-124727180D02*
X187577693Y-124631942D01*
X187577693Y-124631942D02*
X187577693Y-124536704D01*
X187577693Y-124536704D02*
X187530074Y-124441466D01*
X187530074Y-124441466D02*
X187482455Y-124393847D01*
X187482455Y-124393847D02*
X187387217Y-124346228D01*
X187387217Y-124346228D02*
X187196741Y-124298609D01*
X187196741Y-124298609D02*
X187101503Y-124250990D01*
X187101503Y-124250990D02*
X187053884Y-124203371D01*
X187053884Y-124203371D02*
X187006265Y-124108133D01*
X187006265Y-124108133D02*
X187006265Y-124012895D01*
X187006265Y-124012895D02*
X187053884Y-123917657D01*
X187053884Y-123917657D02*
X187101503Y-123870038D01*
X187101503Y-123870038D02*
X187196741Y-123822419D01*
X187196741Y-123822419D02*
X187434836Y-123822419D01*
X187434836Y-123822419D02*
X187577693Y-123870038D01*
X187863408Y-123822419D02*
X188434836Y-123822419D01*
X188149122Y-124822419D02*
X188149122Y-123822419D01*
X188768170Y-124822419D02*
X188768170Y-123822419D01*
X188768170Y-123822419D02*
X189101503Y-124536704D01*
X189101503Y-124536704D02*
X189434836Y-123822419D01*
X189434836Y-123822419D02*
X189434836Y-124822419D01*
X189815789Y-123822419D02*
X190434836Y-123822419D01*
X190434836Y-123822419D02*
X190101503Y-124203371D01*
X190101503Y-124203371D02*
X190244360Y-124203371D01*
X190244360Y-124203371D02*
X190339598Y-124250990D01*
X190339598Y-124250990D02*
X190387217Y-124298609D01*
X190387217Y-124298609D02*
X190434836Y-124393847D01*
X190434836Y-124393847D02*
X190434836Y-124631942D01*
X190434836Y-124631942D02*
X190387217Y-124727180D01*
X190387217Y-124727180D02*
X190339598Y-124774800D01*
X190339598Y-124774800D02*
X190244360Y-124822419D01*
X190244360Y-124822419D02*
X189958646Y-124822419D01*
X189958646Y-124822419D02*
X189863408Y-124774800D01*
X189863408Y-124774800D02*
X189815789Y-124727180D01*
X190815789Y-123917657D02*
X190863408Y-123870038D01*
X190863408Y-123870038D02*
X190958646Y-123822419D01*
X190958646Y-123822419D02*
X191196741Y-123822419D01*
X191196741Y-123822419D02*
X191291979Y-123870038D01*
X191291979Y-123870038D02*
X191339598Y-123917657D01*
X191339598Y-123917657D02*
X191387217Y-124012895D01*
X191387217Y-124012895D02*
X191387217Y-124108133D01*
X191387217Y-124108133D02*
X191339598Y-124250990D01*
X191339598Y-124250990D02*
X190768170Y-124822419D01*
X190768170Y-124822419D02*
X191387217Y-124822419D01*
X192149122Y-124298609D02*
X191815789Y-124298609D01*
X191815789Y-124822419D02*
X191815789Y-123822419D01*
X191815789Y-123822419D02*
X192291979Y-123822419D01*
X193101503Y-124155752D02*
X193101503Y-124822419D01*
X192863408Y-123774800D02*
X192625313Y-124489085D01*
X192625313Y-124489085D02*
X193244360Y-124489085D01*
X144325312Y-95972419D02*
X143991979Y-95496228D01*
X143753884Y-95972419D02*
X143753884Y-94972419D01*
X143753884Y-94972419D02*
X144134836Y-94972419D01*
X144134836Y-94972419D02*
X144230074Y-95020038D01*
X144230074Y-95020038D02*
X144277693Y-95067657D01*
X144277693Y-95067657D02*
X144325312Y-95162895D01*
X144325312Y-95162895D02*
X144325312Y-95305752D01*
X144325312Y-95305752D02*
X144277693Y-95400990D01*
X144277693Y-95400990D02*
X144230074Y-95448609D01*
X144230074Y-95448609D02*
X144134836Y-95496228D01*
X144134836Y-95496228D02*
X143753884Y-95496228D01*
X144753884Y-94972419D02*
X144753884Y-95781942D01*
X144753884Y-95781942D02*
X144801503Y-95877180D01*
X144801503Y-95877180D02*
X144849122Y-95924800D01*
X144849122Y-95924800D02*
X144944360Y-95972419D01*
X144944360Y-95972419D02*
X145134836Y-95972419D01*
X145134836Y-95972419D02*
X145230074Y-95924800D01*
X145230074Y-95924800D02*
X145277693Y-95877180D01*
X145277693Y-95877180D02*
X145325312Y-95781942D01*
X145325312Y-95781942D02*
X145325312Y-94972419D01*
X145801503Y-95972419D02*
X145801503Y-94972419D01*
X145801503Y-94972419D02*
X146372931Y-95972419D01*
X146372931Y-95972419D02*
X146372931Y-94972419D01*
X186206265Y-86792133D02*
X186815789Y-86792133D01*
X186511027Y-87096895D02*
X186511027Y-86487371D01*
X152856265Y-106592133D02*
X153465789Y-106592133D01*
X153161027Y-106896895D02*
X153161027Y-106287371D01*
X188156265Y-118942133D02*
X188765789Y-118942133D01*
X188461027Y-119246895D02*
X188461027Y-118637371D01*
X171156265Y-110492133D02*
X171765789Y-110492133D01*
X171461027Y-110796895D02*
X171461027Y-110187371D01*
X190406265Y-106042133D02*
X191015789Y-106042133D01*
X190711027Y-106346895D02*
X190711027Y-105737371D01*
X177350000Y-83800000D02*
X178700000Y-83800000D01*
X178700000Y-84400000D01*
X177350000Y-84400000D01*
X177350000Y-84900000D01*
X176800000Y-84150000D01*
X177350000Y-83300000D01*
X177350000Y-83800000D01*
G36*
X177350000Y-83800000D02*
G01*
X178700000Y-83800000D01*
X178700000Y-84400000D01*
X177350000Y-84400000D01*
X177350000Y-84900000D01*
X176800000Y-84150000D01*
X177350000Y-83300000D01*
X177350000Y-83800000D01*
G37*
X165156265Y-85024800D02*
X165299122Y-85072419D01*
X165299122Y-85072419D02*
X165537217Y-85072419D01*
X165537217Y-85072419D02*
X165632455Y-85024800D01*
X165632455Y-85024800D02*
X165680074Y-84977180D01*
X165680074Y-84977180D02*
X165727693Y-84881942D01*
X165727693Y-84881942D02*
X165727693Y-84786704D01*
X165727693Y-84786704D02*
X165680074Y-84691466D01*
X165680074Y-84691466D02*
X165632455Y-84643847D01*
X165632455Y-84643847D02*
X165537217Y-84596228D01*
X165537217Y-84596228D02*
X165346741Y-84548609D01*
X165346741Y-84548609D02*
X165251503Y-84500990D01*
X165251503Y-84500990D02*
X165203884Y-84453371D01*
X165203884Y-84453371D02*
X165156265Y-84358133D01*
X165156265Y-84358133D02*
X165156265Y-84262895D01*
X165156265Y-84262895D02*
X165203884Y-84167657D01*
X165203884Y-84167657D02*
X165251503Y-84120038D01*
X165251503Y-84120038D02*
X165346741Y-84072419D01*
X165346741Y-84072419D02*
X165584836Y-84072419D01*
X165584836Y-84072419D02*
X165727693Y-84120038D01*
X166061027Y-84072419D02*
X166299122Y-85072419D01*
X166299122Y-85072419D02*
X166489598Y-84358133D01*
X166489598Y-84358133D02*
X166680074Y-85072419D01*
X166680074Y-85072419D02*
X166918170Y-84072419D01*
X167299122Y-85072419D02*
X167299122Y-84072419D01*
X167299122Y-84072419D02*
X167537217Y-84072419D01*
X167537217Y-84072419D02*
X167680074Y-84120038D01*
X167680074Y-84120038D02*
X167775312Y-84215276D01*
X167775312Y-84215276D02*
X167822931Y-84310514D01*
X167822931Y-84310514D02*
X167870550Y-84500990D01*
X167870550Y-84500990D02*
X167870550Y-84643847D01*
X167870550Y-84643847D02*
X167822931Y-84834323D01*
X167822931Y-84834323D02*
X167775312Y-84929561D01*
X167775312Y-84929561D02*
X167680074Y-85024800D01*
X167680074Y-85024800D02*
X167537217Y-85072419D01*
X167537217Y-85072419D02*
X167299122Y-85072419D01*
X193050000Y-96850000D02*
G75*
G02*
X192950000Y-96850000I-50000J0D01*
G01*
X192950000Y-96850000D02*
G75*
G02*
X193050000Y-96850000I50000J0D01*
G01*
X184720711Y-111150000D02*
G75*
G02*
X184579289Y-111150000I-70711J0D01*
G01*
X184579289Y-111150000D02*
G75*
G02*
X184720711Y-111150000I70711J0D01*
G01*
X177200000Y-119100000D02*
G75*
G02*
X177100000Y-119100000I-50000J0D01*
G01*
X177100000Y-119100000D02*
G75*
G02*
X177200000Y-119100000I50000J0D01*
G01*
X152700000Y-96250000D02*
G75*
G02*
X152600000Y-96250000I-50000J0D01*
G01*
X152600000Y-96250000D02*
G75*
G02*
X152700000Y-96250000I50000J0D01*
G01*
X151756265Y-111174800D02*
X151899122Y-111222419D01*
X151899122Y-111222419D02*
X152137217Y-111222419D01*
X152137217Y-111222419D02*
X152232455Y-111174800D01*
X152232455Y-111174800D02*
X152280074Y-111127180D01*
X152280074Y-111127180D02*
X152327693Y-111031942D01*
X152327693Y-111031942D02*
X152327693Y-110936704D01*
X152327693Y-110936704D02*
X152280074Y-110841466D01*
X152280074Y-110841466D02*
X152232455Y-110793847D01*
X152232455Y-110793847D02*
X152137217Y-110746228D01*
X152137217Y-110746228D02*
X151946741Y-110698609D01*
X151946741Y-110698609D02*
X151851503Y-110650990D01*
X151851503Y-110650990D02*
X151803884Y-110603371D01*
X151803884Y-110603371D02*
X151756265Y-110508133D01*
X151756265Y-110508133D02*
X151756265Y-110412895D01*
X151756265Y-110412895D02*
X151803884Y-110317657D01*
X151803884Y-110317657D02*
X151851503Y-110270038D01*
X151851503Y-110270038D02*
X151946741Y-110222419D01*
X151946741Y-110222419D02*
X152184836Y-110222419D01*
X152184836Y-110222419D02*
X152327693Y-110270038D01*
X152613408Y-110222419D02*
X153184836Y-110222419D01*
X152899122Y-111222419D02*
X152899122Y-110222419D01*
X153470551Y-110936704D02*
X153946741Y-110936704D01*
X153375313Y-111222419D02*
X153708646Y-110222419D01*
X153708646Y-110222419D02*
X154041979Y-111222419D01*
X154232456Y-110222419D02*
X154803884Y-110222419D01*
X154518170Y-111222419D02*
X154518170Y-110222419D01*
X155137218Y-110222419D02*
X155137218Y-111031942D01*
X155137218Y-111031942D02*
X155184837Y-111127180D01*
X155184837Y-111127180D02*
X155232456Y-111174800D01*
X155232456Y-111174800D02*
X155327694Y-111222419D01*
X155327694Y-111222419D02*
X155518170Y-111222419D01*
X155518170Y-111222419D02*
X155613408Y-111174800D01*
X155613408Y-111174800D02*
X155661027Y-111127180D01*
X155661027Y-111127180D02*
X155708646Y-111031942D01*
X155708646Y-111031942D02*
X155708646Y-110222419D01*
X156137218Y-111174800D02*
X156280075Y-111222419D01*
X156280075Y-111222419D02*
X156518170Y-111222419D01*
X156518170Y-111222419D02*
X156613408Y-111174800D01*
X156613408Y-111174800D02*
X156661027Y-111127180D01*
X156661027Y-111127180D02*
X156708646Y-111031942D01*
X156708646Y-111031942D02*
X156708646Y-110936704D01*
X156708646Y-110936704D02*
X156661027Y-110841466D01*
X156661027Y-110841466D02*
X156613408Y-110793847D01*
X156613408Y-110793847D02*
X156518170Y-110746228D01*
X156518170Y-110746228D02*
X156327694Y-110698609D01*
X156327694Y-110698609D02*
X156232456Y-110650990D01*
X156232456Y-110650990D02*
X156184837Y-110603371D01*
X156184837Y-110603371D02*
X156137218Y-110508133D01*
X156137218Y-110508133D02*
X156137218Y-110412895D01*
X156137218Y-110412895D02*
X156184837Y-110317657D01*
X156184837Y-110317657D02*
X156232456Y-110270038D01*
X156232456Y-110270038D02*
X156327694Y-110222419D01*
X156327694Y-110222419D02*
X156565789Y-110222419D01*
X156565789Y-110222419D02*
X156708646Y-110270038D01*
X158853884Y-85822419D02*
X158853884Y-84822419D01*
X159282455Y-84917657D02*
X159330074Y-84870038D01*
X159330074Y-84870038D02*
X159425312Y-84822419D01*
X159425312Y-84822419D02*
X159663407Y-84822419D01*
X159663407Y-84822419D02*
X159758645Y-84870038D01*
X159758645Y-84870038D02*
X159806264Y-84917657D01*
X159806264Y-84917657D02*
X159853883Y-85012895D01*
X159853883Y-85012895D02*
X159853883Y-85108133D01*
X159853883Y-85108133D02*
X159806264Y-85250990D01*
X159806264Y-85250990D02*
X159234836Y-85822419D01*
X159234836Y-85822419D02*
X159853883Y-85822419D01*
X160853883Y-85727180D02*
X160806264Y-85774800D01*
X160806264Y-85774800D02*
X160663407Y-85822419D01*
X160663407Y-85822419D02*
X160568169Y-85822419D01*
X160568169Y-85822419D02*
X160425312Y-85774800D01*
X160425312Y-85774800D02*
X160330074Y-85679561D01*
X160330074Y-85679561D02*
X160282455Y-85584323D01*
X160282455Y-85584323D02*
X160234836Y-85393847D01*
X160234836Y-85393847D02*
X160234836Y-85250990D01*
X160234836Y-85250990D02*
X160282455Y-85060514D01*
X160282455Y-85060514D02*
X160330074Y-84965276D01*
X160330074Y-84965276D02*
X160425312Y-84870038D01*
X160425312Y-84870038D02*
X160568169Y-84822419D01*
X160568169Y-84822419D02*
X160663407Y-84822419D01*
X160663407Y-84822419D02*
X160806264Y-84870038D01*
X160806264Y-84870038D02*
X160853883Y-84917657D01*
X158453884Y-117672419D02*
X158453884Y-118481942D01*
X158453884Y-118481942D02*
X158501503Y-118577180D01*
X158501503Y-118577180D02*
X158549122Y-118624800D01*
X158549122Y-118624800D02*
X158644360Y-118672419D01*
X158644360Y-118672419D02*
X158834836Y-118672419D01*
X158834836Y-118672419D02*
X158930074Y-118624800D01*
X158930074Y-118624800D02*
X158977693Y-118577180D01*
X158977693Y-118577180D02*
X159025312Y-118481942D01*
X159025312Y-118481942D02*
X159025312Y-117672419D01*
X159453884Y-118386704D02*
X159930074Y-118386704D01*
X159358646Y-118672419D02*
X159691979Y-117672419D01*
X159691979Y-117672419D02*
X160025312Y-118672419D01*
X160930074Y-118672419D02*
X160596741Y-118196228D01*
X160358646Y-118672419D02*
X160358646Y-117672419D01*
X160358646Y-117672419D02*
X160739598Y-117672419D01*
X160739598Y-117672419D02*
X160834836Y-117720038D01*
X160834836Y-117720038D02*
X160882455Y-117767657D01*
X160882455Y-117767657D02*
X160930074Y-117862895D01*
X160930074Y-117862895D02*
X160930074Y-118005752D01*
X160930074Y-118005752D02*
X160882455Y-118100990D01*
X160882455Y-118100990D02*
X160834836Y-118148609D01*
X160834836Y-118148609D02*
X160739598Y-118196228D01*
X160739598Y-118196228D02*
X160358646Y-118196228D01*
X161215789Y-117672419D02*
X161787217Y-117672419D01*
X161501503Y-118672419D02*
X161501503Y-117672419D01*
X196753884Y-100422419D02*
X196753884Y-101231942D01*
X196753884Y-101231942D02*
X196801503Y-101327180D01*
X196801503Y-101327180D02*
X196849122Y-101374800D01*
X196849122Y-101374800D02*
X196944360Y-101422419D01*
X196944360Y-101422419D02*
X197134836Y-101422419D01*
X197134836Y-101422419D02*
X197230074Y-101374800D01*
X197230074Y-101374800D02*
X197277693Y-101327180D01*
X197277693Y-101327180D02*
X197325312Y-101231942D01*
X197325312Y-101231942D02*
X197325312Y-100422419D01*
X197753884Y-101374800D02*
X197896741Y-101422419D01*
X197896741Y-101422419D02*
X198134836Y-101422419D01*
X198134836Y-101422419D02*
X198230074Y-101374800D01*
X198230074Y-101374800D02*
X198277693Y-101327180D01*
X198277693Y-101327180D02*
X198325312Y-101231942D01*
X198325312Y-101231942D02*
X198325312Y-101136704D01*
X198325312Y-101136704D02*
X198277693Y-101041466D01*
X198277693Y-101041466D02*
X198230074Y-100993847D01*
X198230074Y-100993847D02*
X198134836Y-100946228D01*
X198134836Y-100946228D02*
X197944360Y-100898609D01*
X197944360Y-100898609D02*
X197849122Y-100850990D01*
X197849122Y-100850990D02*
X197801503Y-100803371D01*
X197801503Y-100803371D02*
X197753884Y-100708133D01*
X197753884Y-100708133D02*
X197753884Y-100612895D01*
X197753884Y-100612895D02*
X197801503Y-100517657D01*
X197801503Y-100517657D02*
X197849122Y-100470038D01*
X197849122Y-100470038D02*
X197944360Y-100422419D01*
X197944360Y-100422419D02*
X198182455Y-100422419D01*
X198182455Y-100422419D02*
X198325312Y-100470038D01*
X199087217Y-100898609D02*
X199230074Y-100946228D01*
X199230074Y-100946228D02*
X199277693Y-100993847D01*
X199277693Y-100993847D02*
X199325312Y-101089085D01*
X199325312Y-101089085D02*
X199325312Y-101231942D01*
X199325312Y-101231942D02*
X199277693Y-101327180D01*
X199277693Y-101327180D02*
X199230074Y-101374800D01*
X199230074Y-101374800D02*
X199134836Y-101422419D01*
X199134836Y-101422419D02*
X198753884Y-101422419D01*
X198753884Y-101422419D02*
X198753884Y-100422419D01*
X198753884Y-100422419D02*
X199087217Y-100422419D01*
X199087217Y-100422419D02*
X199182455Y-100470038D01*
X199182455Y-100470038D02*
X199230074Y-100517657D01*
X199230074Y-100517657D02*
X199277693Y-100612895D01*
X199277693Y-100612895D02*
X199277693Y-100708133D01*
X199277693Y-100708133D02*
X199230074Y-100803371D01*
X199230074Y-100803371D02*
X199182455Y-100850990D01*
X199182455Y-100850990D02*
X199087217Y-100898609D01*
X199087217Y-100898609D02*
X198753884Y-100898609D01*
X191453884Y-108972419D02*
X191453884Y-107972419D01*
X191453884Y-107972419D02*
X191834836Y-107972419D01*
X191834836Y-107972419D02*
X191930074Y-108020038D01*
X191930074Y-108020038D02*
X191977693Y-108067657D01*
X191977693Y-108067657D02*
X192025312Y-108162895D01*
X192025312Y-108162895D02*
X192025312Y-108305752D01*
X192025312Y-108305752D02*
X191977693Y-108400990D01*
X191977693Y-108400990D02*
X191930074Y-108448609D01*
X191930074Y-108448609D02*
X191834836Y-108496228D01*
X191834836Y-108496228D02*
X191453884Y-108496228D01*
X192644360Y-107972419D02*
X192834836Y-107972419D01*
X192834836Y-107972419D02*
X192930074Y-108020038D01*
X192930074Y-108020038D02*
X193025312Y-108115276D01*
X193025312Y-108115276D02*
X193072931Y-108305752D01*
X193072931Y-108305752D02*
X193072931Y-108639085D01*
X193072931Y-108639085D02*
X193025312Y-108829561D01*
X193025312Y-108829561D02*
X192930074Y-108924800D01*
X192930074Y-108924800D02*
X192834836Y-108972419D01*
X192834836Y-108972419D02*
X192644360Y-108972419D01*
X192644360Y-108972419D02*
X192549122Y-108924800D01*
X192549122Y-108924800D02*
X192453884Y-108829561D01*
X192453884Y-108829561D02*
X192406265Y-108639085D01*
X192406265Y-108639085D02*
X192406265Y-108305752D01*
X192406265Y-108305752D02*
X192453884Y-108115276D01*
X192453884Y-108115276D02*
X192549122Y-108020038D01*
X192549122Y-108020038D02*
X192644360Y-107972419D01*
X193406265Y-107972419D02*
X193644360Y-108972419D01*
X193644360Y-108972419D02*
X193834836Y-108258133D01*
X193834836Y-108258133D02*
X194025312Y-108972419D01*
X194025312Y-108972419D02*
X194263408Y-107972419D01*
X194644360Y-108448609D02*
X194977693Y-108448609D01*
X195120550Y-108972419D02*
X194644360Y-108972419D01*
X194644360Y-108972419D02*
X194644360Y-107972419D01*
X194644360Y-107972419D02*
X195120550Y-107972419D01*
X196120550Y-108972419D02*
X195787217Y-108496228D01*
X195549122Y-108972419D02*
X195549122Y-107972419D01*
X195549122Y-107972419D02*
X195930074Y-107972419D01*
X195930074Y-107972419D02*
X196025312Y-108020038D01*
X196025312Y-108020038D02*
X196072931Y-108067657D01*
X196072931Y-108067657D02*
X196120550Y-108162895D01*
X196120550Y-108162895D02*
X196120550Y-108305752D01*
X196120550Y-108305752D02*
X196072931Y-108400990D01*
X196072931Y-108400990D02*
X196025312Y-108448609D01*
X196025312Y-108448609D02*
X195930074Y-108496228D01*
X195930074Y-108496228D02*
X195549122Y-108496228D01*
X144087217Y-84898609D02*
X144230074Y-84946228D01*
X144230074Y-84946228D02*
X144277693Y-84993847D01*
X144277693Y-84993847D02*
X144325312Y-85089085D01*
X144325312Y-85089085D02*
X144325312Y-85231942D01*
X144325312Y-85231942D02*
X144277693Y-85327180D01*
X144277693Y-85327180D02*
X144230074Y-85374800D01*
X144230074Y-85374800D02*
X144134836Y-85422419D01*
X144134836Y-85422419D02*
X143753884Y-85422419D01*
X143753884Y-85422419D02*
X143753884Y-84422419D01*
X143753884Y-84422419D02*
X144087217Y-84422419D01*
X144087217Y-84422419D02*
X144182455Y-84470038D01*
X144182455Y-84470038D02*
X144230074Y-84517657D01*
X144230074Y-84517657D02*
X144277693Y-84612895D01*
X144277693Y-84612895D02*
X144277693Y-84708133D01*
X144277693Y-84708133D02*
X144230074Y-84803371D01*
X144230074Y-84803371D02*
X144182455Y-84850990D01*
X144182455Y-84850990D02*
X144087217Y-84898609D01*
X144087217Y-84898609D02*
X143753884Y-84898609D01*
X144944360Y-84422419D02*
X145134836Y-84422419D01*
X145134836Y-84422419D02*
X145230074Y-84470038D01*
X145230074Y-84470038D02*
X145325312Y-84565276D01*
X145325312Y-84565276D02*
X145372931Y-84755752D01*
X145372931Y-84755752D02*
X145372931Y-85089085D01*
X145372931Y-85089085D02*
X145325312Y-85279561D01*
X145325312Y-85279561D02*
X145230074Y-85374800D01*
X145230074Y-85374800D02*
X145134836Y-85422419D01*
X145134836Y-85422419D02*
X144944360Y-85422419D01*
X144944360Y-85422419D02*
X144849122Y-85374800D01*
X144849122Y-85374800D02*
X144753884Y-85279561D01*
X144753884Y-85279561D02*
X144706265Y-85089085D01*
X144706265Y-85089085D02*
X144706265Y-84755752D01*
X144706265Y-84755752D02*
X144753884Y-84565276D01*
X144753884Y-84565276D02*
X144849122Y-84470038D01*
X144849122Y-84470038D02*
X144944360Y-84422419D01*
X145991979Y-84422419D02*
X146182455Y-84422419D01*
X146182455Y-84422419D02*
X146277693Y-84470038D01*
X146277693Y-84470038D02*
X146372931Y-84565276D01*
X146372931Y-84565276D02*
X146420550Y-84755752D01*
X146420550Y-84755752D02*
X146420550Y-85089085D01*
X146420550Y-85089085D02*
X146372931Y-85279561D01*
X146372931Y-85279561D02*
X146277693Y-85374800D01*
X146277693Y-85374800D02*
X146182455Y-85422419D01*
X146182455Y-85422419D02*
X145991979Y-85422419D01*
X145991979Y-85422419D02*
X145896741Y-85374800D01*
X145896741Y-85374800D02*
X145801503Y-85279561D01*
X145801503Y-85279561D02*
X145753884Y-85089085D01*
X145753884Y-85089085D02*
X145753884Y-84755752D01*
X145753884Y-84755752D02*
X145801503Y-84565276D01*
X145801503Y-84565276D02*
X145896741Y-84470038D01*
X145896741Y-84470038D02*
X145991979Y-84422419D01*
X146706265Y-84422419D02*
X147277693Y-84422419D01*
X146991979Y-85422419D02*
X146991979Y-84422419D01*
X186968646Y-83357419D02*
X187587693Y-83357419D01*
X187587693Y-83357419D02*
X187254360Y-83738371D01*
X187254360Y-83738371D02*
X187397217Y-83738371D01*
X187397217Y-83738371D02*
X187492455Y-83785990D01*
X187492455Y-83785990D02*
X187540074Y-83833609D01*
X187540074Y-83833609D02*
X187587693Y-83928847D01*
X187587693Y-83928847D02*
X187587693Y-84166942D01*
X187587693Y-84166942D02*
X187540074Y-84262180D01*
X187540074Y-84262180D02*
X187492455Y-84309800D01*
X187492455Y-84309800D02*
X187397217Y-84357419D01*
X187397217Y-84357419D02*
X187111503Y-84357419D01*
X187111503Y-84357419D02*
X187016265Y-84309800D01*
X187016265Y-84309800D02*
X186968646Y-84262180D01*
X187873408Y-83357419D02*
X188206741Y-84357419D01*
X188206741Y-84357419D02*
X188540074Y-83357419D01*
X188778170Y-83357419D02*
X189397217Y-83357419D01*
X189397217Y-83357419D02*
X189063884Y-83738371D01*
X189063884Y-83738371D02*
X189206741Y-83738371D01*
X189206741Y-83738371D02*
X189301979Y-83785990D01*
X189301979Y-83785990D02*
X189349598Y-83833609D01*
X189349598Y-83833609D02*
X189397217Y-83928847D01*
X189397217Y-83928847D02*
X189397217Y-84166942D01*
X189397217Y-84166942D02*
X189349598Y-84262180D01*
X189349598Y-84262180D02*
X189301979Y-84309800D01*
X189301979Y-84309800D02*
X189206741Y-84357419D01*
X189206741Y-84357419D02*
X188921027Y-84357419D01*
X188921027Y-84357419D02*
X188825789Y-84309800D01*
X188825789Y-84309800D02*
X188778170Y-84262180D01*
D11*
%TO.C,C9*%
X150640000Y-102627836D02*
X150640000Y-102412164D01*
X151360000Y-102627836D02*
X151360000Y-102412164D01*
%TO.C,C12*%
X148412164Y-95640000D02*
X148627836Y-95640000D01*
X148412164Y-96360000D02*
X148627836Y-96360000D01*
%TO.C,C3*%
X153915580Y-92490000D02*
X153634420Y-92490000D01*
X153915580Y-93510000D02*
X153634420Y-93510000D01*
%TO.C,R7*%
X182470000Y-119706359D02*
X182470000Y-120013641D01*
X183230000Y-119706359D02*
X183230000Y-120013641D01*
%TO.C,C6*%
X165892164Y-105640000D02*
X166107836Y-105640000D01*
X165892164Y-106360000D02*
X166107836Y-106360000D01*
%TO.C,Y1*%
X146500000Y-96900000D02*
X146500000Y-100900000D01*
X149800000Y-96900000D02*
X146500000Y-96900000D01*
%TO.C,FB1*%
X177440000Y-107600378D02*
X177440000Y-108399622D01*
X178560000Y-107600378D02*
X178560000Y-108399622D01*
%TO.C,F1*%
X181997936Y-105090000D02*
X183202064Y-105090000D01*
X181997936Y-106910000D02*
X183202064Y-106910000D01*
%TO.C,SW1*%
X142340000Y-89050000D02*
X142340000Y-89950000D01*
X142550000Y-88850000D02*
X142340000Y-89050000D01*
X142550000Y-90150000D02*
X142340000Y-89950000D01*
X142550000Y-90150000D02*
X143840000Y-90150000D01*
X143840000Y-87400000D02*
X143840000Y-93100000D01*
X143840000Y-88850000D02*
X142550000Y-88850000D01*
X144850000Y-93700000D02*
X145640000Y-93700000D01*
X145640000Y-86800000D02*
X144850000Y-86800000D01*
X146690000Y-88650000D02*
X146690000Y-90350000D01*
X146690000Y-91650000D02*
X146690000Y-91850000D01*
%TO.C,R5*%
X182477500Y-117237258D02*
X182477500Y-116762742D01*
X183522500Y-117237258D02*
X183522500Y-116762742D01*
%TO.C,R3*%
X151720000Y-107863641D02*
X151720000Y-107556359D01*
X152480000Y-107863641D02*
X152480000Y-107556359D01*
%TO.C,D1*%
X153265000Y-107412500D02*
X153265000Y-109697500D01*
X153265000Y-109697500D02*
X154735000Y-109697500D01*
X154735000Y-109697500D02*
X154735000Y-107412500D01*
%TO.C,L1*%
X144540000Y-103640000D02*
X144540000Y-104490000D01*
X144540000Y-103640000D02*
X149460000Y-103640000D01*
X144540000Y-108360000D02*
X144540000Y-107510000D01*
X144540000Y-108360000D02*
X149460000Y-108360000D01*
X149460000Y-103640000D02*
X149460000Y-104490000D01*
X149460000Y-108360000D02*
X149460000Y-107510000D01*
%TO.C,D3*%
X185640000Y-105000000D02*
X185640000Y-107000000D01*
X185640000Y-105000000D02*
X189650000Y-105000000D01*
X185640000Y-107000000D02*
X189650000Y-107000000D01*
%TO.C,IC1*%
X176490000Y-117137500D02*
X176490000Y-116337500D01*
X176490000Y-117137500D02*
X176490000Y-117937500D01*
X179610000Y-117137500D02*
X179610000Y-116337500D01*
X179610000Y-117137500D02*
X179610000Y-117937500D01*
X176540000Y-118437500D02*
X176210000Y-118677500D01*
X176210000Y-118197500D01*
X176540000Y-118437500D01*
G36*
X176540000Y-118437500D02*
G01*
X176210000Y-118677500D01*
X176210000Y-118197500D01*
X176540000Y-118437500D01*
G37*
%TO.C,D4*%
X184475000Y-84485000D02*
X186760000Y-84485000D01*
X186760000Y-83015000D02*
X184475000Y-83015000D01*
X186760000Y-84485000D02*
X186760000Y-83015000D01*
%TO.C,C14*%
X174490000Y-117365580D02*
X174490000Y-117084420D01*
X175510000Y-117365580D02*
X175510000Y-117084420D01*
%TO.C,C15*%
X169788748Y-120790000D02*
X171211252Y-120790000D01*
X169788748Y-122610000D02*
X171211252Y-122610000D01*
%TO.C,J1*%
X185112500Y-116600000D02*
X185712500Y-116900000D01*
X185112500Y-117200000D02*
X185112500Y-116600000D01*
X185112500Y-117200000D02*
X185712500Y-116900000D01*
X185912500Y-109690000D02*
X200532500Y-109690000D01*
X185912500Y-118310000D02*
X185912500Y-109690000D01*
X199032500Y-113950000D02*
X199032500Y-111950000D01*
X199032500Y-117450000D02*
X199032500Y-115450000D01*
X200532500Y-109690000D02*
X200532500Y-118310000D01*
X200532500Y-111700000D02*
X199032500Y-111950000D01*
X200532500Y-114200000D02*
X199032500Y-113950000D01*
X200532500Y-115200000D02*
X199032500Y-115450000D01*
X200532500Y-117700000D02*
X199032500Y-117450000D01*
X200532500Y-118310000D02*
X185912500Y-118310000D01*
%TO.C,C7*%
X165640000Y-94627836D02*
X165640000Y-94412164D01*
X166360000Y-94627836D02*
X166360000Y-94412164D01*
%TO.C,R8*%
X184477500Y-120587742D02*
X184477500Y-121062258D01*
X185522500Y-120587742D02*
X185522500Y-121062258D01*
%TO.C,C10*%
X151640000Y-102627836D02*
X151640000Y-102412164D01*
X152360000Y-102627836D02*
X152360000Y-102412164D01*
%TO.C,Q1*%
X181490000Y-113062500D02*
X181490000Y-112412500D01*
X181490000Y-113062500D02*
X181490000Y-113712500D01*
X184610000Y-113062500D02*
X184610000Y-112412500D01*
X184610000Y-113062500D02*
X184610000Y-113712500D01*
X184890000Y-112140000D02*
X184560000Y-111900000D01*
X184890000Y-111660000D01*
X184890000Y-112140000D01*
G36*
X184890000Y-112140000D02*
G01*
X184560000Y-111900000D01*
X184890000Y-111660000D01*
X184890000Y-112140000D01*
G37*
%TO.C,C4*%
X151640000Y-95627836D02*
X151640000Y-95412164D01*
X152360000Y-95627836D02*
X152360000Y-95412164D01*
%TO.C,U1*%
X154890000Y-94890000D02*
X154890000Y-95840000D01*
X154890000Y-105110000D02*
X154890000Y-104160000D01*
X155840000Y-94890000D02*
X154890000Y-94890000D01*
X155840000Y-105110000D02*
X154890000Y-105110000D01*
X164160000Y-94890000D02*
X165110000Y-94890000D01*
X164160000Y-105110000D02*
X165110000Y-105110000D01*
X165110000Y-94890000D02*
X165110000Y-95840000D01*
X165110000Y-105110000D02*
X165110000Y-104160000D01*
X154275000Y-95840000D02*
X153935000Y-95370000D01*
X154615000Y-95370000D01*
X154275000Y-95840000D01*
G36*
X154275000Y-95840000D02*
G01*
X153935000Y-95370000D01*
X154615000Y-95370000D01*
X154275000Y-95840000D01*
G37*
%TO.C,R4*%
X180477500Y-116762742D02*
X180477500Y-117237258D01*
X181522500Y-116762742D02*
X181522500Y-117237258D01*
%TO.C,R2*%
X151663641Y-98620000D02*
X151356359Y-98620000D01*
X151663641Y-99380000D02*
X151356359Y-99380000D01*
%TO.C,L2*%
X167615000Y-113990000D02*
X167615000Y-119910000D01*
X167615000Y-113990000D02*
X168965000Y-113990000D01*
X167615000Y-119910000D02*
X168965000Y-119910000D01*
X173335000Y-113990000D02*
X171985000Y-113990000D01*
X173335000Y-113990000D02*
X173335000Y-119910000D01*
X173335000Y-119910000D02*
X171985000Y-119910000D01*
%TO.C,C2*%
X164859420Y-107490000D02*
X165140580Y-107490000D01*
X164859420Y-108510000D02*
X165140580Y-108510000D01*
%TO.C,J4*%
X156515000Y-119840000D02*
X156515000Y-125560000D01*
X156515000Y-125560000D02*
X160000000Y-125560000D01*
X157585000Y-119840000D02*
X156515000Y-119840000D01*
X157585000Y-120140000D02*
X157585000Y-119840000D01*
X157875000Y-119550000D02*
X157375000Y-119550000D01*
X157875000Y-119850000D02*
X157875000Y-119550000D01*
X160000000Y-120140000D02*
X157585000Y-120140000D01*
X160000000Y-120140000D02*
X162415000Y-120140000D01*
X162415000Y-119840000D02*
X163485000Y-119840000D01*
X162415000Y-120140000D02*
X162415000Y-119840000D01*
X163485000Y-119840000D02*
X163485000Y-125560000D01*
X163485000Y-125560000D02*
X160000000Y-125560000D01*
%TO.C,J6*%
X168325000Y-82795000D02*
X168325000Y-83617470D01*
X168325000Y-84232530D02*
X168325000Y-84887470D01*
X168325000Y-85502530D02*
X168325000Y-86325000D01*
X173340000Y-82795000D02*
X168325000Y-82795000D01*
X173340000Y-82795000D02*
X173340000Y-83361529D01*
X173340000Y-84488471D02*
X173340000Y-84631529D01*
X173393471Y-84685000D02*
X173536529Y-84685000D01*
X174100000Y-82795000D02*
X174860000Y-82795000D01*
X174663471Y-84685000D02*
X174795000Y-84685000D01*
X174795000Y-84685000D02*
X174795000Y-84887470D01*
X174795000Y-85502530D02*
X174795000Y-86325000D01*
X174795000Y-86325000D02*
X168325000Y-86325000D01*
X174860000Y-82795000D02*
X174860000Y-83925000D01*
%TO.C,C5*%
X157627836Y-107640000D02*
X157412164Y-107640000D01*
X157627836Y-108360000D02*
X157412164Y-108360000D01*
%TO.C,J5*%
X195390000Y-96800000D02*
X195390000Y-97460000D01*
X195590000Y-91440000D02*
X199950000Y-91440000D01*
X195590000Y-93940000D02*
X195590000Y-91440000D01*
X195590000Y-97460000D02*
X195390000Y-97460000D01*
X195590000Y-99960000D02*
X195590000Y-97460000D01*
X195590000Y-99960000D02*
X199950000Y-99960000D01*
%TO.C,R9*%
X161663641Y-89620000D02*
X161356359Y-89620000D01*
X161663641Y-90380000D02*
X161356359Y-90380000D01*
%TO.C,R1*%
X149356359Y-90620000D02*
X149663641Y-90620000D01*
X149356359Y-91380000D02*
X149663641Y-91380000D01*
%TO.C,R6*%
X180477500Y-120362258D02*
X180477500Y-119887742D01*
X181522500Y-120362258D02*
X181522500Y-119887742D01*
%TO.C,U3*%
X190862500Y-94390000D02*
X190062500Y-94390000D01*
X190862500Y-94390000D02*
X191662500Y-94390000D01*
X190862500Y-97510000D02*
X190062500Y-97510000D01*
X190862500Y-97510000D02*
X191662500Y-97510000D01*
X192402500Y-97790000D02*
X191922500Y-97790000D01*
X192162500Y-97460000D01*
X192402500Y-97790000D01*
G36*
X192402500Y-97790000D02*
G01*
X191922500Y-97790000D01*
X192162500Y-97460000D01*
X192402500Y-97790000D01*
G37*
%TO.C,C1*%
X167490000Y-95140580D02*
X167490000Y-94859420D01*
X168510000Y-95140580D02*
X168510000Y-94859420D01*
%TO.C,C8*%
X156412164Y-91640000D02*
X156627836Y-91640000D01*
X156412164Y-92360000D02*
X156627836Y-92360000D01*
%TO.C,R10*%
X158356359Y-89620000D02*
X158663641Y-89620000D01*
X158356359Y-90380000D02*
X158663641Y-90380000D01*
%TO.C,C16*%
X169788748Y-123290000D02*
X171211252Y-123290000D01*
X169788748Y-125110000D02*
X171211252Y-125110000D01*
%TO.C,C11*%
X148627836Y-101640000D02*
X148412164Y-101640000D01*
X148627836Y-102360000D02*
X148412164Y-102360000D01*
%TO.C,D2*%
X168115000Y-111000000D02*
X168115000Y-113000000D01*
X168115000Y-111000000D02*
X172125000Y-111000000D01*
X168115000Y-113000000D02*
X172125000Y-113000000D01*
%TO.C,C13*%
X174813748Y-111090000D02*
X176236252Y-111090000D01*
X174813748Y-112910000D02*
X176236252Y-112910000D01*
%TO.C,R11*%
X185512258Y-85227500D02*
X185037742Y-85227500D01*
X185512258Y-86272500D02*
X185037742Y-86272500D01*
%TO.C,J3*%
X156390000Y-78440000D02*
X159875000Y-78440000D01*
X156390000Y-84160000D02*
X156390000Y-78440000D01*
X157460000Y-83860000D02*
X157460000Y-84160000D01*
X157460000Y-84160000D02*
X156390000Y-84160000D01*
X159875000Y-83860000D02*
X157460000Y-83860000D01*
X159875000Y-83860000D02*
X162290000Y-83860000D01*
X162000000Y-84150000D02*
X162000000Y-84450000D01*
X162000000Y-84450000D02*
X162500000Y-84450000D01*
X162290000Y-83860000D02*
X162290000Y-84160000D01*
X162290000Y-84160000D02*
X163360000Y-84160000D01*
X163360000Y-78440000D02*
X159875000Y-78440000D01*
X163360000Y-84160000D02*
X163360000Y-78440000D01*
%TD*%
M02*
