%TF.GenerationSoftware,KiCad,Pcbnew,8.0.3*%
%TF.CreationDate,2024-07-29T11:00:05+05:30*%
%TF.ProjectId,SSTM32_REV2,5353544d-3332-45f5-9245-56322e6b6963,rev?*%
%TF.SameCoordinates,Original*%
%TF.FileFunction,Copper,L1,Top*%
%TF.FilePolarity,Positive*%
%FSLAX46Y46*%
G04 Gerber Fmt 4.6, Leading zero omitted, Abs format (unit mm)*
G04 Created by KiCad (PCBNEW 8.0.3) date 2024-07-29 11:00:05*
%MOMM*%
%LPD*%
G01*
G04 APERTURE LIST*
G04 Aperture macros list*
%AMRoundRect*
0 Rectangle with rounded corners*
0 $1 Rounding radius*
0 $2 $3 $4 $5 $6 $7 $8 $9 X,Y pos of 4 corners*
0 Add a 4 corners polygon primitive as box body*
4,1,4,$2,$3,$4,$5,$6,$7,$8,$9,$2,$3,0*
0 Add four circle primitives for the rounded corners*
1,1,$1+$1,$2,$3*
1,1,$1+$1,$4,$5*
1,1,$1+$1,$6,$7*
1,1,$1+$1,$8,$9*
0 Add four rect primitives between the rounded corners*
20,1,$1+$1,$2,$3,$4,$5,0*
20,1,$1+$1,$4,$5,$6,$7,0*
20,1,$1+$1,$6,$7,$8,$9,0*
20,1,$1+$1,$8,$9,$2,$3,0*%
G04 Aperture macros list end*
%TA.AperFunction,SMDPad,CuDef*%
%ADD10RoundRect,0.140000X0.170000X-0.140000X0.170000X0.140000X-0.170000X0.140000X-0.170000X-0.140000X0*%
%TD*%
%TA.AperFunction,SMDPad,CuDef*%
%ADD11RoundRect,0.140000X-0.140000X-0.170000X0.140000X-0.170000X0.140000X0.170000X-0.140000X0.170000X0*%
%TD*%
%TA.AperFunction,SMDPad,CuDef*%
%ADD12RoundRect,0.225000X0.225000X0.250000X-0.225000X0.250000X-0.225000X-0.250000X0.225000X-0.250000X0*%
%TD*%
%TA.AperFunction,SMDPad,CuDef*%
%ADD13RoundRect,0.135000X-0.185000X0.135000X-0.185000X-0.135000X0.185000X-0.135000X0.185000X0.135000X0*%
%TD*%
%TA.AperFunction,SMDPad,CuDef*%
%ADD14R,1.200000X1.400000*%
%TD*%
%TA.AperFunction,SMDPad,CuDef*%
%ADD15RoundRect,0.218750X-0.381250X0.218750X-0.381250X-0.218750X0.381250X-0.218750X0.381250X0.218750X0*%
%TD*%
%TA.AperFunction,SMDPad,CuDef*%
%ADD16RoundRect,0.250000X-0.375000X-0.625000X0.375000X-0.625000X0.375000X0.625000X-0.375000X0.625000X0*%
%TD*%
%TA.AperFunction,SMDPad,CuDef*%
%ADD17R,0.800000X1.000000*%
%TD*%
%TA.AperFunction,SMDPad,CuDef*%
%ADD18R,1.500000X0.700000*%
%TD*%
%TA.AperFunction,SMDPad,CuDef*%
%ADD19RoundRect,0.200000X0.275000X-0.200000X0.275000X0.200000X-0.275000X0.200000X-0.275000X-0.200000X0*%
%TD*%
%TA.AperFunction,SMDPad,CuDef*%
%ADD20RoundRect,0.135000X0.185000X-0.135000X0.185000X0.135000X-0.185000X0.135000X-0.185000X-0.135000X0*%
%TD*%
%TA.AperFunction,SMDPad,CuDef*%
%ADD21RoundRect,0.218750X0.256250X-0.218750X0.256250X0.218750X-0.256250X0.218750X-0.256250X-0.218750X0*%
%TD*%
%TA.AperFunction,SMDPad,CuDef*%
%ADD22R,1.500000X2.500000*%
%TD*%
%TA.AperFunction,SMDPad,CuDef*%
%ADD23RoundRect,0.225000X-0.225000X-0.375000X0.225000X-0.375000X0.225000X0.375000X-0.225000X0.375000X0*%
%TD*%
%TA.AperFunction,SMDPad,CuDef*%
%ADD24RoundRect,0.150000X0.150000X-0.512500X0.150000X0.512500X-0.150000X0.512500X-0.150000X-0.512500X0*%
%TD*%
%TA.AperFunction,SMDPad,CuDef*%
%ADD25RoundRect,0.218750X0.218750X0.256250X-0.218750X0.256250X-0.218750X-0.256250X0.218750X-0.256250X0*%
%TD*%
%TA.AperFunction,SMDPad,CuDef*%
%ADD26RoundRect,0.225000X0.250000X-0.225000X0.250000X0.225000X-0.250000X0.225000X-0.250000X-0.225000X0*%
%TD*%
%TA.AperFunction,SMDPad,CuDef*%
%ADD27RoundRect,0.250000X-0.325000X-0.650000X0.325000X-0.650000X0.325000X0.650000X-0.325000X0.650000X0*%
%TD*%
%TA.AperFunction,ComponentPad*%
%ADD28RoundRect,0.250000X1.400000X-0.650000X1.400000X0.650000X-1.400000X0.650000X-1.400000X-0.650000X0*%
%TD*%
%TA.AperFunction,ComponentPad*%
%ADD29O,3.300000X1.800000*%
%TD*%
%TA.AperFunction,SMDPad,CuDef*%
%ADD30RoundRect,0.200000X-0.275000X0.200000X-0.275000X-0.200000X0.275000X-0.200000X0.275000X0.200000X0*%
%TD*%
%TA.AperFunction,ComponentPad*%
%ADD31C,3.800000*%
%TD*%
%TA.AperFunction,SMDPad,CuDef*%
%ADD32RoundRect,0.150000X-0.150000X0.587500X-0.150000X-0.587500X0.150000X-0.587500X0.150000X0.587500X0*%
%TD*%
%TA.AperFunction,SMDPad,CuDef*%
%ADD33RoundRect,0.075000X-0.700000X-0.075000X0.700000X-0.075000X0.700000X0.075000X-0.700000X0.075000X0*%
%TD*%
%TA.AperFunction,SMDPad,CuDef*%
%ADD34RoundRect,0.075000X-0.075000X-0.700000X0.075000X-0.700000X0.075000X0.700000X-0.075000X0.700000X0*%
%TD*%
%TA.AperFunction,SMDPad,CuDef*%
%ADD35RoundRect,0.135000X0.135000X0.185000X-0.135000X0.185000X-0.135000X-0.185000X0.135000X-0.185000X0*%
%TD*%
%TA.AperFunction,SMDPad,CuDef*%
%ADD36R,2.500000X1.900000*%
%TD*%
%TA.AperFunction,SMDPad,CuDef*%
%ADD37RoundRect,0.225000X-0.225000X-0.250000X0.225000X-0.250000X0.225000X0.250000X-0.225000X0.250000X0*%
%TD*%
%TA.AperFunction,ComponentPad*%
%ADD38RoundRect,0.200000X-0.200000X-0.450000X0.200000X-0.450000X0.200000X0.450000X-0.200000X0.450000X0*%
%TD*%
%TA.AperFunction,ComponentPad*%
%ADD39O,0.800000X1.300000*%
%TD*%
%TA.AperFunction,ComponentPad*%
%ADD40R,1.000000X1.000000*%
%TD*%
%TA.AperFunction,ComponentPad*%
%ADD41O,1.000000X1.000000*%
%TD*%
%TA.AperFunction,SMDPad,CuDef*%
%ADD42RoundRect,0.140000X0.140000X0.170000X-0.140000X0.170000X-0.140000X-0.170000X0.140000X-0.170000X0*%
%TD*%
%TA.AperFunction,SMDPad,CuDef*%
%ADD43RoundRect,0.100000X0.575000X-0.100000X0.575000X0.100000X-0.575000X0.100000X-0.575000X-0.100000X0*%
%TD*%
%TA.AperFunction,ComponentPad*%
%ADD44O,1.600000X0.900000*%
%TD*%
%TA.AperFunction,SMDPad,CuDef*%
%ADD45RoundRect,0.250000X0.450000X-0.550000X0.450000X0.550000X-0.450000X0.550000X-0.450000X-0.550000X0*%
%TD*%
%TA.AperFunction,SMDPad,CuDef*%
%ADD46RoundRect,0.250000X0.700000X-0.700000X0.700000X0.700000X-0.700000X0.700000X-0.700000X-0.700000X0*%
%TD*%
%TA.AperFunction,SMDPad,CuDef*%
%ADD47RoundRect,0.135000X-0.135000X-0.185000X0.135000X-0.185000X0.135000X0.185000X-0.135000X0.185000X0*%
%TD*%
%TA.AperFunction,SMDPad,CuDef*%
%ADD48RoundRect,0.150000X0.512500X0.150000X-0.512500X0.150000X-0.512500X-0.150000X0.512500X-0.150000X0*%
%TD*%
%TA.AperFunction,SMDPad,CuDef*%
%ADD49RoundRect,0.200000X0.200000X0.275000X-0.200000X0.275000X-0.200000X-0.275000X0.200000X-0.275000X0*%
%TD*%
%TA.AperFunction,ComponentPad*%
%ADD50RoundRect,0.200000X0.200000X0.450000X-0.200000X0.450000X-0.200000X-0.450000X0.200000X-0.450000X0*%
%TD*%
%TA.AperFunction,ViaPad*%
%ADD51C,0.800000*%
%TD*%
%TA.AperFunction,ViaPad*%
%ADD52C,0.600000*%
%TD*%
%TA.AperFunction,Conductor*%
%ADD53C,0.300000*%
%TD*%
%TA.AperFunction,Conductor*%
%ADD54C,0.500000*%
%TD*%
%TA.AperFunction,Conductor*%
%ADD55C,0.750000*%
%TD*%
%TA.AperFunction,Conductor*%
%ADD56C,1.000000*%
%TD*%
%TA.AperFunction,Conductor*%
%ADD57C,0.261112*%
%TD*%
G04 APERTURE END LIST*
D10*
%TO.P,C9,1*%
%TO.N,+3.3VA*%
X151000000Y-103000000D03*
%TO.P,C9,2*%
%TO.N,GND*%
X151000000Y-102040000D03*
%TD*%
D11*
%TO.P,C12,1*%
%TO.N,HSE_IN*%
X148040000Y-96000000D03*
%TO.P,C12,2*%
%TO.N,GND*%
X149000000Y-96000000D03*
%TD*%
D12*
%TO.P,C3,1*%
%TO.N,+3.3V*%
X154550000Y-93000000D03*
%TO.P,C3,2*%
%TO.N,GND*%
X153000000Y-93000000D03*
%TD*%
D13*
%TO.P,R7,1*%
%TO.N,BUCK_FB*%
X182850000Y-119350000D03*
%TO.P,R7,2*%
%TO.N,Net-(R7-Pad2)*%
X182850000Y-120370000D03*
%TD*%
D11*
%TO.P,C6,1*%
%TO.N,+3.3V*%
X165520000Y-106000000D03*
%TO.P,C6,2*%
%TO.N,GND*%
X166480000Y-106000000D03*
%TD*%
D14*
%TO.P,Y1,1,1*%
%TO.N,HSE_IN*%
X147300000Y-97800000D03*
%TO.P,Y1,2,2*%
%TO.N,GND*%
X147300000Y-100000000D03*
%TO.P,Y1,3,3*%
%TO.N,Net-(C11-Pad1)*%
X149000000Y-100000000D03*
%TO.P,Y1,4,4*%
%TO.N,GND*%
X149000000Y-97800000D03*
%TD*%
D15*
%TO.P,FB1,1*%
%TO.N,Net-(F1-Pad1)*%
X178000000Y-106937500D03*
%TO.P,FB1,2*%
%TO.N,BUCK_IN*%
X178000000Y-109062500D03*
%TD*%
D16*
%TO.P,F1,1*%
%TO.N,Net-(F1-Pad1)*%
X181200000Y-106000000D03*
%TO.P,F1,2*%
%TO.N,Net-(D3-K)*%
X184000000Y-106000000D03*
%TD*%
D17*
%TO.P,SW1,*%
%TO.N,*%
X146350000Y-86600000D03*
X144140000Y-86600000D03*
X146350000Y-93900000D03*
X144140000Y-93900000D03*
D18*
%TO.P,SW1,1,A*%
%TO.N,+3.3V*%
X147000000Y-88000000D03*
%TO.P,SW1,2,B*%
%TO.N,Net-(SW1-B)*%
X147000000Y-91000000D03*
%TO.P,SW1,3,C*%
%TO.N,GND*%
X147000000Y-92500000D03*
%TD*%
D19*
%TO.P,R5,1*%
%TO.N,BUCK_EN*%
X183000000Y-117825000D03*
%TO.P,R5,2*%
%TO.N,GND*%
X183000000Y-116175000D03*
%TD*%
D20*
%TO.P,R3,1*%
%TO.N,Net-(D1-K)*%
X152100000Y-108220000D03*
%TO.P,R3,2*%
%TO.N,GND*%
X152100000Y-107200000D03*
%TD*%
D21*
%TO.P,D1,1,K*%
%TO.N,Net-(D1-K)*%
X154000000Y-109000000D03*
%TO.P,D1,2,A*%
%TO.N,LED_STATUS*%
X154000000Y-107425000D03*
%TD*%
D22*
%TO.P,L1,1*%
%TO.N,+3.3V*%
X145150000Y-106000000D03*
%TO.P,L1,2*%
%TO.N,+3.3VA*%
X148850000Y-106000000D03*
%TD*%
D23*
%TO.P,D3,1,K*%
%TO.N,Net-(D3-K)*%
X186350000Y-106000000D03*
%TO.P,D3,2,A*%
%TO.N,+5V*%
X189650000Y-106000000D03*
%TD*%
D24*
%TO.P,IC1,1,BST*%
%TO.N,BUCK_BST*%
X177100000Y-118275000D03*
%TO.P,IC1,2,GND*%
%TO.N,GND*%
X178050000Y-118275000D03*
%TO.P,IC1,3,FB*%
%TO.N,BUCK_FB*%
X179000000Y-118275000D03*
%TO.P,IC1,4,EN*%
%TO.N,BUCK_EN*%
X179000000Y-116000000D03*
%TO.P,IC1,5,IN*%
%TO.N,BUCK_IN*%
X178050000Y-116000000D03*
%TO.P,IC1,6,SW*%
%TO.N,BUCK_SW*%
X177100000Y-116000000D03*
%TD*%
D25*
%TO.P,D4,1,K*%
%TO.N,Net-(D4-K)*%
X186062500Y-83750000D03*
%TO.P,D4,2,A*%
%TO.N,+3.3V*%
X184487500Y-83750000D03*
%TD*%
D26*
%TO.P,C14,1*%
%TO.N,BUCK_BST*%
X175000000Y-118000000D03*
%TO.P,C14,2*%
%TO.N,BUCK_SW*%
X175000000Y-116450000D03*
%TD*%
D27*
%TO.P,C15,1*%
%TO.N,+3.3V*%
X169025000Y-121700000D03*
%TO.P,C15,2*%
%TO.N,GND*%
X171975000Y-121700000D03*
%TD*%
D28*
%TO.P,J1,1,Pin_1*%
%TO.N,+12V*%
X188552500Y-116900000D03*
X196752500Y-116900000D03*
D29*
%TO.P,J1,2,Pin_2*%
%TO.N,GND*%
X188552500Y-113400000D03*
X196752500Y-113400000D03*
%TD*%
D10*
%TO.P,C7,1*%
%TO.N,+3.3V*%
X166000000Y-95000000D03*
%TO.P,C7,2*%
%TO.N,GND*%
X166000000Y-94040000D03*
%TD*%
D30*
%TO.P,R8,1*%
%TO.N,Net-(R7-Pad2)*%
X185000000Y-120000000D03*
%TO.P,R8,2*%
%TO.N,GND*%
X185000000Y-121650000D03*
%TD*%
D31*
%TO.P,H2,1,1*%
%TO.N,GND*%
X198000000Y-123000000D03*
%TD*%
D10*
%TO.P,C10,1*%
%TO.N,+3.3VA*%
X152000000Y-103000000D03*
%TO.P,C10,2*%
%TO.N,GND*%
X152000000Y-102040000D03*
%TD*%
D32*
%TO.P,Q1,1,G*%
%TO.N,GND*%
X184000000Y-112125000D03*
%TO.P,Q1,2,S*%
%TO.N,Net-(D3-K)*%
X182100000Y-112125000D03*
%TO.P,Q1,3,D*%
%TO.N,+12V*%
X183050000Y-114000000D03*
%TD*%
D10*
%TO.P,C4,1*%
%TO.N,+3.3V*%
X152000000Y-96000000D03*
%TO.P,C4,2*%
%TO.N,GND*%
X152000000Y-95040000D03*
%TD*%
D33*
%TO.P,U1,1,VBAT*%
%TO.N,+3.3V*%
X154325000Y-96250000D03*
%TO.P,U1,2,PC13*%
%TO.N,unconnected-(U1-PC13-Pad2)*%
X154325000Y-96750000D03*
%TO.P,U1,3,PC14*%
%TO.N,unconnected-(U1-PC14-Pad3)*%
X154325000Y-97250000D03*
%TO.P,U1,4,PC15*%
%TO.N,unconnected-(U1-PC15-Pad4)*%
X154325000Y-97750000D03*
%TO.P,U1,5,PH0*%
%TO.N,HSE_IN*%
X154325000Y-98250000D03*
%TO.P,U1,6,PH1*%
%TO.N,HSE_OUT*%
X154325000Y-98750000D03*
%TO.P,U1,7,NRST*%
%TO.N,NRST*%
X154325000Y-99250000D03*
%TO.P,U1,8,PC0*%
%TO.N,unconnected-(U1-PC0-Pad8)*%
X154325000Y-99750000D03*
%TO.P,U1,9,PC1*%
%TO.N,unconnected-(U1-PC1-Pad9)*%
X154325000Y-100250000D03*
%TO.P,U1,10,PC2*%
%TO.N,unconnected-(U1-PC2-Pad10)*%
X154325000Y-100750000D03*
%TO.P,U1,11,PC3*%
%TO.N,unconnected-(U1-PC3-Pad11)*%
X154325000Y-101250000D03*
%TO.P,U1,12,VSSA*%
%TO.N,GND*%
X154325000Y-101750000D03*
%TO.P,U1,13,VDDA*%
%TO.N,+3.3VA*%
X154325000Y-102250000D03*
%TO.P,U1,14,PA0*%
%TO.N,unconnected-(U1-PA0-Pad14)*%
X154325000Y-102750000D03*
%TO.P,U1,15,PA1*%
%TO.N,unconnected-(U1-PA1-Pad15)*%
X154325000Y-103250000D03*
%TO.P,U1,16,PA2*%
%TO.N,LED_STATUS*%
X154325000Y-103750000D03*
D34*
%TO.P,U1,17,PA3*%
%TO.N,unconnected-(U1-PA3-Pad17)*%
X156250000Y-105675000D03*
%TO.P,U1,18,VSS*%
%TO.N,GND*%
X156750000Y-105675000D03*
%TO.P,U1,19,VDD*%
%TO.N,+3.3V*%
X157250000Y-105675000D03*
%TO.P,U1,20,PA4*%
%TO.N,unconnected-(U1-PA4-Pad20)*%
X157750000Y-105675000D03*
%TO.P,U1,21,PA5*%
%TO.N,unconnected-(U1-PA5-Pad21)*%
X158250000Y-105675000D03*
%TO.P,U1,22,PA6*%
%TO.N,unconnected-(U1-PA6-Pad22)*%
X158750000Y-105675000D03*
%TO.P,U1,23,PA7*%
%TO.N,unconnected-(U1-PA7-Pad23)*%
X159250000Y-105675000D03*
%TO.P,U1,24,PC4*%
%TO.N,unconnected-(U1-PC4-Pad24)*%
X159750000Y-105675000D03*
%TO.P,U1,25,PC5*%
%TO.N,unconnected-(U1-PC5-Pad25)*%
X160250000Y-105675000D03*
%TO.P,U1,26,PB0*%
%TO.N,unconnected-(U1-PB0-Pad26)*%
X160750000Y-105675000D03*
%TO.P,U1,27,PB1*%
%TO.N,unconnected-(U1-PB1-Pad27)*%
X161250000Y-105675000D03*
%TO.P,U1,28,PB2*%
%TO.N,unconnected-(U1-PB2-Pad28)*%
X161750000Y-105675000D03*
%TO.P,U1,29,PB10*%
%TO.N,UART3_TX*%
X162250000Y-105675000D03*
%TO.P,U1,30,PB11*%
%TO.N,UART3_RX*%
X162750000Y-105675000D03*
%TO.P,U1,31,VCAP_1*%
%TO.N,Net-(U1-VCAP_1)*%
X163250000Y-105675000D03*
%TO.P,U1,32,VDD*%
%TO.N,+3.3V*%
X163750000Y-105675000D03*
D33*
%TO.P,U1,33,PB12*%
%TO.N,unconnected-(U1-PB12-Pad33)*%
X165675000Y-103750000D03*
%TO.P,U1,34,PB13*%
%TO.N,unconnected-(U1-PB13-Pad34)*%
X165675000Y-103250000D03*
%TO.P,U1,35,PB14*%
%TO.N,unconnected-(U1-PB14-Pad35)*%
X165675000Y-102750000D03*
%TO.P,U1,36,PB15*%
%TO.N,unconnected-(U1-PB15-Pad36)*%
X165675000Y-102250000D03*
%TO.P,U1,37,PC6*%
%TO.N,unconnected-(U1-PC6-Pad37)*%
X165675000Y-101750000D03*
%TO.P,U1,38,PC7*%
%TO.N,unconnected-(U1-PC7-Pad38)*%
X165675000Y-101250000D03*
%TO.P,U1,39,PC8*%
%TO.N,unconnected-(U1-PC8-Pad39)*%
X165675000Y-100750000D03*
%TO.P,U1,40,PC9*%
%TO.N,unconnected-(U1-PC9-Pad40)*%
X165675000Y-100250000D03*
%TO.P,U1,41,PA8*%
%TO.N,unconnected-(U1-PA8-Pad41)*%
X165675000Y-99750000D03*
%TO.P,U1,42,PA9*%
%TO.N,unconnected-(U1-PA9-Pad42)*%
X165675000Y-99250000D03*
%TO.P,U1,43,PA10*%
%TO.N,unconnected-(U1-PA10-Pad43)*%
X165675000Y-98750000D03*
%TO.P,U1,44,PA11*%
%TO.N,USB_D-*%
X165675000Y-98250000D03*
%TO.P,U1,45,PA12*%
%TO.N,USB_D+*%
X165675000Y-97750000D03*
%TO.P,U1,46,PA13*%
%TO.N,SWDIO*%
X165675000Y-97250000D03*
%TO.P,U1,47,VCAP_2*%
%TO.N,Net-(U1-VCAP_2)*%
X165675000Y-96750000D03*
%TO.P,U1,48,VDD*%
%TO.N,+3.3V*%
X165675000Y-96250000D03*
D34*
%TO.P,U1,49,PA14*%
%TO.N,SWCLK*%
X163750000Y-94325000D03*
%TO.P,U1,50,PA15*%
%TO.N,unconnected-(U1-PA15-Pad50)*%
X163250000Y-94325000D03*
%TO.P,U1,51,PC10*%
%TO.N,unconnected-(U1-PC10-Pad51)*%
X162750000Y-94325000D03*
%TO.P,U1,52,PC11*%
%TO.N,unconnected-(U1-PC11-Pad52)*%
X162250000Y-94325000D03*
%TO.P,U1,53,PC12*%
%TO.N,unconnected-(U1-PC12-Pad53)*%
X161750000Y-94325000D03*
%TO.P,U1,54,PD2*%
%TO.N,unconnected-(U1-PD2-Pad54)*%
X161250000Y-94325000D03*
%TO.P,U1,55,PB3*%
%TO.N,SWO*%
X160750000Y-94325000D03*
%TO.P,U1,56,PB4*%
%TO.N,unconnected-(U1-PB4-Pad56)*%
X160250000Y-94325000D03*
%TO.P,U1,57,PB5*%
%TO.N,unconnected-(U1-PB5-Pad57)*%
X159750000Y-94325000D03*
%TO.P,U1,58,PB6*%
%TO.N,I2C1_SCL*%
X159250000Y-94325000D03*
%TO.P,U1,59,PB7*%
%TO.N,I2C1_SDA*%
X158750000Y-94325000D03*
%TO.P,U1,60,BOOT0*%
%TO.N,BOOT0*%
X158250000Y-94325000D03*
%TO.P,U1,61,PB8*%
%TO.N,unconnected-(U1-PB8-Pad61)*%
X157750000Y-94325000D03*
%TO.P,U1,62,PB9*%
%TO.N,unconnected-(U1-PB9-Pad62)*%
X157250000Y-94325000D03*
%TO.P,U1,63,VSS*%
%TO.N,GND*%
X156750000Y-94325000D03*
%TO.P,U1,64,VDD*%
%TO.N,+3.3V*%
X156250000Y-94325000D03*
%TD*%
D30*
%TO.P,R4,1*%
%TO.N,BUCK_IN*%
X181000000Y-116175000D03*
%TO.P,R4,2*%
%TO.N,BUCK_EN*%
X181000000Y-117825000D03*
%TD*%
D35*
%TO.P,R2,1*%
%TO.N,HSE_OUT*%
X152020000Y-99000000D03*
%TO.P,R2,2*%
%TO.N,Net-(C11-Pad1)*%
X151000000Y-99000000D03*
%TD*%
D31*
%TO.P,H1,1,1*%
%TO.N,GND*%
X145000000Y-81000000D03*
%TD*%
%TO.P,H3,1,1*%
%TO.N,GND*%
X145000000Y-123000000D03*
%TD*%
D36*
%TO.P,L2,1*%
%TO.N,BUCK_SW*%
X170475000Y-114900000D03*
%TO.P,L2,2*%
%TO.N,+3.3V*%
X170475000Y-119000000D03*
%TD*%
D37*
%TO.P,C2,1*%
%TO.N,Net-(U1-VCAP_1)*%
X164225000Y-108000000D03*
%TO.P,C2,2*%
%TO.N,GND*%
X165775000Y-108000000D03*
%TD*%
D38*
%TO.P,J4,1,Pin_1*%
%TO.N,+3.3V*%
X158125000Y-121000000D03*
D39*
%TO.P,J4,2,Pin_2*%
%TO.N,UART3_TX*%
X159375000Y-121000000D03*
%TO.P,J4,3,Pin_3*%
%TO.N,UART3_RX*%
X160625000Y-121000000D03*
%TO.P,J4,4,Pin_4*%
%TO.N,GND*%
X161875000Y-121000000D03*
%TD*%
D40*
%TO.P,J6,1,Pin_1*%
%TO.N,+3.3V*%
X174100000Y-83925000D03*
D41*
%TO.P,J6,2,Pin_2*%
%TO.N,SWDIO*%
X174100000Y-85195000D03*
%TO.P,J6,3,Pin_3*%
%TO.N,GND*%
X172830000Y-83925000D03*
%TO.P,J6,4,Pin_4*%
%TO.N,SWCLK*%
X172830000Y-85195000D03*
%TO.P,J6,5,Pin_5*%
%TO.N,GND*%
X171560000Y-83925000D03*
%TO.P,J6,6,Pin_6*%
%TO.N,SWO*%
X171560000Y-85195000D03*
%TO.P,J6,7,Pin_7*%
%TO.N,unconnected-(J6-Pin_7-Pad7)*%
X170290000Y-83925000D03*
%TO.P,J6,8,Pin_8*%
%TO.N,unconnected-(J6-Pin_8-Pad8)*%
X170290000Y-85195000D03*
%TO.P,J6,9,Pin_9*%
%TO.N,GND*%
X169020000Y-83925000D03*
%TO.P,J6,10,Pin_10*%
%TO.N,NRST*%
X169020000Y-85195000D03*
%TD*%
D42*
%TO.P,C5,1*%
%TO.N,+3.3V*%
X158000000Y-108000000D03*
%TO.P,C5,2*%
%TO.N,GND*%
X157040000Y-108000000D03*
%TD*%
D43*
%TO.P,J5,1,VBUS*%
%TO.N,+5V*%
X196325000Y-97000000D03*
%TO.P,J5,2,D-*%
%TO.N,USB_CONN_D-*%
X196325000Y-96350000D03*
%TO.P,J5,3,D+*%
%TO.N,USB_CONN_D+*%
X196325000Y-95700000D03*
%TO.P,J5,4,ID*%
%TO.N,unconnected-(J5-ID-Pad4)*%
X196325000Y-95050000D03*
%TO.P,J5,5,GND*%
%TO.N,GND*%
X196325000Y-94400000D03*
D44*
%TO.P,J5,6,Shield*%
%TO.N,unconnected-(J5-Shield-Pad6)_1*%
X199000000Y-99000000D03*
D45*
%TO.N,unconnected-(J5-Shield-Pad6)_2*%
X196550000Y-98900000D03*
D46*
%TO.N,unconnected-(J5-Shield-Pad6)_0*%
X199000000Y-96900000D03*
%TO.N,unconnected-(J5-Shield-Pad6)_3*%
X199000000Y-94500000D03*
D45*
%TO.N,unconnected-(J5-Shield-Pad6)_4*%
X196550000Y-92500000D03*
D44*
%TO.N,unconnected-(J5-Shield-Pad6)*%
X199000000Y-92400000D03*
%TD*%
D35*
%TO.P,R9,1*%
%TO.N,+3.3V*%
X162020000Y-90000000D03*
%TO.P,R9,2*%
%TO.N,I2C1_SCL*%
X161000000Y-90000000D03*
%TD*%
D47*
%TO.P,R1,1*%
%TO.N,Net-(SW1-B)*%
X149000000Y-91000000D03*
%TO.P,R1,2*%
%TO.N,BOOT0*%
X150020000Y-91000000D03*
%TD*%
D31*
%TO.P,H4,1,1*%
%TO.N,GND*%
X198000000Y-81000000D03*
%TD*%
D19*
%TO.P,R6,1*%
%TO.N,+3.3V*%
X181000000Y-120950000D03*
%TO.P,R6,2*%
%TO.N,BUCK_FB*%
X181000000Y-119300000D03*
%TD*%
D48*
%TO.P,U3,1,I/O1*%
%TO.N,USB_CONN_D-*%
X192000000Y-96900000D03*
%TO.P,U3,2,GND*%
%TO.N,GND*%
X192000000Y-95950000D03*
%TO.P,U3,3,I/O2*%
%TO.N,USB_CONN_D+*%
X192000000Y-95000000D03*
%TO.P,U3,4,I/O2*%
%TO.N,USB_D+*%
X189725000Y-95000000D03*
%TO.P,U3,5,VBUS*%
%TO.N,+5V*%
X189725000Y-95950000D03*
%TO.P,U3,6,I/O1*%
%TO.N,USB_D-*%
X189725000Y-96900000D03*
%TD*%
D26*
%TO.P,C1,1*%
%TO.N,Net-(U1-VCAP_2)*%
X168000000Y-95775000D03*
%TO.P,C1,2*%
%TO.N,GND*%
X168000000Y-94225000D03*
%TD*%
D11*
%TO.P,C8,1*%
%TO.N,+3.3V*%
X156040000Y-92000000D03*
%TO.P,C8,2*%
%TO.N,GND*%
X157000000Y-92000000D03*
%TD*%
D47*
%TO.P,R10,1*%
%TO.N,+3.3V*%
X158000000Y-90000000D03*
%TO.P,R10,2*%
%TO.N,I2C1_SDA*%
X159020000Y-90000000D03*
%TD*%
D27*
%TO.P,C16,1*%
%TO.N,+3.3V*%
X169025000Y-124200000D03*
%TO.P,C16,2*%
%TO.N,GND*%
X171975000Y-124200000D03*
%TD*%
D42*
%TO.P,C11,1*%
%TO.N,Net-(C11-Pad1)*%
X149000000Y-102000000D03*
%TO.P,C11,2*%
%TO.N,GND*%
X148040000Y-102000000D03*
%TD*%
D23*
%TO.P,D2,1,K*%
%TO.N,BUCK_SW*%
X168825000Y-112000000D03*
%TO.P,D2,2,A*%
%TO.N,GND*%
X172125000Y-112000000D03*
%TD*%
D27*
%TO.P,C13,1*%
%TO.N,BUCK_IN*%
X174050000Y-112000000D03*
%TO.P,C13,2*%
%TO.N,GND*%
X177000000Y-112000000D03*
%TD*%
D49*
%TO.P,R11,1*%
%TO.N,Net-(D4-K)*%
X186100000Y-85750000D03*
%TO.P,R11,2*%
%TO.N,GND*%
X184450000Y-85750000D03*
%TD*%
D50*
%TO.P,J3,1,Pin_1*%
%TO.N,+3.3V*%
X161750000Y-83000000D03*
D39*
%TO.P,J3,2,Pin_2*%
%TO.N,I2C1_SCL*%
X160500000Y-83000000D03*
%TO.P,J3,3,Pin_3*%
%TO.N,I2C1_SDA*%
X159250000Y-83000000D03*
%TO.P,J3,4,Pin_4*%
%TO.N,GND*%
X158000000Y-83000000D03*
%TD*%
D51*
%TO.N,GND*%
X152100000Y-93000000D03*
X151000000Y-101300000D03*
X172900000Y-122000000D03*
X185000000Y-122500000D03*
X172850000Y-82900000D03*
X172900000Y-125000000D03*
X190900000Y-93800000D03*
X172300000Y-111000000D03*
X146300000Y-100100000D03*
X152000000Y-101300000D03*
X157600000Y-92000000D03*
X176100000Y-112000000D03*
X165800000Y-108900000D03*
X186000000Y-121800000D03*
X197100000Y-112100000D03*
X184000000Y-111000000D03*
X194000000Y-93000000D03*
X147500000Y-102600000D03*
X148100000Y-92500000D03*
X168975784Y-94188228D03*
X183800000Y-116500000D03*
X194000000Y-94200000D03*
X167200000Y-106000000D03*
X188700000Y-112100000D03*
X173000000Y-123900000D03*
X157000000Y-108800000D03*
X149000000Y-95200000D03*
X183575000Y-85750000D03*
X172895950Y-120871090D03*
X152000000Y-94300000D03*
X195000000Y-93000000D03*
X150000000Y-97800000D03*
X178080996Y-119290190D03*
X182400000Y-115600000D03*
X178100000Y-120200000D03*
X195200000Y-94200000D03*
X172100000Y-113000000D03*
X177900000Y-112000000D03*
X166800000Y-94100000D03*
X171600000Y-82900000D03*
X152100000Y-106500000D03*
X169050000Y-82900000D03*
X157600000Y-81900000D03*
%TO.N,+3.3V*%
X158000000Y-108800000D03*
X157200000Y-90000000D03*
X166800000Y-95100000D03*
X161800000Y-81900000D03*
X168700000Y-117900000D03*
X168000000Y-122000000D03*
X168000000Y-124500000D03*
X145200000Y-107700000D03*
X151200000Y-96100000D03*
X175200000Y-84050000D03*
X165600000Y-106800000D03*
X170100000Y-124500000D03*
X156000000Y-91200000D03*
X154600000Y-91900000D03*
X172300000Y-119000000D03*
X181000000Y-121800000D03*
X148200000Y-88000000D03*
X168700000Y-119000000D03*
X170000000Y-122000000D03*
X162800000Y-90000000D03*
X172200000Y-117800000D03*
X143900000Y-105900000D03*
X183575000Y-83750000D03*
X180000000Y-121000000D03*
D52*
%TO.N,NRST*%
X165000000Y-91000000D03*
X162000000Y-96000000D03*
%TD*%
D53*
%TO.N,Net-(U1-VCAP_2)*%
X167025000Y-96750000D02*
X168000000Y-95775000D01*
X165675000Y-96750000D02*
X167025000Y-96750000D01*
%TO.N,GND*%
X156750000Y-105675000D02*
X156750000Y-107710000D01*
D54*
X172895950Y-120871090D02*
X172803910Y-120871090D01*
D53*
X195400000Y-94400000D02*
X195200000Y-94200000D01*
X149000000Y-97800000D02*
X149000000Y-96000000D01*
D55*
X157600000Y-82600000D02*
X158000000Y-83000000D01*
X185300000Y-122500000D02*
X186000000Y-121800000D01*
D54*
X172275000Y-122000000D02*
X171975000Y-121700000D01*
D55*
X148040000Y-102060000D02*
X147500000Y-102600000D01*
D54*
X192000000Y-95950000D02*
X191337501Y-95950000D01*
D55*
X157600000Y-81900000D02*
X157600000Y-82600000D01*
X146400000Y-100000000D02*
X146300000Y-100100000D01*
D53*
X194000000Y-93000000D02*
X195000000Y-93000000D01*
X147300000Y-101260000D02*
X148040000Y-102000000D01*
D55*
X188700000Y-112100000D02*
X188700000Y-113252500D01*
X178050000Y-118275000D02*
X178050000Y-120150000D01*
D54*
X171560000Y-82940000D02*
X171600000Y-82900000D01*
X195200000Y-94200000D02*
X194000000Y-93000000D01*
X169020000Y-83925000D02*
X169020000Y-82930000D01*
D55*
X151000000Y-102040000D02*
X151000000Y-101300000D01*
D53*
X156750000Y-94325000D02*
X156750000Y-92250000D01*
D54*
X172830000Y-83925000D02*
X172830000Y-82920000D01*
D55*
X152000000Y-102040000D02*
X152000000Y-101300000D01*
D54*
X194000000Y-94200000D02*
X194000000Y-94000000D01*
D55*
X197100000Y-113052500D02*
X196752500Y-113400000D01*
X185000000Y-122500000D02*
X185300000Y-122500000D01*
X165775000Y-108000000D02*
X165775000Y-108875000D01*
D54*
X172830000Y-82920000D02*
X172850000Y-82900000D01*
X172900000Y-125000000D02*
X172475000Y-125000000D01*
X195000000Y-94000000D02*
X195200000Y-94200000D01*
D55*
X147000000Y-92500000D02*
X148100000Y-92500000D01*
D54*
X172895950Y-121995950D02*
X172900000Y-122000000D01*
D55*
X157000000Y-92000000D02*
X157600000Y-92000000D01*
X148040000Y-102000000D02*
X148040000Y-102060000D01*
D54*
X190837500Y-95449999D02*
X190837500Y-93862500D01*
X166800000Y-94100000D02*
X166060000Y-94100000D01*
D55*
X176100000Y-112000000D02*
X177900000Y-112000000D01*
X165775000Y-108875000D02*
X165800000Y-108900000D01*
X197100000Y-112100000D02*
X197100000Y-113052500D01*
D54*
X195000000Y-93000000D02*
X195000000Y-94000000D01*
D55*
X173000000Y-123900000D02*
X173000000Y-123950000D01*
D54*
X169020000Y-82930000D02*
X169050000Y-82900000D01*
D53*
X156750000Y-92250000D02*
X157000000Y-92000000D01*
D54*
X172895950Y-120871090D02*
X172895950Y-121995950D01*
X194000000Y-93000000D02*
X194000000Y-94200000D01*
X157040000Y-108000000D02*
X157040000Y-108760000D01*
X191337501Y-95950000D02*
X190837500Y-95449999D01*
D55*
X153000000Y-93000000D02*
X152100000Y-93000000D01*
D53*
X156750000Y-107710000D02*
X157040000Y-108000000D01*
D55*
X152100000Y-107200000D02*
X152100000Y-106500000D01*
D54*
X190837500Y-93862500D02*
X190900000Y-93800000D01*
D55*
X149000000Y-96000000D02*
X149000000Y-95200000D01*
X147300000Y-100000000D02*
X146400000Y-100000000D01*
X182900000Y-115600000D02*
X183800000Y-116500000D01*
D54*
X168975784Y-94188228D02*
X168036772Y-94188228D01*
X168036772Y-94188228D02*
X168000000Y-94225000D01*
D55*
X172300000Y-112800000D02*
X172100000Y-113000000D01*
X166480000Y-106000000D02*
X167200000Y-106000000D01*
X185000000Y-122500000D02*
X185000000Y-121650000D01*
X172300000Y-111000000D02*
X172300000Y-112800000D01*
D54*
X166060000Y-94100000D02*
X166000000Y-94040000D01*
D55*
X182400000Y-115600000D02*
X182900000Y-115600000D01*
D54*
X194000000Y-94000000D02*
X195000000Y-93000000D01*
D55*
X188700000Y-113252500D02*
X188552500Y-113400000D01*
D53*
X147300000Y-100000000D02*
X147300000Y-101260000D01*
X152290000Y-101750000D02*
X152000000Y-102040000D01*
D54*
X172475000Y-125000000D02*
X171975000Y-124500000D01*
D55*
X152000000Y-94300000D02*
X152000000Y-95040000D01*
D54*
X172803910Y-120871090D02*
X171975000Y-121700000D01*
D55*
X151000000Y-101300000D02*
X152000000Y-101300000D01*
X178050000Y-120150000D02*
X178100000Y-120200000D01*
D54*
X194000000Y-94200000D02*
X195200000Y-94200000D01*
X172575000Y-123900000D02*
X171975000Y-124500000D01*
X173000000Y-123900000D02*
X172575000Y-123900000D01*
X172900000Y-122000000D02*
X172275000Y-122000000D01*
X157040000Y-108760000D02*
X157000000Y-108800000D01*
X171560000Y-83925000D02*
X171560000Y-82940000D01*
D53*
X196325000Y-94400000D02*
X195400000Y-94400000D01*
D55*
X150000000Y-97800000D02*
X149000000Y-97800000D01*
D53*
X154325000Y-101750000D02*
X152290000Y-101750000D01*
D55*
X184000000Y-111000000D02*
X184000000Y-112125000D01*
X183575000Y-85750000D02*
X184450000Y-85750000D01*
X185150000Y-121800000D02*
X185000000Y-121650000D01*
X186000000Y-121800000D02*
X185150000Y-121800000D01*
D53*
%TO.N,Net-(U1-VCAP_1)*%
X163250000Y-107025000D02*
X164225000Y-108000000D01*
X163250000Y-105675000D02*
X163250000Y-107025000D01*
D55*
%TO.N,+3.3V*%
X172200000Y-117800000D02*
X172200000Y-118900000D01*
D54*
X154550000Y-93000000D02*
X154550000Y-91950000D01*
X168000000Y-124500000D02*
X170100000Y-124500000D01*
X156040000Y-91240000D02*
X156000000Y-91200000D01*
D53*
X163750000Y-105675000D02*
X165195000Y-105675000D01*
D54*
X155040000Y-93000000D02*
X156040000Y-92000000D01*
X181000000Y-121800000D02*
X180800000Y-121800000D01*
X174100000Y-83925000D02*
X175075000Y-83925000D01*
D55*
X161800000Y-82950000D02*
X161750000Y-83000000D01*
D56*
X170475000Y-119000000D02*
X169000000Y-120475000D01*
D54*
X156040000Y-92000000D02*
X156040000Y-91240000D01*
D53*
X152250000Y-96250000D02*
X152000000Y-96000000D01*
X157250000Y-105675000D02*
X157250000Y-107203154D01*
D54*
X152000000Y-96000000D02*
X151300000Y-96000000D01*
X154550000Y-93000000D02*
X155040000Y-93000000D01*
D53*
X165675000Y-95325000D02*
X166000000Y-95000000D01*
X158000000Y-107953154D02*
X158000000Y-108000000D01*
D54*
X151300000Y-96000000D02*
X151200000Y-96100000D01*
D55*
X171675000Y-117800000D02*
X170475000Y-119000000D01*
X161800000Y-81900000D02*
X161800000Y-82950000D01*
D54*
X145150000Y-106000000D02*
X145150000Y-107650000D01*
D56*
X169000000Y-120475000D02*
X169000000Y-122000000D01*
D53*
X165195000Y-105675000D02*
X165520000Y-106000000D01*
D55*
X168700000Y-117900000D02*
X169375000Y-117900000D01*
D54*
X158000000Y-108000000D02*
X158000000Y-108800000D01*
X180950000Y-121000000D02*
X181000000Y-120950000D01*
X154550000Y-91950000D02*
X154600000Y-91900000D01*
D53*
X154325000Y-96250000D02*
X152250000Y-96250000D01*
D54*
X175075000Y-83925000D02*
X175200000Y-84050000D01*
X147000000Y-88000000D02*
X148200000Y-88000000D01*
D55*
X172300000Y-119000000D02*
X170475000Y-119000000D01*
X168700000Y-119000000D02*
X168700000Y-117900000D01*
D53*
X156250000Y-92210000D02*
X156040000Y-92000000D01*
X165675000Y-96250000D02*
X165675000Y-95325000D01*
D54*
X181000000Y-120950000D02*
X181000000Y-121800000D01*
D55*
X169375000Y-117900000D02*
X170475000Y-119000000D01*
D54*
X166000000Y-95000000D02*
X166700000Y-95000000D01*
X184487500Y-83750000D02*
X183575000Y-83750000D01*
D56*
X169000000Y-122000000D02*
X169000000Y-125000000D01*
D54*
X145150000Y-107650000D02*
X145200000Y-107700000D01*
X165520000Y-106720000D02*
X165600000Y-106800000D01*
D55*
X168700000Y-119000000D02*
X170475000Y-119000000D01*
D53*
X157250000Y-107203154D02*
X158000000Y-107953154D01*
D55*
X172200000Y-117800000D02*
X171675000Y-117800000D01*
X172200000Y-118900000D02*
X172300000Y-119000000D01*
D54*
X158000000Y-90000000D02*
X157200000Y-90000000D01*
X145150000Y-106000000D02*
X144000000Y-106000000D01*
X144000000Y-106000000D02*
X143900000Y-105900000D01*
X180000000Y-121000000D02*
X180950000Y-121000000D01*
X165520000Y-106000000D02*
X165520000Y-106720000D01*
X166700000Y-95000000D02*
X166800000Y-95100000D01*
X162020000Y-90000000D02*
X162800000Y-90000000D01*
X180800000Y-121800000D02*
X180000000Y-121000000D01*
D53*
X156250000Y-94325000D02*
X156250000Y-92210000D01*
D54*
X168000000Y-122000000D02*
X170000000Y-122000000D01*
%TO.N,+3.3VA*%
X148850000Y-105150000D02*
X151000000Y-103000000D01*
D53*
X154325000Y-102250000D02*
X153446880Y-102250000D01*
D54*
X151000000Y-103000000D02*
X152000000Y-103000000D01*
X149000000Y-106000000D02*
X148850000Y-105150000D01*
D55*
X148950000Y-106100000D02*
X148850000Y-106000000D01*
D53*
X152696880Y-103000000D02*
X152000000Y-103000000D01*
X153446880Y-102250000D02*
X152696880Y-103000000D01*
D55*
X148600000Y-106250000D02*
X148850000Y-106000000D01*
D54*
X148850000Y-106000000D02*
X149000000Y-106000000D01*
D53*
%TO.N,Net-(C11-Pad1)*%
X149000000Y-100000000D02*
X149000000Y-102000000D01*
X150000000Y-100000000D02*
X149000000Y-100000000D01*
X151000000Y-99000000D02*
X150000000Y-100000000D01*
%TO.N,HSE_IN*%
X147300000Y-96740000D02*
X148040000Y-96000000D01*
X150720366Y-98250000D02*
X150120366Y-98850000D01*
X150120366Y-98850000D02*
X148250000Y-98850000D01*
X148250000Y-98850000D02*
X147300000Y-97900000D01*
X147300000Y-97900000D02*
X147300000Y-97800000D01*
X154325000Y-98250000D02*
X150720366Y-98250000D01*
X147300000Y-97800000D02*
X147300000Y-96740000D01*
D55*
%TO.N,BUCK_IN*%
X180000000Y-111062500D02*
X178000000Y-109062500D01*
X174050000Y-112000000D02*
X176987500Y-109062500D01*
X180000000Y-114000000D02*
X180000000Y-111062500D01*
X176791960Y-114000000D02*
X175000000Y-114000000D01*
X175000000Y-114000000D02*
X174050000Y-113050000D01*
X181000000Y-115000000D02*
X180000000Y-114000000D01*
X181000000Y-116175000D02*
X181000000Y-115000000D01*
X178050000Y-115258040D02*
X176791960Y-114000000D01*
X178050000Y-116000000D02*
X178050000Y-115258040D01*
X174050000Y-113050000D02*
X174050000Y-112000000D01*
X176987500Y-109062500D02*
X178000000Y-109062500D01*
%TO.N,BUCK_BST*%
X175000000Y-118000000D02*
X176825000Y-118000000D01*
X176825000Y-118000000D02*
X177100000Y-118275000D01*
%TO.N,BUCK_SW*%
X170475000Y-114900000D02*
X173450000Y-114900000D01*
X168825000Y-113250000D02*
X170475000Y-114900000D01*
X173450000Y-114900000D02*
X175000000Y-116450000D01*
X176650000Y-116450000D02*
X177100000Y-116000000D01*
X168825000Y-112000000D02*
X168825000Y-113250000D01*
X175000000Y-116450000D02*
X176650000Y-116450000D01*
D53*
%TO.N,LED_STATUS*%
X154325000Y-103750000D02*
X154000000Y-104075000D01*
X154000000Y-104075000D02*
X154000000Y-107425000D01*
%TO.N,Net-(D1-K)*%
X153220000Y-108220000D02*
X154000000Y-109000000D01*
X152100000Y-108220000D02*
X153220000Y-108220000D01*
D56*
%TO.N,+5V*%
X192999785Y-100099785D02*
X195849570Y-97250000D01*
D53*
X190387499Y-95950000D02*
X190900000Y-96462501D01*
X190900000Y-96462501D02*
X190900000Y-98000000D01*
X190900000Y-98000000D02*
X192999785Y-100099785D01*
D56*
X189650000Y-106000000D02*
X189650000Y-103449570D01*
D53*
X189725000Y-95950000D02*
X190387499Y-95950000D01*
D56*
X189650000Y-103449570D02*
X192999785Y-100099785D01*
X195849570Y-97250000D02*
X196325000Y-97250000D01*
D55*
%TO.N,Net-(D3-K)*%
X182000000Y-110000000D02*
X182100000Y-110100000D01*
X184000000Y-108000000D02*
X182000000Y-110000000D01*
X182100000Y-110100000D02*
X182100000Y-112125000D01*
X184000000Y-106000000D02*
X186350000Y-106000000D01*
X184000000Y-106000000D02*
X184000000Y-108000000D01*
%TO.N,Net-(D4-K)*%
X186062500Y-83750000D02*
X186062500Y-85712500D01*
X186062500Y-85712500D02*
X186100000Y-85750000D01*
D56*
%TO.N,+12V*%
X188552500Y-116900000D02*
X185950000Y-116900000D01*
X185950000Y-116900000D02*
X183050000Y-114000000D01*
D54*
%TO.N,BUCK_FB*%
X181000000Y-119300000D02*
X182800000Y-119300000D01*
X179275000Y-118275000D02*
X180300000Y-119300000D01*
D55*
X179000000Y-118275000D02*
X179275000Y-118275000D01*
D54*
X180300000Y-119300000D02*
X181000000Y-119300000D01*
X182800000Y-119300000D02*
X182850000Y-119350000D01*
D55*
%TO.N,BUCK_EN*%
X183000000Y-117825000D02*
X181000000Y-117825000D01*
X179000000Y-116000000D02*
X179175000Y-116000000D01*
X179175000Y-116000000D02*
X181000000Y-117825000D01*
D53*
%TO.N,I2C1_SDA*%
X159020000Y-90000000D02*
X158750000Y-90270000D01*
X158750000Y-94325000D02*
X158750000Y-90270000D01*
X159020000Y-83230000D02*
X159020000Y-90000000D01*
X159250000Y-83000000D02*
X159020000Y-83230000D01*
%TO.N,I2C1_SCL*%
X159250000Y-94325000D02*
X159250000Y-93446880D01*
X160500000Y-86500000D02*
X160500000Y-83000000D01*
X161000000Y-90000000D02*
X161000000Y-87000000D01*
X159250000Y-93446880D02*
X161000000Y-91696880D01*
X161000000Y-91696880D02*
X161000000Y-90000000D01*
X161000000Y-87000000D02*
X160500000Y-86500000D01*
%TO.N,UART3_TX*%
X162250000Y-106553120D02*
X159375000Y-109428120D01*
X159375000Y-109428120D02*
X159375000Y-121000000D01*
X162250000Y-105675000D02*
X162250000Y-106553120D01*
%TO.N,UART3_RX*%
X162750000Y-108250000D02*
X160625000Y-110375000D01*
X162750000Y-105675000D02*
X162750000Y-108250000D01*
X160625000Y-110375000D02*
X160625000Y-121000000D01*
%TO.N,USB_CONN_D-*%
X194948744Y-96948744D02*
X194900000Y-96900000D01*
X194900000Y-96900000D02*
X192000000Y-96900000D01*
X196325000Y-96350000D02*
X195547488Y-96350000D01*
X195547488Y-96350000D02*
X194948744Y-96948744D01*
%TO.N,USB_CONN_D+*%
X194950001Y-95000000D02*
X195650001Y-95700000D01*
X195650001Y-95700000D02*
X196325000Y-95700000D01*
X192000000Y-95000000D02*
X194950001Y-95000000D01*
%TO.N,SWO*%
X160750000Y-93446880D02*
X162196880Y-92000000D01*
X170250000Y-92000000D02*
X171560000Y-90690000D01*
X160750000Y-94325000D02*
X160750000Y-93446880D01*
X162196880Y-92000000D02*
X170250000Y-92000000D01*
X171560000Y-90690000D02*
X171560000Y-85195000D01*
%TO.N,SWCLK*%
X172830000Y-90930000D02*
X172830000Y-85195000D01*
X165075000Y-93000000D02*
X171950000Y-93000000D01*
X171950000Y-93000000D02*
X173300000Y-91650000D01*
X173300000Y-91400000D02*
X172830000Y-90930000D01*
X173300000Y-91650000D02*
X173300000Y-91400000D01*
X163750000Y-94325000D02*
X165075000Y-93000000D01*
%TO.N,NRST*%
X165000000Y-91000000D02*
X169020000Y-86980000D01*
X154325000Y-99250000D02*
X158750000Y-99250000D01*
X158750000Y-99250000D02*
X162000000Y-96000000D01*
X169020000Y-86980000D02*
X169020000Y-85195000D01*
%TO.N,SWDIO*%
X172650000Y-97250000D02*
X176100000Y-93800000D01*
X174100000Y-91800000D02*
X174100000Y-85195000D01*
X176100000Y-93800000D02*
X174100000Y-91800000D01*
X165675000Y-97250000D02*
X172650000Y-97250000D01*
D54*
%TO.N,Net-(SW1-B)*%
X149000000Y-91000000D02*
X147000000Y-91000000D01*
D53*
%TO.N,HSE_OUT*%
X152270000Y-98750000D02*
X152020000Y-99000000D01*
X154325000Y-98750000D02*
X152270000Y-98750000D01*
D54*
%TO.N,Net-(R7-Pad2)*%
X184630000Y-120370000D02*
X185000000Y-120000000D01*
X182850000Y-120370000D02*
X184630000Y-120370000D01*
D57*
%TO.N,USB_D-*%
X165675000Y-98250000D02*
X166837501Y-98250000D01*
X187149481Y-98232156D02*
X188481637Y-96900000D01*
X166855345Y-98232156D02*
X187149481Y-98232156D01*
X188481637Y-96900000D02*
X189725000Y-96900000D01*
X166837501Y-98250000D02*
X166855345Y-98232156D01*
%TO.N,USB_D+*%
X165675000Y-97750000D02*
X166837501Y-97750000D01*
X166855345Y-97767844D02*
X186560892Y-97767844D01*
X166837501Y-97750000D02*
X166855345Y-97767844D01*
X189405556Y-95319444D02*
X189725000Y-95000000D01*
X189009292Y-95319444D02*
X189405556Y-95319444D01*
X186560892Y-97767844D02*
X189009292Y-95319444D01*
D55*
%TO.N,Net-(F1-Pad1)*%
X178000000Y-106937500D02*
X180262500Y-106937500D01*
X180262500Y-106937500D02*
X181200000Y-106000000D01*
%TD*%
M02*
