%TF.GenerationSoftware,KiCad,Pcbnew,8.0.3*%
%TF.CreationDate,2024-07-29T11:00:05+05:30*%
%TF.ProjectId,SSTM32_REV2,5353544d-3332-45f5-9245-56322e6b6963,rev?*%
%TF.SameCoordinates,Original*%
%TF.FileFunction,Paste,Top*%
%TF.FilePolarity,Positive*%
%FSLAX46Y46*%
G04 Gerber Fmt 4.6, Leading zero omitted, Abs format (unit mm)*
G04 Created by KiCad (PCBNEW 8.0.3) date 2024-07-29 11:00:05*
%MOMM*%
%LPD*%
G01*
G04 APERTURE LIST*
G04 Aperture macros list*
%AMRoundRect*
0 Rectangle with rounded corners*
0 $1 Rounding radius*
0 $2 $3 $4 $5 $6 $7 $8 $9 X,Y pos of 4 corners*
0 Add a 4 corners polygon primitive as box body*
4,1,4,$2,$3,$4,$5,$6,$7,$8,$9,$2,$3,0*
0 Add four circle primitives for the rounded corners*
1,1,$1+$1,$2,$3*
1,1,$1+$1,$4,$5*
1,1,$1+$1,$6,$7*
1,1,$1+$1,$8,$9*
0 Add four rect primitives between the rounded corners*
20,1,$1+$1,$2,$3,$4,$5,0*
20,1,$1+$1,$4,$5,$6,$7,0*
20,1,$1+$1,$6,$7,$8,$9,0*
20,1,$1+$1,$8,$9,$2,$3,0*%
G04 Aperture macros list end*
%ADD10RoundRect,0.140000X0.170000X-0.140000X0.170000X0.140000X-0.170000X0.140000X-0.170000X-0.140000X0*%
%ADD11RoundRect,0.140000X-0.140000X-0.170000X0.140000X-0.170000X0.140000X0.170000X-0.140000X0.170000X0*%
%ADD12RoundRect,0.225000X0.225000X0.250000X-0.225000X0.250000X-0.225000X-0.250000X0.225000X-0.250000X0*%
%ADD13RoundRect,0.135000X-0.185000X0.135000X-0.185000X-0.135000X0.185000X-0.135000X0.185000X0.135000X0*%
%ADD14R,1.200000X1.400000*%
%ADD15RoundRect,0.218750X-0.381250X0.218750X-0.381250X-0.218750X0.381250X-0.218750X0.381250X0.218750X0*%
%ADD16RoundRect,0.250000X-0.375000X-0.625000X0.375000X-0.625000X0.375000X0.625000X-0.375000X0.625000X0*%
%ADD17R,0.800000X1.000000*%
%ADD18R,1.500000X0.700000*%
%ADD19RoundRect,0.200000X0.275000X-0.200000X0.275000X0.200000X-0.275000X0.200000X-0.275000X-0.200000X0*%
%ADD20RoundRect,0.135000X0.185000X-0.135000X0.185000X0.135000X-0.185000X0.135000X-0.185000X-0.135000X0*%
%ADD21RoundRect,0.218750X0.256250X-0.218750X0.256250X0.218750X-0.256250X0.218750X-0.256250X-0.218750X0*%
%ADD22R,1.500000X2.500000*%
%ADD23RoundRect,0.225000X-0.225000X-0.375000X0.225000X-0.375000X0.225000X0.375000X-0.225000X0.375000X0*%
%ADD24RoundRect,0.150000X0.150000X-0.512500X0.150000X0.512500X-0.150000X0.512500X-0.150000X-0.512500X0*%
%ADD25RoundRect,0.218750X0.218750X0.256250X-0.218750X0.256250X-0.218750X-0.256250X0.218750X-0.256250X0*%
%ADD26RoundRect,0.225000X0.250000X-0.225000X0.250000X0.225000X-0.250000X0.225000X-0.250000X-0.225000X0*%
%ADD27RoundRect,0.250000X-0.325000X-0.650000X0.325000X-0.650000X0.325000X0.650000X-0.325000X0.650000X0*%
%ADD28RoundRect,0.200000X-0.275000X0.200000X-0.275000X-0.200000X0.275000X-0.200000X0.275000X0.200000X0*%
%ADD29RoundRect,0.150000X-0.150000X0.587500X-0.150000X-0.587500X0.150000X-0.587500X0.150000X0.587500X0*%
%ADD30RoundRect,0.075000X-0.700000X-0.075000X0.700000X-0.075000X0.700000X0.075000X-0.700000X0.075000X0*%
%ADD31RoundRect,0.075000X-0.075000X-0.700000X0.075000X-0.700000X0.075000X0.700000X-0.075000X0.700000X0*%
%ADD32RoundRect,0.135000X0.135000X0.185000X-0.135000X0.185000X-0.135000X-0.185000X0.135000X-0.185000X0*%
%ADD33R,2.500000X1.900000*%
%ADD34RoundRect,0.225000X-0.225000X-0.250000X0.225000X-0.250000X0.225000X0.250000X-0.225000X0.250000X0*%
%ADD35RoundRect,0.140000X0.140000X0.170000X-0.140000X0.170000X-0.140000X-0.170000X0.140000X-0.170000X0*%
%ADD36RoundRect,0.100000X0.575000X-0.100000X0.575000X0.100000X-0.575000X0.100000X-0.575000X-0.100000X0*%
%ADD37O,1.600000X0.900000*%
%ADD38RoundRect,0.250000X0.450000X-0.550000X0.450000X0.550000X-0.450000X0.550000X-0.450000X-0.550000X0*%
%ADD39RoundRect,0.250000X0.700000X-0.700000X0.700000X0.700000X-0.700000X0.700000X-0.700000X-0.700000X0*%
%ADD40RoundRect,0.135000X-0.135000X-0.185000X0.135000X-0.185000X0.135000X0.185000X-0.135000X0.185000X0*%
%ADD41RoundRect,0.150000X0.512500X0.150000X-0.512500X0.150000X-0.512500X-0.150000X0.512500X-0.150000X0*%
%ADD42RoundRect,0.200000X0.200000X0.275000X-0.200000X0.275000X-0.200000X-0.275000X0.200000X-0.275000X0*%
G04 APERTURE END LIST*
D10*
%TO.C,C9*%
X151000000Y-103000000D03*
X151000000Y-102040000D03*
%TD*%
D11*
%TO.C,C12*%
X148040000Y-96000000D03*
X149000000Y-96000000D03*
%TD*%
D12*
%TO.C,C3*%
X154550000Y-93000000D03*
X153000000Y-93000000D03*
%TD*%
D13*
%TO.C,R7*%
X182850000Y-119350000D03*
X182850000Y-120370000D03*
%TD*%
D11*
%TO.C,C6*%
X165520000Y-106000000D03*
X166480000Y-106000000D03*
%TD*%
D14*
%TO.C,Y1*%
X147300000Y-97800000D03*
X147300000Y-100000000D03*
X149000000Y-100000000D03*
X149000000Y-97800000D03*
%TD*%
D15*
%TO.C,FB1*%
X178000000Y-106937500D03*
X178000000Y-109062500D03*
%TD*%
D16*
%TO.C,F1*%
X181200000Y-106000000D03*
X184000000Y-106000000D03*
%TD*%
D17*
%TO.C,SW1*%
X146350000Y-86600000D03*
X144140000Y-86600000D03*
X146350000Y-93900000D03*
X144140000Y-93900000D03*
D18*
X147000000Y-88000000D03*
X147000000Y-91000000D03*
X147000000Y-92500000D03*
%TD*%
D19*
%TO.C,R5*%
X183000000Y-117825000D03*
X183000000Y-116175000D03*
%TD*%
D20*
%TO.C,R3*%
X152100000Y-108220000D03*
X152100000Y-107200000D03*
%TD*%
D21*
%TO.C,D1*%
X154000000Y-109000000D03*
X154000000Y-107425000D03*
%TD*%
D22*
%TO.C,L1*%
X145150000Y-106000000D03*
X148850000Y-106000000D03*
%TD*%
D23*
%TO.C,D3*%
X186350000Y-106000000D03*
X189650000Y-106000000D03*
%TD*%
D24*
%TO.C,IC1*%
X177100000Y-118275000D03*
X178050000Y-118275000D03*
X179000000Y-118275000D03*
X179000000Y-116000000D03*
X178050000Y-116000000D03*
X177100000Y-116000000D03*
%TD*%
D25*
%TO.C,D4*%
X186062500Y-83750000D03*
X184487500Y-83750000D03*
%TD*%
D26*
%TO.C,C14*%
X175000000Y-118000000D03*
X175000000Y-116450000D03*
%TD*%
D27*
%TO.C,C15*%
X169025000Y-121700000D03*
X171975000Y-121700000D03*
%TD*%
D10*
%TO.C,C7*%
X166000000Y-95000000D03*
X166000000Y-94040000D03*
%TD*%
D28*
%TO.C,R8*%
X185000000Y-120000000D03*
X185000000Y-121650000D03*
%TD*%
D10*
%TO.C,C10*%
X152000000Y-103000000D03*
X152000000Y-102040000D03*
%TD*%
D29*
%TO.C,Q1*%
X184000000Y-112125000D03*
X182100000Y-112125000D03*
X183050000Y-114000000D03*
%TD*%
D10*
%TO.C,C4*%
X152000000Y-96000000D03*
X152000000Y-95040000D03*
%TD*%
D30*
%TO.C,U1*%
X154325000Y-96250000D03*
X154325000Y-96750000D03*
X154325000Y-97250000D03*
X154325000Y-97750000D03*
X154325000Y-98250000D03*
X154325000Y-98750000D03*
X154325000Y-99250000D03*
X154325000Y-99750000D03*
X154325000Y-100250000D03*
X154325000Y-100750000D03*
X154325000Y-101250000D03*
X154325000Y-101750000D03*
X154325000Y-102250000D03*
X154325000Y-102750000D03*
X154325000Y-103250000D03*
X154325000Y-103750000D03*
D31*
X156250000Y-105675000D03*
X156750000Y-105675000D03*
X157250000Y-105675000D03*
X157750000Y-105675000D03*
X158250000Y-105675000D03*
X158750000Y-105675000D03*
X159250000Y-105675000D03*
X159750000Y-105675000D03*
X160250000Y-105675000D03*
X160750000Y-105675000D03*
X161250000Y-105675000D03*
X161750000Y-105675000D03*
X162250000Y-105675000D03*
X162750000Y-105675000D03*
X163250000Y-105675000D03*
X163750000Y-105675000D03*
D30*
X165675000Y-103750000D03*
X165675000Y-103250000D03*
X165675000Y-102750000D03*
X165675000Y-102250000D03*
X165675000Y-101750000D03*
X165675000Y-101250000D03*
X165675000Y-100750000D03*
X165675000Y-100250000D03*
X165675000Y-99750000D03*
X165675000Y-99250000D03*
X165675000Y-98750000D03*
X165675000Y-98250000D03*
X165675000Y-97750000D03*
X165675000Y-97250000D03*
X165675000Y-96750000D03*
X165675000Y-96250000D03*
D31*
X163750000Y-94325000D03*
X163250000Y-94325000D03*
X162750000Y-94325000D03*
X162250000Y-94325000D03*
X161750000Y-94325000D03*
X161250000Y-94325000D03*
X160750000Y-94325000D03*
X160250000Y-94325000D03*
X159750000Y-94325000D03*
X159250000Y-94325000D03*
X158750000Y-94325000D03*
X158250000Y-94325000D03*
X157750000Y-94325000D03*
X157250000Y-94325000D03*
X156750000Y-94325000D03*
X156250000Y-94325000D03*
%TD*%
D28*
%TO.C,R4*%
X181000000Y-116175000D03*
X181000000Y-117825000D03*
%TD*%
D32*
%TO.C,R2*%
X152020000Y-99000000D03*
X151000000Y-99000000D03*
%TD*%
D33*
%TO.C,L2*%
X170475000Y-114900000D03*
X170475000Y-119000000D03*
%TD*%
D34*
%TO.C,C2*%
X164225000Y-108000000D03*
X165775000Y-108000000D03*
%TD*%
D35*
%TO.C,C5*%
X158000000Y-108000000D03*
X157040000Y-108000000D03*
%TD*%
D36*
%TO.C,J5*%
X196325000Y-97000000D03*
X196325000Y-96350000D03*
X196325000Y-95700000D03*
X196325000Y-95050000D03*
X196325000Y-94400000D03*
D37*
X199000000Y-99000000D03*
D38*
X196550000Y-98900000D03*
D39*
X199000000Y-96900000D03*
X199000000Y-94500000D03*
D38*
X196550000Y-92500000D03*
D37*
X199000000Y-92400000D03*
%TD*%
D32*
%TO.C,R9*%
X162020000Y-90000000D03*
X161000000Y-90000000D03*
%TD*%
D40*
%TO.C,R1*%
X149000000Y-91000000D03*
X150020000Y-91000000D03*
%TD*%
D19*
%TO.C,R6*%
X181000000Y-120950000D03*
X181000000Y-119300000D03*
%TD*%
D41*
%TO.C,U3*%
X192000000Y-96900000D03*
X192000000Y-95950000D03*
X192000000Y-95000000D03*
X189725000Y-95000000D03*
X189725000Y-95950000D03*
X189725000Y-96900000D03*
%TD*%
D26*
%TO.C,C1*%
X168000000Y-95775000D03*
X168000000Y-94225000D03*
%TD*%
D11*
%TO.C,C8*%
X156040000Y-92000000D03*
X157000000Y-92000000D03*
%TD*%
D40*
%TO.C,R10*%
X158000000Y-90000000D03*
X159020000Y-90000000D03*
%TD*%
D27*
%TO.C,C16*%
X169025000Y-124200000D03*
X171975000Y-124200000D03*
%TD*%
D35*
%TO.C,C11*%
X149000000Y-102000000D03*
X148040000Y-102000000D03*
%TD*%
D23*
%TO.C,D2*%
X168825000Y-112000000D03*
X172125000Y-112000000D03*
%TD*%
D27*
%TO.C,C13*%
X174050000Y-112000000D03*
X177000000Y-112000000D03*
%TD*%
D42*
%TO.C,R11*%
X186100000Y-85750000D03*
X184450000Y-85750000D03*
%TD*%
M02*
