%TF.GenerationSoftware,KiCad,Pcbnew,8.0.3*%
%TF.CreationDate,2024-07-29T10:59:52+05:30*%
%TF.ProjectId,SSTM32_REV2,5353544d-3332-45f5-9245-56322e6b6963,rev?*%
%TF.SameCoordinates,Original*%
%TF.FileFunction,Drillmap*%
%TF.FilePolarity,Positive*%
%FSLAX45Y45*%
G04 Gerber Fmt 4.5, Leading zero omitted, Abs format (unit mm)*
G04 Created by KiCad (PCBNEW 8.0.3) date 2024-07-29 10:59:52*
%MOMM*%
%LPD*%
G01*
G04 APERTURE LIST*
%ADD10C,0.050000*%
%ADD11C,0.200000*%
%ADD12C,0.100000*%
G04 APERTURE END LIST*
D10*
X14950000Y-12295000D02*
G75*
G02*
X14850000Y-12295000I-50000J0D01*
G01*
X14850000Y-12295000D02*
G75*
G02*
X14950000Y-12295000I50000J0D01*
G01*
X19470000Y-12310000D02*
G75*
G02*
X19370000Y-12310000I-50000J0D01*
G01*
X19370000Y-12310000D02*
G75*
G02*
X19470000Y-12310000I50000J0D01*
G01*
X19470000Y-8130000D02*
G75*
G02*
X19370000Y-8130000I-50000J0D01*
G01*
X19370000Y-8130000D02*
G75*
G02*
X19470000Y-8130000I50000J0D01*
G01*
X14915000Y-8120000D02*
G75*
G02*
X14815000Y-8120000I-50000J0D01*
G01*
X14815000Y-8120000D02*
G75*
G02*
X14915000Y-8120000I50000J0D01*
G01*
X14200000Y-8100000D02*
G75*
G02*
X14500000Y-7800000I300000J0D01*
G01*
X14500000Y-12600000D02*
G75*
G02*
X14200000Y-12300000I0J300000D01*
G01*
X14500000Y-12600000D02*
X19800000Y-12600000D01*
X19800000Y-7800000D02*
G75*
G02*
X20100000Y-8100000I0J-300000D01*
G01*
X14200000Y-8100000D02*
X14200000Y-12300000D01*
X19800000Y-7800000D02*
X14500000Y-7800000D01*
X20100000Y-12300000D02*
X20100000Y-8100000D01*
X20100000Y-12300000D02*
G75*
G02*
X19800000Y-12600000I-300000J0D01*
G01*
D11*
D12*
X14479000Y-8830000D02*
X14569000Y-8920000D01*
X14569000Y-8830000D02*
X14479000Y-8920000D01*
X14479000Y-9130000D02*
X14569000Y-9220000D01*
X14569000Y-9130000D02*
X14479000Y-9220000D01*
D11*
X14458277Y-12913984D02*
X14458277Y-12713984D01*
X14458277Y-12713984D02*
X14505896Y-12713984D01*
X14505896Y-12713984D02*
X14534467Y-12723508D01*
X14534467Y-12723508D02*
X14553515Y-12742555D01*
X14553515Y-12742555D02*
X14563039Y-12761603D01*
X14563039Y-12761603D02*
X14572562Y-12799698D01*
X14572562Y-12799698D02*
X14572562Y-12828269D01*
X14572562Y-12828269D02*
X14563039Y-12866365D01*
X14563039Y-12866365D02*
X14553515Y-12885412D01*
X14553515Y-12885412D02*
X14534467Y-12904460D01*
X14534467Y-12904460D02*
X14505896Y-12913984D01*
X14505896Y-12913984D02*
X14458277Y-12913984D01*
X14658277Y-12913984D02*
X14658277Y-12780650D01*
X14658277Y-12818746D02*
X14667801Y-12799698D01*
X14667801Y-12799698D02*
X14677324Y-12790174D01*
X14677324Y-12790174D02*
X14696372Y-12780650D01*
X14696372Y-12780650D02*
X14715420Y-12780650D01*
X14782086Y-12913984D02*
X14782086Y-12780650D01*
X14782086Y-12713984D02*
X14772562Y-12723508D01*
X14772562Y-12723508D02*
X14782086Y-12733031D01*
X14782086Y-12733031D02*
X14791610Y-12723508D01*
X14791610Y-12723508D02*
X14782086Y-12713984D01*
X14782086Y-12713984D02*
X14782086Y-12733031D01*
X14905896Y-12913984D02*
X14886848Y-12904460D01*
X14886848Y-12904460D02*
X14877324Y-12885412D01*
X14877324Y-12885412D02*
X14877324Y-12713984D01*
X15010658Y-12913984D02*
X14991610Y-12904460D01*
X14991610Y-12904460D02*
X14982086Y-12885412D01*
X14982086Y-12885412D02*
X14982086Y-12713984D01*
X15239229Y-12913984D02*
X15239229Y-12713984D01*
X15239229Y-12713984D02*
X15305896Y-12856841D01*
X15305896Y-12856841D02*
X15372562Y-12713984D01*
X15372562Y-12713984D02*
X15372562Y-12913984D01*
X15553515Y-12913984D02*
X15553515Y-12809222D01*
X15553515Y-12809222D02*
X15543991Y-12790174D01*
X15543991Y-12790174D02*
X15524943Y-12780650D01*
X15524943Y-12780650D02*
X15486848Y-12780650D01*
X15486848Y-12780650D02*
X15467801Y-12790174D01*
X15553515Y-12904460D02*
X15534467Y-12913984D01*
X15534467Y-12913984D02*
X15486848Y-12913984D01*
X15486848Y-12913984D02*
X15467801Y-12904460D01*
X15467801Y-12904460D02*
X15458277Y-12885412D01*
X15458277Y-12885412D02*
X15458277Y-12866365D01*
X15458277Y-12866365D02*
X15467801Y-12847317D01*
X15467801Y-12847317D02*
X15486848Y-12837793D01*
X15486848Y-12837793D02*
X15534467Y-12837793D01*
X15534467Y-12837793D02*
X15553515Y-12828269D01*
X15648753Y-12780650D02*
X15648753Y-12980650D01*
X15648753Y-12790174D02*
X15667801Y-12780650D01*
X15667801Y-12780650D02*
X15705896Y-12780650D01*
X15705896Y-12780650D02*
X15724943Y-12790174D01*
X15724943Y-12790174D02*
X15734467Y-12799698D01*
X15734467Y-12799698D02*
X15743991Y-12818746D01*
X15743991Y-12818746D02*
X15743991Y-12875888D01*
X15743991Y-12875888D02*
X15734467Y-12894936D01*
X15734467Y-12894936D02*
X15724943Y-12904460D01*
X15724943Y-12904460D02*
X15705896Y-12913984D01*
X15705896Y-12913984D02*
X15667801Y-12913984D01*
X15667801Y-12913984D02*
X15648753Y-12904460D01*
X15829705Y-12894936D02*
X15839229Y-12904460D01*
X15839229Y-12904460D02*
X15829705Y-12913984D01*
X15829705Y-12913984D02*
X15820182Y-12904460D01*
X15820182Y-12904460D02*
X15829705Y-12894936D01*
X15829705Y-12894936D02*
X15829705Y-12913984D01*
X15829705Y-12790174D02*
X15839229Y-12799698D01*
X15839229Y-12799698D02*
X15829705Y-12809222D01*
X15829705Y-12809222D02*
X15820182Y-12799698D01*
X15820182Y-12799698D02*
X15829705Y-12790174D01*
X15829705Y-12790174D02*
X15829705Y-12809222D01*
D12*
X14107500Y-13197500D02*
X14197500Y-13287500D01*
X14197500Y-13197500D02*
X14107500Y-13287500D01*
D11*
X14496372Y-13133984D02*
X14515420Y-13133984D01*
X14515420Y-13133984D02*
X14534467Y-13143508D01*
X14534467Y-13143508D02*
X14543991Y-13153031D01*
X14543991Y-13153031D02*
X14553515Y-13172079D01*
X14553515Y-13172079D02*
X14563039Y-13210174D01*
X14563039Y-13210174D02*
X14563039Y-13257793D01*
X14563039Y-13257793D02*
X14553515Y-13295888D01*
X14553515Y-13295888D02*
X14543991Y-13314936D01*
X14543991Y-13314936D02*
X14534467Y-13324460D01*
X14534467Y-13324460D02*
X14515420Y-13333984D01*
X14515420Y-13333984D02*
X14496372Y-13333984D01*
X14496372Y-13333984D02*
X14477324Y-13324460D01*
X14477324Y-13324460D02*
X14467801Y-13314936D01*
X14467801Y-13314936D02*
X14458277Y-13295888D01*
X14458277Y-13295888D02*
X14448753Y-13257793D01*
X14448753Y-13257793D02*
X14448753Y-13210174D01*
X14448753Y-13210174D02*
X14458277Y-13172079D01*
X14458277Y-13172079D02*
X14467801Y-13153031D01*
X14467801Y-13153031D02*
X14477324Y-13143508D01*
X14477324Y-13143508D02*
X14496372Y-13133984D01*
X14648753Y-13314936D02*
X14658277Y-13324460D01*
X14658277Y-13324460D02*
X14648753Y-13333984D01*
X14648753Y-13333984D02*
X14639229Y-13324460D01*
X14639229Y-13324460D02*
X14648753Y-13314936D01*
X14648753Y-13314936D02*
X14648753Y-13333984D01*
X14753515Y-13333984D02*
X14791610Y-13333984D01*
X14791610Y-13333984D02*
X14810658Y-13324460D01*
X14810658Y-13324460D02*
X14820182Y-13314936D01*
X14820182Y-13314936D02*
X14839229Y-13286365D01*
X14839229Y-13286365D02*
X14848753Y-13248269D01*
X14848753Y-13248269D02*
X14848753Y-13172079D01*
X14848753Y-13172079D02*
X14839229Y-13153031D01*
X14839229Y-13153031D02*
X14829705Y-13143508D01*
X14829705Y-13143508D02*
X14810658Y-13133984D01*
X14810658Y-13133984D02*
X14772562Y-13133984D01*
X14772562Y-13133984D02*
X14753515Y-13143508D01*
X14753515Y-13143508D02*
X14743991Y-13153031D01*
X14743991Y-13153031D02*
X14734467Y-13172079D01*
X14734467Y-13172079D02*
X14734467Y-13219698D01*
X14734467Y-13219698D02*
X14743991Y-13238746D01*
X14743991Y-13238746D02*
X14753515Y-13248269D01*
X14753515Y-13248269D02*
X14772562Y-13257793D01*
X14772562Y-13257793D02*
X14810658Y-13257793D01*
X14810658Y-13257793D02*
X14829705Y-13248269D01*
X14829705Y-13248269D02*
X14839229Y-13238746D01*
X14839229Y-13238746D02*
X14848753Y-13219698D01*
X14972562Y-13133984D02*
X14991610Y-13133984D01*
X14991610Y-13133984D02*
X15010658Y-13143508D01*
X15010658Y-13143508D02*
X15020182Y-13153031D01*
X15020182Y-13153031D02*
X15029705Y-13172079D01*
X15029705Y-13172079D02*
X15039229Y-13210174D01*
X15039229Y-13210174D02*
X15039229Y-13257793D01*
X15039229Y-13257793D02*
X15029705Y-13295888D01*
X15029705Y-13295888D02*
X15020182Y-13314936D01*
X15020182Y-13314936D02*
X15010658Y-13324460D01*
X15010658Y-13324460D02*
X14991610Y-13333984D01*
X14991610Y-13333984D02*
X14972562Y-13333984D01*
X14972562Y-13333984D02*
X14953515Y-13324460D01*
X14953515Y-13324460D02*
X14943991Y-13314936D01*
X14943991Y-13314936D02*
X14934467Y-13295888D01*
X14934467Y-13295888D02*
X14924943Y-13257793D01*
X14924943Y-13257793D02*
X14924943Y-13210174D01*
X14924943Y-13210174D02*
X14934467Y-13172079D01*
X14934467Y-13172079D02*
X14943991Y-13153031D01*
X14943991Y-13153031D02*
X14953515Y-13143508D01*
X14953515Y-13143508D02*
X14972562Y-13133984D01*
X15163039Y-13133984D02*
X15182086Y-13133984D01*
X15182086Y-13133984D02*
X15201134Y-13143508D01*
X15201134Y-13143508D02*
X15210658Y-13153031D01*
X15210658Y-13153031D02*
X15220182Y-13172079D01*
X15220182Y-13172079D02*
X15229705Y-13210174D01*
X15229705Y-13210174D02*
X15229705Y-13257793D01*
X15229705Y-13257793D02*
X15220182Y-13295888D01*
X15220182Y-13295888D02*
X15210658Y-13314936D01*
X15210658Y-13314936D02*
X15201134Y-13324460D01*
X15201134Y-13324460D02*
X15182086Y-13333984D01*
X15182086Y-13333984D02*
X15163039Y-13333984D01*
X15163039Y-13333984D02*
X15143991Y-13324460D01*
X15143991Y-13324460D02*
X15134467Y-13314936D01*
X15134467Y-13314936D02*
X15124943Y-13295888D01*
X15124943Y-13295888D02*
X15115420Y-13257793D01*
X15115420Y-13257793D02*
X15115420Y-13210174D01*
X15115420Y-13210174D02*
X15124943Y-13172079D01*
X15124943Y-13172079D02*
X15134467Y-13153031D01*
X15134467Y-13153031D02*
X15143991Y-13143508D01*
X15143991Y-13143508D02*
X15163039Y-13133984D01*
X15315420Y-13333984D02*
X15315420Y-13200650D01*
X15315420Y-13219698D02*
X15324943Y-13210174D01*
X15324943Y-13210174D02*
X15343991Y-13200650D01*
X15343991Y-13200650D02*
X15372563Y-13200650D01*
X15372563Y-13200650D02*
X15391610Y-13210174D01*
X15391610Y-13210174D02*
X15401134Y-13229222D01*
X15401134Y-13229222D02*
X15401134Y-13333984D01*
X15401134Y-13229222D02*
X15410658Y-13210174D01*
X15410658Y-13210174D02*
X15429705Y-13200650D01*
X15429705Y-13200650D02*
X15458277Y-13200650D01*
X15458277Y-13200650D02*
X15477324Y-13210174D01*
X15477324Y-13210174D02*
X15486848Y-13229222D01*
X15486848Y-13229222D02*
X15486848Y-13333984D01*
X15582086Y-13333984D02*
X15582086Y-13200650D01*
X15582086Y-13219698D02*
X15591610Y-13210174D01*
X15591610Y-13210174D02*
X15610658Y-13200650D01*
X15610658Y-13200650D02*
X15639229Y-13200650D01*
X15639229Y-13200650D02*
X15658277Y-13210174D01*
X15658277Y-13210174D02*
X15667801Y-13229222D01*
X15667801Y-13229222D02*
X15667801Y-13333984D01*
X15667801Y-13229222D02*
X15677324Y-13210174D01*
X15677324Y-13210174D02*
X15696372Y-13200650D01*
X15696372Y-13200650D02*
X15724943Y-13200650D01*
X15724943Y-13200650D02*
X15743991Y-13210174D01*
X15743991Y-13210174D02*
X15753515Y-13229222D01*
X15753515Y-13229222D02*
X15753515Y-13333984D01*
X16143991Y-13124460D02*
X15972563Y-13381603D01*
X16401134Y-13133984D02*
X16420182Y-13133984D01*
X16420182Y-13133984D02*
X16439229Y-13143508D01*
X16439229Y-13143508D02*
X16448753Y-13153031D01*
X16448753Y-13153031D02*
X16458277Y-13172079D01*
X16458277Y-13172079D02*
X16467801Y-13210174D01*
X16467801Y-13210174D02*
X16467801Y-13257793D01*
X16467801Y-13257793D02*
X16458277Y-13295888D01*
X16458277Y-13295888D02*
X16448753Y-13314936D01*
X16448753Y-13314936D02*
X16439229Y-13324460D01*
X16439229Y-13324460D02*
X16420182Y-13333984D01*
X16420182Y-13333984D02*
X16401134Y-13333984D01*
X16401134Y-13333984D02*
X16382086Y-13324460D01*
X16382086Y-13324460D02*
X16372563Y-13314936D01*
X16372563Y-13314936D02*
X16363039Y-13295888D01*
X16363039Y-13295888D02*
X16353515Y-13257793D01*
X16353515Y-13257793D02*
X16353515Y-13210174D01*
X16353515Y-13210174D02*
X16363039Y-13172079D01*
X16363039Y-13172079D02*
X16372563Y-13153031D01*
X16372563Y-13153031D02*
X16382086Y-13143508D01*
X16382086Y-13143508D02*
X16401134Y-13133984D01*
X16553515Y-13314936D02*
X16563039Y-13324460D01*
X16563039Y-13324460D02*
X16553515Y-13333984D01*
X16553515Y-13333984D02*
X16543991Y-13324460D01*
X16543991Y-13324460D02*
X16553515Y-13314936D01*
X16553515Y-13314936D02*
X16553515Y-13333984D01*
X16686848Y-13133984D02*
X16705896Y-13133984D01*
X16705896Y-13133984D02*
X16724944Y-13143508D01*
X16724944Y-13143508D02*
X16734467Y-13153031D01*
X16734467Y-13153031D02*
X16743991Y-13172079D01*
X16743991Y-13172079D02*
X16753515Y-13210174D01*
X16753515Y-13210174D02*
X16753515Y-13257793D01*
X16753515Y-13257793D02*
X16743991Y-13295888D01*
X16743991Y-13295888D02*
X16734467Y-13314936D01*
X16734467Y-13314936D02*
X16724944Y-13324460D01*
X16724944Y-13324460D02*
X16705896Y-13333984D01*
X16705896Y-13333984D02*
X16686848Y-13333984D01*
X16686848Y-13333984D02*
X16667801Y-13324460D01*
X16667801Y-13324460D02*
X16658277Y-13314936D01*
X16658277Y-13314936D02*
X16648753Y-13295888D01*
X16648753Y-13295888D02*
X16639229Y-13257793D01*
X16639229Y-13257793D02*
X16639229Y-13210174D01*
X16639229Y-13210174D02*
X16648753Y-13172079D01*
X16648753Y-13172079D02*
X16658277Y-13153031D01*
X16658277Y-13153031D02*
X16667801Y-13143508D01*
X16667801Y-13143508D02*
X16686848Y-13133984D01*
X16820182Y-13133984D02*
X16943991Y-13133984D01*
X16943991Y-13133984D02*
X16877325Y-13210174D01*
X16877325Y-13210174D02*
X16905896Y-13210174D01*
X16905896Y-13210174D02*
X16924944Y-13219698D01*
X16924944Y-13219698D02*
X16934468Y-13229222D01*
X16934468Y-13229222D02*
X16943991Y-13248269D01*
X16943991Y-13248269D02*
X16943991Y-13295888D01*
X16943991Y-13295888D02*
X16934468Y-13314936D01*
X16934468Y-13314936D02*
X16924944Y-13324460D01*
X16924944Y-13324460D02*
X16905896Y-13333984D01*
X16905896Y-13333984D02*
X16848753Y-13333984D01*
X16848753Y-13333984D02*
X16829706Y-13324460D01*
X16829706Y-13324460D02*
X16820182Y-13314936D01*
X17124944Y-13133984D02*
X17029706Y-13133984D01*
X17029706Y-13133984D02*
X17020182Y-13229222D01*
X17020182Y-13229222D02*
X17029706Y-13219698D01*
X17029706Y-13219698D02*
X17048753Y-13210174D01*
X17048753Y-13210174D02*
X17096372Y-13210174D01*
X17096372Y-13210174D02*
X17115420Y-13219698D01*
X17115420Y-13219698D02*
X17124944Y-13229222D01*
X17124944Y-13229222D02*
X17134468Y-13248269D01*
X17134468Y-13248269D02*
X17134468Y-13295888D01*
X17134468Y-13295888D02*
X17124944Y-13314936D01*
X17124944Y-13314936D02*
X17115420Y-13324460D01*
X17115420Y-13324460D02*
X17096372Y-13333984D01*
X17096372Y-13333984D02*
X17048753Y-13333984D01*
X17048753Y-13333984D02*
X17029706Y-13324460D01*
X17029706Y-13324460D02*
X17020182Y-13314936D01*
X17305896Y-13200650D02*
X17305896Y-13333984D01*
X17258277Y-13124460D02*
X17210658Y-13267317D01*
X17210658Y-13267317D02*
X17334468Y-13267317D01*
X17401134Y-13133984D02*
X17401134Y-13172079D01*
X17477325Y-13133984D02*
X17477325Y-13172079D01*
X17772563Y-13410174D02*
X17763039Y-13400650D01*
X17763039Y-13400650D02*
X17743991Y-13372079D01*
X17743991Y-13372079D02*
X17734468Y-13353031D01*
X17734468Y-13353031D02*
X17724944Y-13324460D01*
X17724944Y-13324460D02*
X17715420Y-13276841D01*
X17715420Y-13276841D02*
X17715420Y-13238746D01*
X17715420Y-13238746D02*
X17724944Y-13191127D01*
X17724944Y-13191127D02*
X17734468Y-13162555D01*
X17734468Y-13162555D02*
X17743991Y-13143508D01*
X17743991Y-13143508D02*
X17763039Y-13114936D01*
X17763039Y-13114936D02*
X17772563Y-13105412D01*
X17839230Y-13153031D02*
X17848753Y-13143508D01*
X17848753Y-13143508D02*
X17867801Y-13133984D01*
X17867801Y-13133984D02*
X17915420Y-13133984D01*
X17915420Y-13133984D02*
X17934468Y-13143508D01*
X17934468Y-13143508D02*
X17943991Y-13153031D01*
X17943991Y-13153031D02*
X17953515Y-13172079D01*
X17953515Y-13172079D02*
X17953515Y-13191127D01*
X17953515Y-13191127D02*
X17943991Y-13219698D01*
X17943991Y-13219698D02*
X17829706Y-13333984D01*
X17829706Y-13333984D02*
X17953515Y-13333984D01*
X18191611Y-13333984D02*
X18191611Y-13133984D01*
X18277325Y-13333984D02*
X18277325Y-13229222D01*
X18277325Y-13229222D02*
X18267801Y-13210174D01*
X18267801Y-13210174D02*
X18248753Y-13200650D01*
X18248753Y-13200650D02*
X18220182Y-13200650D01*
X18220182Y-13200650D02*
X18201134Y-13210174D01*
X18201134Y-13210174D02*
X18191611Y-13219698D01*
X18401134Y-13333984D02*
X18382087Y-13324460D01*
X18382087Y-13324460D02*
X18372563Y-13314936D01*
X18372563Y-13314936D02*
X18363039Y-13295888D01*
X18363039Y-13295888D02*
X18363039Y-13238746D01*
X18363039Y-13238746D02*
X18372563Y-13219698D01*
X18372563Y-13219698D02*
X18382087Y-13210174D01*
X18382087Y-13210174D02*
X18401134Y-13200650D01*
X18401134Y-13200650D02*
X18429706Y-13200650D01*
X18429706Y-13200650D02*
X18448753Y-13210174D01*
X18448753Y-13210174D02*
X18458277Y-13219698D01*
X18458277Y-13219698D02*
X18467801Y-13238746D01*
X18467801Y-13238746D02*
X18467801Y-13295888D01*
X18467801Y-13295888D02*
X18458277Y-13314936D01*
X18458277Y-13314936D02*
X18448753Y-13324460D01*
X18448753Y-13324460D02*
X18429706Y-13333984D01*
X18429706Y-13333984D02*
X18401134Y-13333984D01*
X18582087Y-13333984D02*
X18563039Y-13324460D01*
X18563039Y-13324460D02*
X18553515Y-13305412D01*
X18553515Y-13305412D02*
X18553515Y-13133984D01*
X18734468Y-13324460D02*
X18715420Y-13333984D01*
X18715420Y-13333984D02*
X18677325Y-13333984D01*
X18677325Y-13333984D02*
X18658277Y-13324460D01*
X18658277Y-13324460D02*
X18648753Y-13305412D01*
X18648753Y-13305412D02*
X18648753Y-13229222D01*
X18648753Y-13229222D02*
X18658277Y-13210174D01*
X18658277Y-13210174D02*
X18677325Y-13200650D01*
X18677325Y-13200650D02*
X18715420Y-13200650D01*
X18715420Y-13200650D02*
X18734468Y-13210174D01*
X18734468Y-13210174D02*
X18743992Y-13229222D01*
X18743992Y-13229222D02*
X18743992Y-13248269D01*
X18743992Y-13248269D02*
X18648753Y-13267317D01*
X18820182Y-13324460D02*
X18839230Y-13333984D01*
X18839230Y-13333984D02*
X18877325Y-13333984D01*
X18877325Y-13333984D02*
X18896373Y-13324460D01*
X18896373Y-13324460D02*
X18905896Y-13305412D01*
X18905896Y-13305412D02*
X18905896Y-13295888D01*
X18905896Y-13295888D02*
X18896373Y-13276841D01*
X18896373Y-13276841D02*
X18877325Y-13267317D01*
X18877325Y-13267317D02*
X18848753Y-13267317D01*
X18848753Y-13267317D02*
X18829706Y-13257793D01*
X18829706Y-13257793D02*
X18820182Y-13238746D01*
X18820182Y-13238746D02*
X18820182Y-13229222D01*
X18820182Y-13229222D02*
X18829706Y-13210174D01*
X18829706Y-13210174D02*
X18848753Y-13200650D01*
X18848753Y-13200650D02*
X18877325Y-13200650D01*
X18877325Y-13200650D02*
X18896373Y-13210174D01*
X18972563Y-13410174D02*
X18982087Y-13400650D01*
X18982087Y-13400650D02*
X19001134Y-13372079D01*
X19001134Y-13372079D02*
X19010658Y-13353031D01*
X19010658Y-13353031D02*
X19020182Y-13324460D01*
X19020182Y-13324460D02*
X19029706Y-13276841D01*
X19029706Y-13276841D02*
X19029706Y-13238746D01*
X19029706Y-13238746D02*
X19020182Y-13191127D01*
X19020182Y-13191127D02*
X19010658Y-13162555D01*
X19010658Y-13162555D02*
X19001134Y-13143508D01*
X19001134Y-13143508D02*
X18982087Y-13114936D01*
X18982087Y-13114936D02*
X18972563Y-13105412D01*
X19334468Y-13410174D02*
X19324944Y-13400650D01*
X19324944Y-13400650D02*
X19305896Y-13372079D01*
X19305896Y-13372079D02*
X19296373Y-13353031D01*
X19296373Y-13353031D02*
X19286849Y-13324460D01*
X19286849Y-13324460D02*
X19277325Y-13276841D01*
X19277325Y-13276841D02*
X19277325Y-13238746D01*
X19277325Y-13238746D02*
X19286849Y-13191127D01*
X19286849Y-13191127D02*
X19296373Y-13162555D01*
X19296373Y-13162555D02*
X19305896Y-13143508D01*
X19305896Y-13143508D02*
X19324944Y-13114936D01*
X19324944Y-13114936D02*
X19334468Y-13105412D01*
X19410658Y-13200650D02*
X19410658Y-13333984D01*
X19410658Y-13219698D02*
X19420182Y-13210174D01*
X19420182Y-13210174D02*
X19439230Y-13200650D01*
X19439230Y-13200650D02*
X19467801Y-13200650D01*
X19467801Y-13200650D02*
X19486849Y-13210174D01*
X19486849Y-13210174D02*
X19496373Y-13229222D01*
X19496373Y-13229222D02*
X19496373Y-13333984D01*
X19620182Y-13333984D02*
X19601134Y-13324460D01*
X19601134Y-13324460D02*
X19591611Y-13314936D01*
X19591611Y-13314936D02*
X19582087Y-13295888D01*
X19582087Y-13295888D02*
X19582087Y-13238746D01*
X19582087Y-13238746D02*
X19591611Y-13219698D01*
X19591611Y-13219698D02*
X19601134Y-13210174D01*
X19601134Y-13210174D02*
X19620182Y-13200650D01*
X19620182Y-13200650D02*
X19648754Y-13200650D01*
X19648754Y-13200650D02*
X19667801Y-13210174D01*
X19667801Y-13210174D02*
X19677325Y-13219698D01*
X19677325Y-13219698D02*
X19686849Y-13238746D01*
X19686849Y-13238746D02*
X19686849Y-13295888D01*
X19686849Y-13295888D02*
X19677325Y-13314936D01*
X19677325Y-13314936D02*
X19667801Y-13324460D01*
X19667801Y-13324460D02*
X19648754Y-13333984D01*
X19648754Y-13333984D02*
X19620182Y-13333984D01*
X19743992Y-13200650D02*
X19820182Y-13200650D01*
X19772563Y-13133984D02*
X19772563Y-13305412D01*
X19772563Y-13305412D02*
X19782087Y-13324460D01*
X19782087Y-13324460D02*
X19801134Y-13333984D01*
X19801134Y-13333984D02*
X19820182Y-13333984D01*
X20039230Y-13200650D02*
X20039230Y-13400650D01*
X20039230Y-13210174D02*
X20058277Y-13200650D01*
X20058277Y-13200650D02*
X20096373Y-13200650D01*
X20096373Y-13200650D02*
X20115420Y-13210174D01*
X20115420Y-13210174D02*
X20124944Y-13219698D01*
X20124944Y-13219698D02*
X20134468Y-13238746D01*
X20134468Y-13238746D02*
X20134468Y-13295888D01*
X20134468Y-13295888D02*
X20124944Y-13314936D01*
X20124944Y-13314936D02*
X20115420Y-13324460D01*
X20115420Y-13324460D02*
X20096373Y-13333984D01*
X20096373Y-13333984D02*
X20058277Y-13333984D01*
X20058277Y-13333984D02*
X20039230Y-13324460D01*
X20248754Y-13333984D02*
X20229706Y-13324460D01*
X20229706Y-13324460D02*
X20220182Y-13305412D01*
X20220182Y-13305412D02*
X20220182Y-13133984D01*
X20410658Y-13333984D02*
X20410658Y-13229222D01*
X20410658Y-13229222D02*
X20401135Y-13210174D01*
X20401135Y-13210174D02*
X20382087Y-13200650D01*
X20382087Y-13200650D02*
X20343992Y-13200650D01*
X20343992Y-13200650D02*
X20324944Y-13210174D01*
X20410658Y-13324460D02*
X20391611Y-13333984D01*
X20391611Y-13333984D02*
X20343992Y-13333984D01*
X20343992Y-13333984D02*
X20324944Y-13324460D01*
X20324944Y-13324460D02*
X20315420Y-13305412D01*
X20315420Y-13305412D02*
X20315420Y-13286365D01*
X20315420Y-13286365D02*
X20324944Y-13267317D01*
X20324944Y-13267317D02*
X20343992Y-13257793D01*
X20343992Y-13257793D02*
X20391611Y-13257793D01*
X20391611Y-13257793D02*
X20410658Y-13248269D01*
X20477325Y-13200650D02*
X20553515Y-13200650D01*
X20505896Y-13133984D02*
X20505896Y-13305412D01*
X20505896Y-13305412D02*
X20515420Y-13324460D01*
X20515420Y-13324460D02*
X20534468Y-13333984D01*
X20534468Y-13333984D02*
X20553515Y-13333984D01*
X20696373Y-13324460D02*
X20677325Y-13333984D01*
X20677325Y-13333984D02*
X20639230Y-13333984D01*
X20639230Y-13333984D02*
X20620182Y-13324460D01*
X20620182Y-13324460D02*
X20610658Y-13305412D01*
X20610658Y-13305412D02*
X20610658Y-13229222D01*
X20610658Y-13229222D02*
X20620182Y-13210174D01*
X20620182Y-13210174D02*
X20639230Y-13200650D01*
X20639230Y-13200650D02*
X20677325Y-13200650D01*
X20677325Y-13200650D02*
X20696373Y-13210174D01*
X20696373Y-13210174D02*
X20705896Y-13229222D01*
X20705896Y-13229222D02*
X20705896Y-13248269D01*
X20705896Y-13248269D02*
X20610658Y-13267317D01*
X20877325Y-13333984D02*
X20877325Y-13133984D01*
X20877325Y-13324460D02*
X20858277Y-13333984D01*
X20858277Y-13333984D02*
X20820182Y-13333984D01*
X20820182Y-13333984D02*
X20801135Y-13324460D01*
X20801135Y-13324460D02*
X20791611Y-13314936D01*
X20791611Y-13314936D02*
X20782087Y-13295888D01*
X20782087Y-13295888D02*
X20782087Y-13238746D01*
X20782087Y-13238746D02*
X20791611Y-13219698D01*
X20791611Y-13219698D02*
X20801135Y-13210174D01*
X20801135Y-13210174D02*
X20820182Y-13200650D01*
X20820182Y-13200650D02*
X20858277Y-13200650D01*
X20858277Y-13200650D02*
X20877325Y-13210174D01*
X20953516Y-13410174D02*
X20963039Y-13400650D01*
X20963039Y-13400650D02*
X20982087Y-13372079D01*
X20982087Y-13372079D02*
X20991611Y-13353031D01*
X20991611Y-13353031D02*
X21001135Y-13324460D01*
X21001135Y-13324460D02*
X21010658Y-13276841D01*
X21010658Y-13276841D02*
X21010658Y-13238746D01*
X21010658Y-13238746D02*
X21001135Y-13191127D01*
X21001135Y-13191127D02*
X20991611Y-13162555D01*
X20991611Y-13162555D02*
X20982087Y-13143508D01*
X20982087Y-13143508D02*
X20963039Y-13114936D01*
X20963039Y-13114936D02*
X20953516Y-13105412D01*
M02*
