%TF.GenerationSoftware,KiCad,Pcbnew,8.0.3*%
%TF.CreationDate,2024-07-29T11:00:05+05:30*%
%TF.ProjectId,SSTM32_REV2,5353544d-3332-45f5-9245-56322e6b6963,rev?*%
%TF.SameCoordinates,Original*%
%TF.FileFunction,Copper,L4,Bot*%
%TF.FilePolarity,Positive*%
%FSLAX46Y46*%
G04 Gerber Fmt 4.6, Leading zero omitted, Abs format (unit mm)*
G04 Created by KiCad (PCBNEW 8.0.3) date 2024-07-29 11:00:05*
%MOMM*%
%LPD*%
G01*
G04 APERTURE LIST*
G04 Aperture macros list*
%AMRoundRect*
0 Rectangle with rounded corners*
0 $1 Rounding radius*
0 $2 $3 $4 $5 $6 $7 $8 $9 X,Y pos of 4 corners*
0 Add a 4 corners polygon primitive as box body*
4,1,4,$2,$3,$4,$5,$6,$7,$8,$9,$2,$3,0*
0 Add four circle primitives for the rounded corners*
1,1,$1+$1,$2,$3*
1,1,$1+$1,$4,$5*
1,1,$1+$1,$6,$7*
1,1,$1+$1,$8,$9*
0 Add four rect primitives between the rounded corners*
20,1,$1+$1,$2,$3,$4,$5,0*
20,1,$1+$1,$4,$5,$6,$7,0*
20,1,$1+$1,$6,$7,$8,$9,0*
20,1,$1+$1,$8,$9,$2,$3,0*%
G04 Aperture macros list end*
%TA.AperFunction,ComponentPad*%
%ADD10RoundRect,0.250000X1.400000X-0.650000X1.400000X0.650000X-1.400000X0.650000X-1.400000X-0.650000X0*%
%TD*%
%TA.AperFunction,ComponentPad*%
%ADD11O,3.300000X1.800000*%
%TD*%
%TA.AperFunction,ComponentPad*%
%ADD12C,3.800000*%
%TD*%
%TA.AperFunction,ComponentPad*%
%ADD13RoundRect,0.200000X-0.200000X-0.450000X0.200000X-0.450000X0.200000X0.450000X-0.200000X0.450000X0*%
%TD*%
%TA.AperFunction,ComponentPad*%
%ADD14O,0.800000X1.300000*%
%TD*%
%TA.AperFunction,ComponentPad*%
%ADD15R,1.000000X1.000000*%
%TD*%
%TA.AperFunction,ComponentPad*%
%ADD16O,1.000000X1.000000*%
%TD*%
%TA.AperFunction,ComponentPad*%
%ADD17O,1.600000X0.900000*%
%TD*%
%TA.AperFunction,ComponentPad*%
%ADD18RoundRect,0.200000X0.200000X0.450000X-0.200000X0.450000X-0.200000X-0.450000X0.200000X-0.450000X0*%
%TD*%
%TA.AperFunction,ViaPad*%
%ADD19C,0.800000*%
%TD*%
%TA.AperFunction,ViaPad*%
%ADD20C,0.600000*%
%TD*%
%TA.AperFunction,Conductor*%
%ADD21C,0.300000*%
%TD*%
G04 APERTURE END LIST*
D10*
%TO.P,J1,1,Pin_1*%
%TO.N,+12V*%
X188552500Y-116900000D03*
X196752500Y-116900000D03*
D11*
%TO.P,J1,2,Pin_2*%
%TO.N,GND*%
X188552500Y-113400000D03*
X196752500Y-113400000D03*
%TD*%
D12*
%TO.P,H2,1,1*%
%TO.N,GND*%
X198000000Y-123000000D03*
%TD*%
%TO.P,H1,1,1*%
%TO.N,GND*%
X145000000Y-81000000D03*
%TD*%
%TO.P,H3,1,1*%
%TO.N,GND*%
X145000000Y-123000000D03*
%TD*%
D13*
%TO.P,J4,1,Pin_1*%
%TO.N,+3.3V*%
X158125000Y-121000000D03*
D14*
%TO.P,J4,2,Pin_2*%
%TO.N,UART3_TX*%
X159375000Y-121000000D03*
%TO.P,J4,3,Pin_3*%
%TO.N,UART3_RX*%
X160625000Y-121000000D03*
%TO.P,J4,4,Pin_4*%
%TO.N,GND*%
X161875000Y-121000000D03*
%TD*%
D15*
%TO.P,J6,1,Pin_1*%
%TO.N,+3.3V*%
X174100000Y-83925000D03*
D16*
%TO.P,J6,2,Pin_2*%
%TO.N,SWDIO*%
X174100000Y-85195000D03*
%TO.P,J6,3,Pin_3*%
%TO.N,GND*%
X172830000Y-83925000D03*
%TO.P,J6,4,Pin_4*%
%TO.N,SWCLK*%
X172830000Y-85195000D03*
%TO.P,J6,5,Pin_5*%
%TO.N,GND*%
X171560000Y-83925000D03*
%TO.P,J6,6,Pin_6*%
%TO.N,SWO*%
X171560000Y-85195000D03*
%TO.P,J6,7,Pin_7*%
%TO.N,unconnected-(J6-Pin_7-Pad7)*%
X170290000Y-83925000D03*
%TO.P,J6,8,Pin_8*%
%TO.N,unconnected-(J6-Pin_8-Pad8)*%
X170290000Y-85195000D03*
%TO.P,J6,9,Pin_9*%
%TO.N,GND*%
X169020000Y-83925000D03*
%TO.P,J6,10,Pin_10*%
%TO.N,NRST*%
X169020000Y-85195000D03*
%TD*%
D17*
%TO.P,J5,6,Shield*%
%TO.N,unconnected-(J5-Shield-Pad6)_1*%
X199000000Y-99000000D03*
%TO.N,unconnected-(J5-Shield-Pad6)*%
X199000000Y-92400000D03*
%TD*%
D12*
%TO.P,H4,1,1*%
%TO.N,GND*%
X198000000Y-81000000D03*
%TD*%
D18*
%TO.P,J3,1,Pin_1*%
%TO.N,+3.3V*%
X161750000Y-83000000D03*
D14*
%TO.P,J3,2,Pin_2*%
%TO.N,I2C1_SCL*%
X160500000Y-83000000D03*
%TO.P,J3,3,Pin_3*%
%TO.N,I2C1_SDA*%
X159250000Y-83000000D03*
%TO.P,J3,4,Pin_4*%
%TO.N,GND*%
X158000000Y-83000000D03*
%TD*%
D19*
%TO.N,GND*%
X152100000Y-93000000D03*
X151000000Y-101300000D03*
X172900000Y-122000000D03*
X185000000Y-122500000D03*
X172850000Y-82900000D03*
X172900000Y-125000000D03*
X190900000Y-93800000D03*
X172300000Y-111000000D03*
X146300000Y-100100000D03*
X152000000Y-101300000D03*
X157600000Y-92000000D03*
X176100000Y-112000000D03*
X165800000Y-108900000D03*
X186000000Y-121800000D03*
X197100000Y-112100000D03*
X184000000Y-111000000D03*
X194000000Y-93000000D03*
X147500000Y-102600000D03*
X148100000Y-92500000D03*
X168975784Y-94188228D03*
X183800000Y-116500000D03*
X194000000Y-94200000D03*
X167200000Y-106000000D03*
X188700000Y-112100000D03*
X173000000Y-123900000D03*
X157000000Y-108800000D03*
X149000000Y-95200000D03*
X183575000Y-85750000D03*
X172895950Y-120871090D03*
X152000000Y-94300000D03*
X195000000Y-93000000D03*
X150000000Y-97800000D03*
X178080996Y-119290190D03*
X182400000Y-115600000D03*
X178100000Y-120200000D03*
X195200000Y-94200000D03*
X172100000Y-113000000D03*
X177900000Y-112000000D03*
X166800000Y-94100000D03*
X171600000Y-82900000D03*
X152100000Y-106500000D03*
X169050000Y-82900000D03*
X157600000Y-81900000D03*
%TO.N,+3.3V*%
X158000000Y-108800000D03*
X157200000Y-90000000D03*
X166800000Y-95100000D03*
X161800000Y-81900000D03*
X168700000Y-117900000D03*
X168000000Y-122000000D03*
X168000000Y-124500000D03*
X145200000Y-107700000D03*
X151200000Y-96100000D03*
X175200000Y-84050000D03*
X165600000Y-106800000D03*
X170100000Y-124500000D03*
X156000000Y-91200000D03*
X154600000Y-91900000D03*
X172300000Y-119000000D03*
X181000000Y-121800000D03*
X148200000Y-88000000D03*
X168700000Y-119000000D03*
X170000000Y-122000000D03*
X162800000Y-90000000D03*
X172200000Y-117800000D03*
X143900000Y-105900000D03*
X183575000Y-83750000D03*
X180000000Y-121000000D03*
D20*
%TO.N,NRST*%
X165000000Y-91000000D03*
X162000000Y-96000000D03*
%TD*%
D21*
%TO.N,NRST*%
X162000000Y-96000000D02*
X162000000Y-94000000D01*
X162000000Y-94000000D02*
X165000000Y-91000000D01*
%TD*%
M02*
