M48
; DRILL file {KiCad 8.0.3} date 2024-07-29T10:59:44+0530
; FORMAT={-:-/ absolute / inch / decimal}
; #@! TF.CreationDate,2024-07-29T10:59:44+05:30
; #@! TF.GenerationSoftware,Kicad,Pcbnew,8.0.3
; #@! TF.FileFunction,Plated,1,4,PTH
FMAT,2
INCH
; #@! TA.AperFunction,Plated,PTH,ViaDrill
T1C0.0118
; #@! TA.AperFunction,Plated,PTH,ViaDrill
T2C0.0157
; #@! TA.AperFunction,Plated,PTH,ComponentDrill
T3C0.0197
; #@! TA.AperFunction,Plated,PTH,ComponentDrill
T4C0.0256
; #@! TA.AperFunction,Plated,PTH,ComponentDrill
T5C0.0433
; #@! TA.AperFunction,Plated,PTH,ComponentDrill
T6C0.0866
%
G90
G05
T1
X6.378Y-3.7795
X6.4961Y-3.5827
T2
X5.6654Y-4.1693
X5.7165Y-4.2402
X5.7598Y-3.9409
X5.8071Y-4.0394
X5.8307Y-3.6417
X5.8346Y-3.4646
X5.8661Y-3.748
X5.9055Y-3.8504
X5.9449Y-3.9882
X5.9528Y-3.7835
X5.9843Y-3.7126
X5.9843Y-3.9882
X5.9882Y-3.6614
X5.9882Y-4.1929
X6.0866Y-3.6181
X6.1417Y-3.5906
X6.1811Y-4.2835
X6.189Y-3.5433
X6.2047Y-3.2244
X6.2047Y-3.622
X6.2205Y-4.2835
X6.3701Y-3.2244
X6.4094Y-3.5433
X6.5197Y-4.2047
X6.5276Y-4.2874
X6.5669Y-3.7047
X6.5669Y-3.7441
X6.5827Y-4.1732
X6.6142Y-4.8031
X6.6142Y-4.9016
X6.6417Y-4.6417
X6.6417Y-4.685
X6.6526Y-3.7082
X6.6555Y-3.2638
X6.6929Y-4.8031
X6.6969Y-4.9016
X6.7559Y-3.2638
X6.7756Y-4.4488
X6.7795Y-4.6378
X6.7835Y-4.3701
X6.7835Y-4.685
X6.8051Y-3.2638
X6.8069Y-4.7587
X6.8071Y-4.8031
X6.8071Y-4.9213
X6.811Y-4.878
X6.8976Y-3.3091
X6.9331Y-4.4094
X7.0039Y-4.4094
X7.0111Y-4.6965
X7.0118Y-4.7323
X7.0866Y-4.7638
X7.126Y-4.7953
X7.1811Y-4.5512
X7.2274Y-3.2972
X7.2274Y-3.376
X7.2362Y-4.5866
X7.2441Y-4.3701
X7.2835Y-4.8228
X7.3228Y-4.7953
X7.4291Y-4.4134
X7.5157Y-3.6929
X7.6378Y-3.6614
X7.6378Y-3.7087
X7.6772Y-3.6614
X7.685Y-3.7087
X7.7598Y-4.4134
T3
X6.2205Y-3.2677
X6.2254Y-4.7638
X6.2697Y-3.2677
X6.2746Y-4.7638
X6.3189Y-3.2677
X6.3238Y-4.7638
X6.3681Y-3.2677
X6.373Y-4.7638
T4
X6.6543Y-3.3041
X6.6543Y-3.3541
X6.7043Y-3.3041
X6.7043Y-3.3541
X6.7543Y-3.3041
X6.7543Y-3.3541
X6.8043Y-3.3041
X6.8043Y-3.3541
X6.8543Y-3.3041
X6.8543Y-3.3541
T5
X7.4233Y-4.4646
X7.4233Y-4.6024
X7.7462Y-4.4646
X7.7462Y-4.6024
T6
X5.7087Y-3.189
X5.7087Y-4.8425
X7.7953Y-3.189
X7.7953Y-4.8425
T3
G00X7.8484Y-3.6378
M15
G01X7.8209Y-3.6378
M16
G05
G00X7.8484Y-3.8976
M15
G01X7.8209Y-3.8976
M16
G05
M30
